<?xml version="1.0" encoding="utf-8"?>
<svg xmlns="http://www.w3.org/2000/svg" xmlns:xlink="http://www.w3.org/1999/xlink" width="960" height="480" viewBox="0 0 3840 1920">
<defs>
  <clipPath id="clip480">
    <rect x="0" y="0" width="3840" height="1920"/>
  </clipPath>
</defs>
<path clip-path="url(#clip480)" d="
M0 1920 L3840 1920 L3840 0 L0 0  Z
  " fill="#ffffff" fill-rule="evenodd" fill-opacity="1"/>
<defs>
  <clipPath id="clip481">
    <rect x="768" y="0" width="2689" height="1920"/>
  </clipPath>
</defs>
<path clip-path="url(#clip480)" d="
M47.2441 1821.37 L3792.76 1821.37 L3792.76 47.2441 L47.2441 47.2441  Z
  " fill="#ffffff" fill-rule="evenodd" fill-opacity="1"/>
<defs>
  <clipPath id="clip482">
    <rect x="47" y="47" width="3747" height="1775"/>
  </clipPath>
</defs>
<path clip-path="url(#clip480)" d="M1919.06 1890.22 L1919.06 1900.34 L1931.12 1900.34 L1931.12 1904.9 L1919.06 1904.9 L1919.06 1924.25 Q1919.06 1928.61 1920.24 1929.85 Q1921.45 1931.09 1925.11 1931.09 L1931.12 1931.09 L1931.12 1935.99 L1925.11 1935.99 Q1918.33 1935.99 1915.75 1933.48 Q1913.17 1930.93 1913.17 1924.25 L1913.17 1904.9 L1908.88 1904.9 L1908.88 1900.34 L1913.17 1900.34 L1913.17 1890.22 L1919.06 1890.22 Z" fill="#000000" fill-rule="evenodd" fill-opacity="1" /><polyline clip-path="url(#clip482)" style="stroke:#808080; stroke-linecap:round; stroke-linejoin:round; stroke-width:4; stroke-opacity:1; fill:none" points="
  47.2441,1153.38 49.1172,1148.56 50.9875,1143.71 52.8556,1138.85 54.7221,1133.98 56.5875,1129.08 58.4524,1124.17 60.3174,1119.24 62.1829,1114.29 64.0496,1109.32 
  65.9179,1104.34 67.7885,1099.35 69.6618,1094.34 71.5383,1089.32 73.4186,1084.28 75.3033,1079.22 77.1928,1074.16 79.0875,1069.08 80.9882,1063.99 82.8951,1058.89 
  84.8088,1053.77 86.7298,1048.65 88.6585,1043.51 90.5955,1038.37 92.5411,1033.21 94.4959,1028.05 96.4602,1022.88 98.4345,1017.7 100.419,1012.51 102.415,1007.31 
  104.422,1002.11 106.44,996.907 108.471,991.695 110.514,986.479 112.57,981.258 114.639,976.033 116.721,970.805 118.818,965.574 120.929,960.342 123.054,955.108 
  125.195,949.873 127.35,944.637 129.521,939.402 131.708,934.167 133.911,928.934 136.131,923.702 138.367,918.473 140.62,913.247 142.89,908.024 145.177,902.806 
  147.483,897.592 149.806,892.383 152.147,887.18 154.506,881.983 156.884,876.793 159.28,871.611 161.696,866.437 164.13,861.271 166.584,856.115 169.057,850.968 
  171.549,845.832 174.061,840.707 176.592,835.593 179.144,830.491 181.715,825.401 184.306,820.325 186.918,815.263 189.55,810.214 192.201,805.181 194.874,800.163 
  197.566,795.161 200.28,790.175 203.013,785.206 205.767,780.255 208.542,775.322 211.338,770.407 214.154,765.511 216.991,760.635 219.848,755.779 222.727,750.943 
  225.626,746.129 228.546,741.336 231.486,736.565 234.447,731.817 237.429,727.091 240.432,722.39 243.456,717.712 246.5,713.058 249.564,708.43 252.649,703.826 
  255.755,699.249 258.881,694.698 262.027,690.173 265.194,685.676 268.381,681.206 271.588,676.764 274.815,672.351 278.063,667.966 281.33,663.61 284.618,659.284 
  287.925,654.988 291.252,650.722 294.599,646.487 297.966,642.283 301.352,638.111 304.757,633.97 308.182,629.861 311.627,625.785 315.09,621.742 318.573,617.731 
  322.074,613.754 325.595,609.811 329.134,605.902 332.692,602.028 336.269,598.188 339.864,594.383 343.478,590.613 347.11,586.879 350.76,583.181 354.428,579.518 
  358.115,575.892 361.819,572.303 365.541,568.751 369.281,565.235 373.039,561.757 376.813,558.316 380.606,554.913 384.415,551.549 388.242,548.222 392.085,544.934 
  395.946,541.684 399.823,538.473 403.717,535.301 407.627,532.168 411.554,529.074 415.496,526.02 419.455,523.006 423.43,520.031 427.421,517.096 431.428,514.201 
  435.45,511.347 439.487,508.534 443.54,505.761 447.608,503.029 451.691,500.337 455.789,497.687 459.902,495.078 464.029,492.509 468.171,489.983 472.327,487.497 
  476.497,485.053 480.681,482.651 484.879,480.29 489.091,477.971 493.316,475.694 497.554,473.459 501.806,471.266 506.07,469.115 510.347,467.006 514.638,464.939 
  518.94,462.915 523.255,460.934 527.582,458.995 531.921,457.098 536.272,455.244 540.634,453.433 545.008,451.665 549.393,449.939 553.789,448.257 558.196,446.618 
  562.614,445.021 567.042,443.468 571.481,441.958 575.929,440.491 580.388,439.068 584.856,437.688 589.334,436.351 593.821,435.058 598.317,433.809 602.823,432.602 
  607.337,431.44 611.859,430.321 616.39,429.246 620.929,428.215 625.476,427.227 630.03,426.284 634.592,425.384 639.161,424.528 643.737,423.716 648.32,422.947 
  652.91,422.223 657.506,421.543 662.108,420.907 666.716,420.315 671.33,419.767 675.949,419.263 680.574,418.803 685.203,418.387 689.837,418.015 694.476,417.688 
  699.119,417.404 703.766,417.165 708.417,416.97 713.072,416.819 717.731,416.712 722.393,416.649 727.059,416.631 731.727,416.657 736.398,416.727 741.071,416.842 
  745.747,417.001 750.424,417.205 755.104,417.453 759.785,417.746 764.467,418.084 769.15,418.466 773.834,418.893 778.519,419.365 783.205,419.882 787.89,420.443 
  792.576,421.049 797.262,421.701 801.947,422.397 806.632,423.138 811.317,423.924 816,424.755 820.683,425.63 825.364,426.551 830.044,427.517 834.723,428.528 
  839.4,429.584 844.075,430.685 848.748,431.831 853.419,433.022 858.088,434.258 862.754,435.539 867.418,436.865 872.08,438.236 876.738,439.652 881.394,441.113 
  886.046,442.619 890.696,444.17 895.342,445.766 899.985,447.407 904.624,449.093 909.26,450.824 913.892,452.599 918.521,454.42 923.145,456.285 927.766,458.195 
  932.382,460.15 936.994,462.15 941.602,464.194 946.206,466.283 950.806,468.417 955.401,470.595 959.992,472.818 964.578,475.085 969.159,477.396 973.736,479.752 
  978.308,482.153 982.875,484.597 987.438,487.086 991.996,489.619 996.549,492.196 1001.1,494.818 1005.64,497.483 1010.18,500.192 1014.71,502.945 1019.24,505.742 
  1023.76,508.582 1028.28,511.466 1032.79,514.394 1037.3,517.365 1041.8,520.38 1046.3,523.439 1050.79,526.54 1055.28,529.684 1059.76,532.872 1064.24,536.101 
  1068.71,539.374 1073.18,542.688 1077.64,546.044 1082.09,549.442 1086.54,552.881 1090.99,556.361 1095.43,559.882 1099.86,563.443 1104.29,567.045 1108.72,570.687 
  1113.14,574.368 1117.55,578.088 1121.96,581.848 1126.37,585.646 1130.77,589.483 1135.16,593.358 1139.55,597.27 1143.94,601.219 1148.31,605.206 1152.69,609.229 
  1157.06,613.288 1161.42,617.382 1165.78,621.512 1170.13,625.677 1174.48,629.877 1178.82,634.11 1183.16,638.377 1187.49,642.678 1191.81,647.011 1196.13,651.376 
  1200.45,655.773 1204.75,660.201 1209.06,664.66 1213.35,669.149 1217.65,673.668 1221.93,678.217 1226.21,682.794 1230.49,687.399 1234.75,692.032 1239.02,696.693 
  1243.27,701.379 1247.52,706.092 1251.76,710.831 1256,715.594 1260.23,720.381 1264.46,725.192 1268.67,730.027 1272.88,734.883 1277.09,739.762 1281.29,744.662 
  1285.48,749.582 1289.66,754.522 1293.84,759.482 1298.01,764.46 1302.17,769.456 1306.32,774.469 1310.47,779.499 1314.61,784.545 1318.74,789.606 1322.87,794.682 
  1326.99,799.771 1331.1,804.873 1335.2,809.988 1339.29,815.114 1343.37,820.251 1347.45,825.398 1351.52,830.554 1355.58,835.719 1359.63,840.891 1363.67,846.07 
  1367.7,851.255 1371.73,856.446 1375.74,861.641 1379.75,866.839 1383.74,872.041 1387.73,877.244 1391.71,882.448 1395.67,887.653 1399.63,892.857 1403.57,898.06 
  1407.51,903.26 1411.44,908.456 1415.35,913.649 1419.25,918.837 1423.15,924.019 1427.03,929.197 1430.9,934.368 1434.76,939.533 1438.61,944.691 1442.45,949.84 
  1446.28,954.98 1450.1,960.112 1453.91,965.233 1457.7,970.344 1461.49,975.443 1465.26,980.531 1469.03,985.606 1472.78,990.668 1476.52,995.716 1480.26,1000.75 
  1483.98,1005.77 1487.69,1010.77 1491.39,1015.76 1495.08,1020.74 1498.76,1025.69 1502.43,1030.63 1506.1,1035.55 1509.75,1040.45 1513.39,1045.33 1517.02,1050.2 
  1520.64,1055.04 1524.25,1059.87 1527.86,1064.67 1531.45,1069.45 1535.03,1074.21 1538.61,1078.95 1542.17,1083.67 1545.73,1088.36 1549.28,1093.03 1552.82,1097.68 
  1556.35,1102.3 1559.87,1106.9 1563.39,1111.47 1566.89,1116.02 1570.39,1120.54 1573.88,1125.04 1577.37,1129.52 1580.84,1133.96 1584.31,1138.38 1587.77,1142.77 
  1591.23,1147.14 1594.68,1151.48 1598.12,1155.79 1601.56,1160.07 1604.99,1164.33 1608.41,1168.56 1611.83,1172.76 1615.24,1176.93 1618.65,1181.07 1622.05,1185.18 
  1625.45,1189.26 1628.84,1193.32 1632.23,1197.34 1635.61,1201.34 1638.99,1205.3 1642.37,1209.24 1645.75,1213.14 1649.12,1217.02 1652.48,1220.86 1655.85,1224.68 
  1659.21,1228.46 1662.57,1232.21 1665.93,1235.93 1669.29,1239.63 1672.65,1243.29 1676,1246.92 1679.36,1250.52 1682.71,1254.09 1686.07,1257.63 1689.42,1261.14 
  1692.78,1264.61 1696.13,1268.06 1699.49,1271.48 1702.85,1274.86 1706.21,1278.22 1709.58,1281.54 1712.94,1284.83 1716.31,1288.1 1719.68,1291.33 1723.06,1294.54 
  1726.44,1297.71 1729.82,1300.85 1733.21,1303.97 1736.6,1307.05 1740,1310.11 1743.41,1313.13 1746.82,1316.13 1750.23,1319.09 1753.66,1322.03 1757.09,1324.94 
  1760.53,1327.82 1763.97,1330.67 1767.43,1333.49 1770.89,1336.28 1774.36,1339.04 1777.83,1341.77 1781.32,1344.47 1784.81,1347.14 1788.31,1349.78 1791.82,1352.39 
  1795.34,1354.98 1798.87,1357.53 1802.4,1360.05 1805.95,1362.54 1809.51,1365.01 1813.07,1367.44 1816.65,1369.85 1820.24,1372.23 1823.83,1374.58 1827.44,1376.9 
  1831.06,1379.19 1834.69,1381.45 1838.33,1383.69 1841.98,1385.9 1845.65,1388.07 1849.32,1390.23 1853.01,1392.35 1856.71,1394.44 1860.42,1396.51 1864.14,1398.55 
  1867.87,1400.56 1871.62,1402.54 1875.37,1404.5 1879.14,1406.43 1882.93,1408.33 1886.72,1410.2 1890.53,1412.05 1894.35,1413.87 1898.18,1415.66 1902.02,1417.43 
  1905.88,1419.17 1909.75,1420.88 1913.63,1422.57 1917.52,1424.22 1921.43,1425.86 1925.35,1427.46 1929.28,1429.04 1933.23,1430.59 1937.18,1432.12 1941.15,1433.62 
  1945.13,1435.09 1949.13,1436.54 1953.14,1437.96 1957.16,1439.36 1961.19,1440.73 1965.23,1442.07 1969.29,1443.39 1973.36,1444.68 1977.44,1445.94 1981.53,1447.18 
  1985.63,1448.4 1989.75,1449.59 1993.88,1450.75 1998.02,1451.89 2002.17,1453 2006.33,1454.09 2010.5,1455.15 2014.69,1456.19 2018.89,1457.2 2023.09,1458.18 
  2027.31,1459.14 2031.54,1460.08 2035.78,1460.99 2040.03,1461.88 2044.29,1462.74 2048.55,1463.57 2052.83,1464.38 2057.12,1465.17 2061.42,1465.93 2065.73,1466.67 
  2070.04,1467.38 2074.37,1468.07 2078.7,1468.73 2083.04,1469.37 2087.39,1469.98 2091.75,1470.57 2096.11,1471.14 2100.49,1471.68 2104.87,1472.19 2109.25,1472.68 
  2113.65,1473.15 2118.05,1473.59 2122.45,1474.01 2126.87,1474.41 2131.28,1474.78 2135.71,1475.12 2140.13,1475.44 2144.57,1475.74 2149,1476.01 2153.45,1476.26 
  2157.89,1476.49 2162.34,1476.69 2166.8,1476.87 2171.25,1477.02 2175.71,1477.15 2180.17,1477.26 2184.64,1477.34 2189.1,1477.4 2193.57,1477.43 2198.04,1477.44 
  2202.5,1477.43 2206.97,1477.39 2211.44,1477.33 2215.91,1477.25 2220.37,1477.14 2224.84,1477.01 2229.3,1476.85 2233.76,1476.67 2238.22,1476.47 2242.68,1476.24 
  2247.14,1475.99 2251.59,1475.72 2256.04,1475.42 2260.48,1475.1 2264.92,1474.75 2269.36,1474.38 2273.79,1473.99 2278.22,1473.57 2282.64,1473.13 2287.06,1472.67 
  2291.47,1472.18 2295.88,1471.67 2300.28,1471.13 2304.67,1470.57 2309.05,1469.99 2313.43,1469.38 2317.81,1468.75 2322.17,1468.09 2326.53,1467.41 2330.88,1466.71 
  2335.22,1465.99 2339.55,1465.24 2343.87,1464.46 2348.19,1463.66 2352.49,1462.84 2356.79,1462 2361.07,1461.13 2365.35,1460.23 2369.62,1459.32 2373.87,1458.38 
  2378.12,1457.41 2382.35,1456.42 2386.57,1455.41 2390.79,1454.37 2394.99,1453.31 2399.18,1452.23 2403.35,1451.12 2407.52,1449.98 2411.67,1448.82 2415.81,1447.64 
  2419.94,1446.44 2424.05,1445.21 2428.15,1443.95 2432.24,1442.67 2436.32,1441.37 2440.38,1440.04 2444.43,1438.69 2448.46,1437.32 2452.48,1435.92 2456.49,1434.49 
  2460.48,1433.04 2464.45,1431.57 2468.42,1430.07 2472.36,1428.55 2476.29,1427 2480.21,1425.43 2484.11,1423.84 2488,1422.21 2491.87,1420.57 2495.72,1418.9 
  2499.56,1417.2 2503.39,1415.48 2507.19,1413.74 2510.98,1411.97 2514.76,1410.17 2518.52,1408.35 2522.26,1406.51 2525.98,1404.64 2529.69,1402.75 2533.38,1400.83 
  2537.05,1398.88 2540.71,1396.91 2544.34,1394.92 2547.96,1392.9 2551.57,1390.86 2555.15,1388.79 2558.72,1386.69 2562.26,1384.58 2565.79,1382.43 2569.31,1380.26 
  2572.8,1378.07 2576.28,1375.85 2579.74,1373.6 2583.18,1371.33 2586.6,1369.03 2590,1366.71 2593.38,1364.36 2596.75,1361.99 2600.1,1359.59 2603.43,1357.16 
  2606.74,1354.71 2610.03,1352.23 2613.31,1349.73 2616.56,1347.2 2619.8,1344.65 2623.01,1342.07 2626.21,1339.46 2629.39,1336.83 2632.55,1334.17 2635.7,1331.48 
  2638.82,1328.77 2641.92,1326.04 2645.01,1323.27 2648.07,1320.48 2651.12,1317.67 2654.14,1314.83 2657.15,1311.96 2660.14,1309.07 2663.11,1306.15 2666.06,1303.2 
  2668.99,1300.23 2671.9,1297.23 2674.79,1294.21 2677.66,1291.16 2680.51,1288.09 2683.35,1284.98 2686.16,1281.86 2688.95,1278.7 2691.72,1275.53 2694.47,1272.32 
  2697.21,1269.09 2699.92,1265.83 2702.61,1262.55 2705.29,1259.24 2707.94,1255.91 2710.57,1252.55 2713.18,1249.16 2715.77,1245.75 2718.35,1242.32 2720.9,1238.86 
  2723.43,1235.37 2725.94,1231.86 2728.43,1228.32 2730.9,1224.76 2733.35,1221.17 2735.78,1217.56 2738.18,1213.92 2740.57,1210.25 2742.94,1206.57 2745.28,1202.85 
  2747.61,1199.12 2749.91,1195.35 2752.2,1191.57 2754.46,1187.76 2756.7,1183.92 2758.92,1180.06 2761.12,1176.18 2763.3,1172.27 2765.45,1168.33 2767.59,1164.38 
  2769.71,1160.4 2771.8,1156.39 2773.87,1152.36 2775.92,1148.31 2777.95,1144.24 2779.96,1140.14 2781.95,1136.02 2783.91,1131.87 2785.86,1127.7 2787.78,1123.51 
  2789.68,1119.3 2791.56,1115.06 2793.42,1110.8 2795.25,1106.52 2797.07,1102.22 2798.86,1097.89 2800.63,1093.54 2802.38,1089.17 2804.1,1084.78 2805.81,1080.37 
  2807.49,1075.93 2809.15,1071.47 2810.79,1067 2812.41,1062.5 2814,1057.98 2815.57,1053.44 2817.12,1048.87 2818.65,1044.29 2820.16,1039.69 2821.64,1035.07 
  2823.1,1030.43 2824.54,1025.76 2825.96,1021.08 2827.35,1016.38 2828.72,1011.66 2830.07,1006.92 2831.4,1002.16 2832.7,997.383 2833.98,992.587 2835.24,987.772 
  2836.47,982.939 2837.69,978.087 2838.88,973.218 2840.05,968.331 2841.19,963.427 2842.31,958.505 2843.41,953.565 2844.49,948.608 2845.54,943.634 2846.58,938.644 
  2847.59,933.638 2848.58,928.616 2849.56,923.579 2850.51,918.528 2851.44,913.462 2852.36,908.382 2853.25,903.288 2854.13,898.182 2854.99,893.063 2855.83,887.931 
  2856.66,882.788 2857.47,877.633 2858.26,872.467 2859.04,867.291 2859.8,862.105 2860.54,856.908 2861.27,851.702 2861.99,846.488 2862.7,841.264 2863.39,836.033 
  2864.06,830.794 2864.73,825.547 2865.38,820.294 2866.03,815.034 2866.66,809.768 2867.28,804.496 2867.89,799.219 2868.49,793.937 2869.08,788.651 2869.67,783.361 
  2870.24,778.067 2870.81,772.77 2871.37,767.47 2871.93,762.168 2872.47,756.863 2873.02,751.558 2873.56,746.251 2874.09,740.943 2874.62,735.635 2875.14,730.327 
  2875.67,725.019 2876.19,719.713 2876.71,714.408 2877.22,709.104 2877.74,703.803 2878.25,698.504 2878.77,693.208 2879.29,687.915 2879.81,682.627 2880.33,677.342 
  2880.85,672.062 2881.38,666.787 2881.91,661.518 2882.44,656.254 2882.98,650.997 2883.52,645.746 2884.07,640.503 2884.63,635.267 2885.19,630.038 2885.77,624.818 
  2886.35,619.607 2886.94,614.405 2887.53,609.212 2888.14,604.03 2888.76,598.857 2889.4,593.696 2890.04,588.546 2890.7,583.407 2891.37,578.28 2892.05,573.166 
  2892.75,568.064 2893.46,562.976 2894.19,557.901 2894.94,552.841 2895.7,547.795 2896.49,542.763 2897.29,537.747 2898.11,532.747 2898.95,527.763 2899.81,522.795 
  2900.69,517.845 2901.6,512.911 2902.52,507.996 2903.48,503.098 2904.45,498.219 2905.45,493.359 2906.48,488.519 2907.53,483.698 2908.61,478.897 2909.71,474.117 
  2910.85,469.358 2912.01,464.621 2913.21,459.905 2914.43,455.212 2915.69,450.541 2916.98,445.894 2918.3,441.269 2919.66,436.669 2921.05,432.093 2922.47,427.542 
  2923.94,423.015 2925.43,418.513 2926.96,414.036 2928.53,409.584 2930.13,405.157 2931.76,400.755 2933.44,396.378 2935.15,392.027 2936.9,387.702 2938.69,383.403 
  2940.51,379.13 2942.38,374.884 2944.28,370.663 2946.23,366.47 2948.21,362.303 2950.24,358.163 2952.3,354.051 2954.41,349.965 2956.56,345.907 2958.75,341.877 
  2960.98,337.874 2963.26,333.9 2965.58,329.953 2967.94,326.034 2970.34,322.144 2972.79,318.283 2975.28,314.45 2977.82,310.645 2980.4,306.87 2983.03,303.124 
  2985.7,299.407 2988.42,295.719 2991.18,292.061 2993.99,288.432 2996.84,284.833 2999.74,281.264 3002.69,277.725 3005.68,274.216 3008.72,270.737 3011.81,267.289 
  3014.94,263.871 3018.12,260.484 3021.35,257.127 3024.62,253.801 3027.94,250.506 3031.31,247.243 3034.72,244.01 3038.19,240.808 3041.7,237.638 3045.25,234.5 
  3048.86,231.393 3052.51,228.317 3056.21,225.274 3059.96,222.262 3063.75,219.283 3067.59,216.335 3071.49,213.419 3075.42,210.536 3079.41,207.685 3083.44,204.867 
  3087.52,202.081 3091.65,199.328 3095.82,196.607 3100.04,193.919 3104.31,191.264 3108.62,188.642 3112.98,186.053 3117.39,183.497 3121.84,180.974 3126.34,178.485 
  3130.89,176.029 3135.48,173.606 3140.12,171.216 3144.8,168.86 3149.53,166.538 3154.31,164.249 3159.12,161.994 3163.99,159.772 3168.89,157.584 3173.84,155.431 
  3178.84,153.311 3183.88,151.225 3188.96,149.173 3194.08,147.155 3199.25,145.171 3204.46,143.222 3209.71,141.306 3215.01,139.425 3220.34,137.578 3225.72,135.765 
  3231.13,133.987 3236.59,132.243 3242.08,130.533 3247.62,128.858 3253.19,127.217 3258.81,125.611 3264.46,124.04 3270.15,122.503 3275.87,121 3281.64,119.532 
  3287.44,118.099 3293.27,116.7 3299.14,115.336 3305.05,114.007 3310.99,112.712 3316.96,111.452 3322.97,110.226 3329.01,109.036 3335.09,107.88 3341.19,106.759 
  3347.33,105.672 3353.49,104.62 3359.69,103.603 3365.91,102.621 3372.17,101.673 3378.45,100.76 3384.76,99.8819 3391.1,99.0383 3397.46,98.2294 3403.85,97.4551 
  
  "/>
<polyline clip-path="url(#clip482)" style="stroke:#000000; stroke-linecap:round; stroke-linejoin:round; stroke-width:8; stroke-opacity:1; fill:none" points="
  47.2441,1656.76 50.9934,1656.68 54.7426,1656.59 58.4919,1656.49 62.2411,1656.39 65.9904,1656.29 69.7397,1656.18 73.4889,1656.06 77.2382,1655.94 80.9874,1655.81 
  84.7367,1655.68 88.486,1655.54 92.2352,1655.4 95.9845,1655.25 99.7337,1655.09 103.483,1654.93 107.232,1654.76 110.982,1654.58 114.731,1654.4 118.48,1654.21 
  122.229,1654.02 125.979,1653.81 129.728,1653.6 133.477,1653.39 137.226,1653.16 140.976,1652.93 144.725,1652.69 148.474,1652.45 152.223,1652.19 155.973,1651.93 
  159.722,1651.66 163.471,1651.39 167.22,1651.1 170.97,1650.81 174.719,1650.51 178.468,1650.2 182.217,1649.88 185.967,1649.56 189.716,1649.22 193.465,1648.88 
  197.215,1648.53 200.964,1648.17 204.713,1647.8 208.462,1647.43 212.212,1647.04 215.961,1646.65 219.71,1646.25 223.459,1645.83 227.209,1645.41 230.958,1644.98 
  234.707,1644.55 238.456,1644.1 242.206,1643.64 245.955,1643.17 249.704,1642.7 253.453,1642.21 257.203,1641.72 260.952,1641.22 264.701,1640.7 268.45,1640.18 
  272.2,1639.65 275.949,1639.11 279.698,1638.56 283.448,1638 287.197,1637.43 290.946,1636.85 294.695,1636.27 298.445,1635.67 302.194,1635.06 305.943,1634.45 
  309.692,1633.82 313.442,1633.19 317.191,1632.54 320.94,1631.89 324.689,1631.22 328.439,1630.55 332.188,1629.87 335.937,1629.18 339.686,1628.48 343.436,1627.77 
  347.185,1627.05 350.934,1626.32 354.684,1625.58 358.433,1624.83 362.182,1624.07 365.931,1623.31 369.681,1622.53 373.43,1621.75 377.179,1620.96 380.928,1620.15 
  384.678,1619.34 388.427,1618.52 392.176,1617.69 395.925,1616.85 399.675,1616.01 403.424,1615.15 407.173,1614.29 410.922,1613.42 414.672,1612.53 418.421,1611.64 
  422.17,1610.75 425.919,1609.84 429.669,1608.92 433.418,1608 437.167,1607.07 440.917,1606.13 444.666,1605.18 448.415,1604.22 452.164,1603.26 455.914,1602.29 
  459.663,1601.31 463.412,1600.32 467.161,1599.32 470.911,1598.32 474.66,1597.31 478.409,1596.29 482.158,1595.26 485.908,1594.23 489.657,1593.19 493.406,1592.14 
  497.155,1591.09 500.905,1590.03 504.654,1588.96 508.403,1587.88 512.152,1586.8 515.902,1585.71 519.651,1584.62 523.4,1583.52 527.15,1582.41 530.899,1581.29 
  534.648,1580.17 538.397,1579.04 542.147,1577.91 545.896,1576.77 549.645,1575.63 553.394,1574.48 557.144,1573.32 560.893,1572.16 564.642,1570.99 568.391,1569.82 
  572.141,1568.64 575.89,1567.46 579.639,1566.27 583.388,1565.07 587.138,1563.87 590.887,1562.67 594.636,1561.46 598.385,1560.25 602.135,1559.03 605.884,1557.81 
  609.633,1556.59 613.383,1555.35 617.132,1554.12 620.881,1552.88 624.63,1551.64 628.38,1550.39 632.129,1549.14 635.878,1547.89 639.627,1546.63 643.377,1545.37 
  647.126,1544.11 650.875,1542.84 654.624,1541.57 658.374,1540.3 662.123,1539.02 665.872,1537.74 669.621,1536.46 673.371,1535.17 677.12,1533.89 680.869,1532.6 
  684.618,1531.3 688.368,1530.01 692.117,1528.71 695.866,1527.41 699.616,1526.11 703.365,1524.81 707.114,1523.51 710.863,1522.2 714.613,1520.89 718.362,1519.58 
  722.111,1518.27 725.86,1516.96 729.61,1515.65 733.359,1514.33 737.108,1513.01 740.857,1511.7 744.607,1510.38 748.356,1509.06 752.105,1507.74 755.854,1506.42 
  759.604,1505.1 763.353,1503.78 767.102,1502.46 770.851,1501.14 774.601,1499.82 778.35,1498.5 782.099,1497.18 785.849,1495.86 789.598,1494.54 793.347,1493.22 
  797.096,1491.9 800.846,1490.58 804.595,1489.26 808.344,1487.94 812.093,1486.62 815.843,1485.31 819.592,1483.99 823.341,1482.68 827.09,1481.37 830.84,1480.05 
  834.589,1478.74 838.338,1477.43 842.087,1476.13 845.837,1474.82 849.586,1473.52 853.335,1472.21 857.084,1470.91 860.834,1469.61 864.583,1468.32 868.332,1467.02 
  872.082,1465.73 875.831,1464.44 879.58,1463.15 883.329,1461.86 887.079,1460.58 890.828,1459.3 894.577,1458.02 898.326,1456.75 902.076,1455.47 905.825,1454.2 
  909.574,1452.94 913.323,1451.67 917.073,1450.41 920.822,1449.16 924.571,1447.9 928.32,1446.65 932.07,1445.41 935.819,1444.16 939.568,1442.92 943.317,1441.69 
  947.067,1440.46 950.816,1439.23 954.565,1438.01 958.315,1436.79 962.064,1435.57 965.813,1434.36 969.562,1433.15 973.312,1431.95 977.061,1430.75 980.81,1429.56 
  984.559,1428.37 988.309,1427.19 992.058,1426.01 995.807,1424.83 999.556,1423.66 1003.31,1422.5 1007.05,1421.34 1010.8,1420.19 1014.55,1419.04 1018.3,1417.9 
  1022.05,1416.76 1025.8,1415.63 1029.55,1414.5 1033.3,1413.38 1037.05,1412.26 1040.8,1411.15 1044.55,1410.05 1048.3,1408.95 1052.05,1407.86 1055.8,1406.78 
  1059.54,1405.7 1063.29,1404.62 1067.04,1403.56 1070.79,1402.5 1074.54,1401.45 1078.29,1400.4 1082.04,1399.36 1085.79,1398.33 1089.54,1397.3 1093.29,1396.28 
  1097.04,1395.27 1100.79,1394.27 1104.54,1393.27 1108.28,1392.28 1112.03,1391.3 1115.78,1390.32 1119.53,1389.35 1123.28,1388.39 1127.03,1387.44 1130.78,1386.49 
  1134.53,1385.56 1138.28,1384.63 1142.03,1383.71 1145.78,1382.79 1149.53,1381.89 1153.28,1380.99 1157.03,1380.1 1160.77,1379.22 1164.52,1378.34 1168.27,1377.48 
  1172.02,1376.62 1175.77,1375.77 1179.52,1374.93 1183.27,1374.1 1187.02,1373.28 1190.77,1372.46 1194.52,1371.66 1198.27,1370.86 1202.02,1370.07 1205.77,1369.29 
  1209.52,1368.52 1213.26,1367.76 1217.01,1367.01 1220.76,1366.26 1224.51,1365.53 1228.26,1364.8 1232.01,1364.08 1235.76,1363.37 1239.51,1362.67 1243.26,1361.98 
  1247.01,1361.3 1250.76,1360.63 1254.51,1359.96 1258.26,1359.31 1262,1358.66 1265.75,1358.02 1269.5,1357.4 1273.25,1356.78 1277,1356.17 1280.75,1355.57 
  1284.5,1354.98 1288.25,1354.4 1292,1353.83 1295.75,1353.27 1299.5,1352.71 1303.25,1352.17 1307,1351.63 1310.75,1351.11 1314.49,1350.59 1318.24,1350.09 
  1321.99,1349.59 1325.74,1349.1 1329.49,1348.62 1333.24,1348.15 1336.99,1347.69 1340.74,1347.24 1344.49,1346.8 1348.24,1346.37 1351.99,1345.94 1355.74,1345.53 
  1359.49,1345.12 1363.23,1344.72 1366.98,1344.33 1370.73,1343.95 1374.48,1343.58 1378.23,1343.22 1381.98,1342.87 1385.73,1342.53 1389.48,1342.19 1393.23,1341.86 
  1396.98,1341.55 1400.73,1341.24 1404.48,1340.93 1408.23,1340.64 1411.98,1340.36 1415.72,1340.08 1419.47,1339.82 1423.22,1339.56 1426.97,1339.31 1430.72,1339.06 
  1434.47,1338.83 1438.22,1338.6 1441.97,1338.39 1445.72,1338.18 1449.47,1337.98 1453.22,1337.78 1456.97,1337.6 1460.72,1337.42 1464.46,1337.25 1468.21,1337.08 
  1471.96,1336.93 1475.71,1336.78 1479.46,1336.64 1483.21,1336.51 1486.96,1336.38 1490.71,1336.27 1494.46,1336.16 1498.21,1336.05 1501.96,1335.96 1505.71,1335.87 
  1509.46,1335.78 1513.21,1335.71 1516.95,1335.64 1520.7,1335.58 1524.45,1335.52 1528.2,1335.47 1531.95,1335.43 1535.7,1335.4 1539.45,1335.37 1543.2,1335.34 
  1546.95,1335.33 1550.7,1335.32 1554.45,1335.31 1558.2,1335.31 1561.95,1335.32 1565.69,1335.33 1569.44,1335.35 1573.19,1335.37 1576.94,1335.4 1580.69,1335.44 
  1584.44,1335.48 1588.19,1335.52 1591.94,1335.58 1595.69,1335.63 1599.44,1335.69 1603.19,1335.76 1606.94,1335.83 1610.69,1335.9 1614.44,1335.98 1618.18,1336.07 
  1621.93,1336.16 1625.68,1336.25 1629.43,1336.35 1633.18,1336.45 1636.93,1336.55 1640.68,1336.66 1644.43,1336.78 1648.18,1336.9 1651.93,1337.02 1655.68,1337.14 
  1659.43,1337.27 1663.18,1337.41 1666.92,1337.54 1670.67,1337.68 1674.42,1337.83 1678.17,1337.97 1681.92,1338.12 1685.67,1338.27 1689.42,1338.43 1693.17,1338.59 
  1696.92,1338.75 1700.67,1338.91 1704.42,1339.08 1708.17,1339.25 1711.92,1339.42 1715.67,1339.59 1719.41,1339.77 1723.16,1339.95 1726.91,1340.13 1730.66,1340.31 
  1734.41,1340.49 1738.16,1340.68 1741.91,1340.87 1745.66,1341.06 1749.41,1341.25 1753.16,1341.44 1756.91,1341.64 1760.66,1341.83 1764.41,1342.03 1768.15,1342.23 
  1771.9,1342.43 1775.65,1342.63 1779.4,1342.83 1783.15,1343.04 1786.9,1343.24 1790.65,1343.45 1794.4,1343.65 1798.15,1343.86 1801.9,1344.06 1805.65,1344.27 
  1809.4,1344.48 1813.15,1344.69 1816.9,1344.9 1820.64,1345.1 1824.39,1345.31 1828.14,1345.52 1831.89,1345.73 1835.64,1345.94 1839.39,1346.15 1843.14,1346.36 
  1846.89,1346.56 1850.64,1346.77 1854.39,1346.98 1858.14,1347.18 1861.89,1347.39 1865.64,1347.6 1869.38,1347.8 1873.13,1348 1876.88,1348.21 1880.63,1348.41 
  1884.38,1348.61 1888.13,1348.81 1891.88,1349.01 1895.63,1349.2 1899.38,1349.4 1903.13,1349.6 1906.88,1349.79 1910.63,1349.98 1914.38,1350.17 1918.13,1350.36 
  1921.87,1350.55 1925.62,1350.73 1929.37,1350.91 1933.12,1351.09 1936.87,1351.27 1940.62,1351.45 1944.37,1351.63 1948.12,1351.8 1951.87,1351.97 1955.62,1352.14 
  1959.37,1352.3 1963.12,1352.47 1966.87,1352.63 1970.62,1352.79 1974.36,1352.94 1978.11,1353.1 1981.86,1353.25 1985.61,1353.4 1989.36,1353.54 1993.11,1353.68 
  1996.86,1353.82 2000.61,1353.96 2004.36,1354.09 2008.11,1354.23 2011.86,1354.35 2015.61,1354.48 2019.36,1354.6 2023.1,1354.72 2026.85,1354.83 2030.6,1354.94 
  2034.35,1355.05 2038.1,1355.15 2041.85,1355.26 2045.6,1355.35 2049.35,1355.45 2053.1,1355.54 2056.85,1355.62 2060.6,1355.71 2064.35,1355.78 2068.1,1355.86 
  2071.85,1355.93 2075.59,1356 2079.34,1356.06 2083.09,1356.12 2086.84,1356.17 2090.59,1356.22 2094.34,1356.27 2098.09,1356.31 2101.84,1356.35 2105.59,1356.38 
  2109.34,1356.41 2113.09,1356.44 2116.84,1356.45 2120.59,1356.47 2124.33,1356.48 2128.08,1356.49 2131.83,1356.49 2135.58,1356.48 2139.33,1356.48 2143.08,1356.46 
  2146.83,1356.44 2150.58,1356.42 2154.33,1356.39 2158.08,1356.36 2161.83,1356.32 2165.58,1356.28 2169.33,1356.23 2173.08,1356.18 2176.82,1356.12 2180.57,1356.05 
  2184.32,1355.98 2188.07,1355.91 2191.82,1355.83 2195.57,1355.74 2199.32,1355.65 2203.07,1355.55 2206.82,1355.45 2210.57,1355.34 2214.32,1355.22 2218.07,1355.1 
  2221.82,1354.98 2225.56,1354.85 2229.31,1354.71 2233.06,1354.56 2236.81,1354.41 2240.56,1354.26 2244.31,1354.1 2248.06,1353.93 2251.81,1353.75 2255.56,1353.57 
  2259.31,1353.39 2263.06,1353.19 2266.81,1352.99 2270.56,1352.79 2274.31,1352.58 2278.05,1352.36 2281.8,1352.13 2285.55,1351.9 2289.3,1351.66 2293.05,1351.42 
  2296.8,1351.17 2300.55,1350.91 2304.3,1350.64 2308.05,1350.37 2311.8,1350.09 2315.55,1349.8 2319.3,1349.51 2323.05,1349.21 2326.79,1348.91 2330.54,1348.59 
  2334.29,1348.27 2338.04,1347.94 2341.79,1347.61 2345.54,1347.26 2349.29,1346.91 2353.04,1346.56 2356.79,1346.19 2360.54,1345.82 2364.29,1345.44 2368.04,1345.05 
  2371.79,1344.66 2375.54,1344.25 2379.28,1343.84 2383.03,1343.42 2386.78,1343 2390.53,1342.56 2394.28,1342.12 2398.03,1341.67 2401.78,1341.22 2405.53,1340.75 
  2409.28,1340.28 2413.03,1339.79 2416.78,1339.3 2420.53,1338.81 2424.28,1338.3 2428.02,1337.78 2431.77,1337.26 2435.52,1336.73 2439.27,1336.19 2443.02,1335.64 
  2446.77,1335.08 2450.52,1334.51 2454.27,1333.94 2458.02,1333.35 2461.77,1332.76 2465.52,1332.16 2469.27,1331.55 2473.02,1330.93 2476.77,1330.3 2480.51,1329.66 
  2484.26,1329.01 2488.01,1328.35 2491.76,1327.69 2495.51,1327.01 2499.26,1326.32 2503.01,1325.63 2506.76,1324.92 2510.51,1324.21 2514.26,1323.49 2518.01,1322.75 
  2521.76,1322.01 2525.51,1321.25 2529.25,1320.49 2533,1319.72 2536.75,1318.93 2540.5,1318.14 2544.25,1317.33 2548,1316.52 2551.75,1315.69 2555.5,1314.86 
  2559.25,1314.01 2563,1313.15 2566.75,1312.28 2570.5,1311.4 2574.25,1310.51 2578,1309.61 2581.74,1308.7 2585.49,1307.78 2589.24,1306.85 2592.99,1305.9 
  2596.74,1304.94 2600.49,1303.98 2604.24,1303 2607.99,1302.01 2611.74,1301.01 2615.49,1299.99 2619.24,1298.97 2622.99,1297.93 2626.74,1296.88 2630.48,1295.82 
  2634.23,1294.75 2637.98,1293.66 2641.73,1292.56 2645.48,1291.45 2649.23,1290.33 2652.98,1289.2 2656.73,1288.05 2660.48,1286.89 2664.23,1285.71 2667.98,1284.52 
  2671.73,1283.32 2675.48,1282.11 2679.23,1280.88 2682.97,1279.64 2686.72,1278.39 2690.47,1277.12 2694.22,1275.84 2697.97,1274.55 2701.72,1273.24 2705.47,1271.92 
  2709.22,1270.58 2712.97,1269.23 2716.72,1267.87 2720.47,1266.49 2724.22,1265.1 2727.97,1263.69 2731.72,1262.27 2735.46,1260.84 2739.21,1259.39 2742.96,1257.92 
  2746.71,1256.45 2750.46,1254.95 2754.21,1253.45 2757.96,1251.92 2761.71,1250.39 2765.46,1248.83 2769.21,1247.27 2772.96,1245.68 2776.71,1244.09 2780.46,1242.48 
  2784.2,1240.85 2787.95,1239.21 2791.7,1237.55 2795.45,1235.88 2799.2,1234.19 2802.95,1232.48 2806.7,1230.77 2810.45,1229.03 2814.2,1227.28 2817.95,1225.52 
  2821.7,1223.74 2825.45,1221.94 2829.2,1220.13 2832.95,1218.3 2836.69,1216.46 2840.44,1214.6 2844.19,1212.73 2847.94,1210.84 2851.69,1208.94 2855.44,1207.01 
  2859.19,1205.08 2862.94,1203.13 2866.69,1201.16 2870.44,1199.17 2874.19,1197.17 2877.94,1195.16 2881.69,1193.13 2885.43,1191.08 2889.18,1189.02 2892.93,1186.94 
  2896.68,1184.84 2900.43,1182.73 2904.18,1180.61 2907.93,1178.47 2911.68,1176.31 2915.43,1174.13 2919.18,1171.94 2922.93,1169.74 2926.68,1167.52 2930.43,1165.28 
  2934.18,1163.03 2937.92,1160.76 2941.67,1158.48 2945.42,1156.18 2949.17,1153.87 2952.92,1151.55 2956.67,1149.21 2960.42,1146.86 2964.17,1144.49 2967.92,1142.11 
  2971.67,1139.72 2975.42,1137.31 2979.17,1134.9 2982.92,1132.47 2986.66,1130.02 2990.41,1127.57 2994.16,1125.1 2997.91,1122.63 3001.66,1120.14 3005.41,1117.64 
  3009.16,1115.13 3012.91,1112.61 3016.66,1110.09 3020.41,1107.55 3024.16,1105 3027.91,1102.44 3031.66,1099.88 3035.41,1097.3 3039.15,1094.72 3042.9,1092.13 
  3046.65,1089.53 3050.4,1086.92 3054.15,1084.31 3057.9,1081.69 3061.65,1079.07 3065.4,1076.43 3069.15,1073.8 3072.9,1071.15 3076.65,1068.51 3080.4,1065.85 
  3084.15,1063.2 3087.89,1060.53 3091.64,1057.87 3095.39,1055.2 3099.14,1052.53 3102.89,1049.85 3106.64,1047.18 3110.39,1044.5 3114.14,1041.82 3117.89,1039.13 
  3121.64,1036.45 3125.39,1033.77 3129.14,1031.08 3132.89,1028.4 3136.64,1025.72 3140.38,1023.03 3144.13,1020.35 3147.88,1017.67 3151.63,1015 3155.38,1012.32 
  3159.13,1009.65 3162.88,1006.98 3166.63,1004.32 3170.38,1001.65 3174.13,998.998 3177.88,996.347 3181.63,993.7 3185.38,991.06 3189.12,988.426 3192.87,985.798 
  3196.62,983.177 3200.37,980.564 3204.12,977.958 3207.87,975.361 3211.62,972.773 3215.37,970.194 3219.12,967.624 3222.87,965.064 3226.62,962.514 3230.37,959.974 
  3234.12,957.444 3237.87,954.924 3241.61,952.415 3245.36,949.917 3249.11,947.429 3252.86,944.953 3256.61,942.488 3260.36,940.034 3264.11,937.592 3267.86,935.161 
  3271.61,932.742 3275.36,930.335 3279.11,927.94 3282.86,925.558 3286.61,923.187 3290.35,920.83 3294.1,918.484 3297.85,916.152 3301.6,913.832 3305.35,911.526 
  3309.1,909.232 3312.85,906.951 3316.6,904.684 3320.35,902.43 3324.1,900.19 3327.85,897.962 3331.6,895.749 3335.35,893.549 3339.1,891.363 3342.84,889.191 
  3346.59,887.032 3350.34,884.888 3354.09,882.757 3357.84,880.641 3361.59,878.539 3365.34,876.45 3369.09,874.376 3372.84,872.316 3376.59,870.271 3380.34,868.239 
  3384.09,866.222 3387.84,864.219 3391.58,862.231 3395.33,860.257 3399.08,858.297 3402.83,856.352 3406.58,854.421 3410.33,852.504 3414.08,850.601 3417.83,848.713 
  3421.58,846.84 3425.33,844.98 3429.08,843.135 3432.83,841.304 3436.58,839.487 3440.33,837.685 3444.07,835.896 3447.82,834.122 3451.57,832.362 3455.32,830.615 
  3459.07,828.883 3462.82,827.164 3466.57,825.46 3470.32,823.769 3474.07,822.091 3477.82,820.428 3481.57,818.778 3485.32,817.141 3489.07,815.517 3492.82,813.907 
  3496.56,812.31 3500.31,810.726 3504.06,809.155 3507.81,807.597 3511.56,806.051 3515.31,804.519 3519.06,802.998 3522.81,801.49 3526.56,799.994 3530.31,798.511 
  3534.06,797.039 3537.81,795.579 3541.56,794.131 3545.3,792.694 3549.05,791.269 3552.8,789.855 3556.55,788.452 3560.3,787.06 3564.05,785.679 3567.8,784.308 
  3571.55,782.947 3575.3,781.598 3579.05,780.26 3582.8,778.932 3586.55,777.616 3590.3,776.31 3594.05,775.015 3597.79,773.73 3601.54,772.456 3605.29,771.192 
  3609.04,769.938 3612.79,768.695 3616.54,767.462 3620.29,766.239 3624.04,765.026 3627.79,763.823 3631.54,762.629 3635.29,761.446 3639.04,760.272 3642.79,759.107 
  3646.53,757.953 3650.28,756.807 3654.03,755.671 3657.78,754.544 3661.53,753.427 3665.28,752.318 3669.03,751.219 3672.78,750.129 3676.53,749.047 3680.28,747.975 
  3684.03,746.911 3687.78,745.856 3691.53,744.81 3695.28,743.772 3699.02,742.743 3702.77,741.722 3706.52,740.709 3710.27,739.705 3714.02,738.71 3717.77,737.722 
  3721.52,736.743 3725.27,735.771 3729.02,734.808 3732.77,733.853 3736.52,732.905 3740.27,731.966 3744.02,731.034 3747.76,730.11 3751.51,729.194 3755.26,728.285 
  3759.01,727.384 3762.76,726.49 3766.51,725.604 3770.26,724.726 3774.01,723.854 3777.76,722.99 3781.51,722.134 3785.26,721.284 3789.01,720.442 3792.76,719.607 
  
  "/>
<polyline clip-path="url(#clip482)" style="stroke:#000000; stroke-linecap:round; stroke-linejoin:round; stroke-width:8; stroke-opacity:1; fill:none" points="
  47.2441,1153.38 50.9934,1149.92 54.7426,1146.45 58.4919,1142.98 62.2411,1139.5 65.9904,1136.01 69.7397,1132.51 73.4889,1129.01 77.2382,1125.5 80.9874,1121.99 
  84.7367,1118.47 88.486,1114.94 92.2352,1111.42 95.9845,1107.88 99.7337,1104.34 103.483,1100.8 107.232,1097.25 110.982,1093.7 114.731,1090.15 118.48,1086.6 
  122.229,1083.04 125.979,1079.48 129.728,1075.92 133.477,1072.35 137.226,1068.79 140.976,1065.22 144.725,1061.66 148.474,1058.09 152.223,1054.53 155.973,1050.96 
  159.722,1047.4 163.471,1043.84 167.22,1040.28 170.97,1036.72 174.719,1033.16 178.468,1029.61 182.217,1026.06 185.967,1022.52 189.716,1018.98 193.465,1015.44 
  197.215,1011.91 200.964,1008.38 204.713,1004.86 208.462,1001.34 212.212,997.836 215.961,994.335 219.71,990.841 223.459,987.355 227.209,983.878 230.958,980.408 
  234.707,976.949 238.456,973.498 242.206,970.057 245.955,966.627 249.704,963.207 253.453,959.799 257.203,956.402 260.952,953.017 264.701,949.644 268.45,946.285 
  272.2,942.938 275.949,939.605 279.698,936.286 283.448,932.982 287.197,929.692 290.946,926.418 294.695,923.16 298.445,919.917 302.194,916.692 305.943,913.483 
  309.692,910.292 313.442,907.118 317.191,903.963 320.94,900.826 324.689,897.709 328.439,894.611 332.188,891.533 335.937,888.475 339.686,885.438 343.436,882.423 
  347.185,879.428 350.934,876.456 354.684,873.505 358.433,870.578 362.182,867.673 365.931,864.793 369.681,861.936 373.43,859.103 377.179,856.295 380.928,853.512 
  384.678,850.755 388.427,848.023 392.176,845.318 395.925,842.639 399.675,839.987 403.424,837.363 407.173,834.766 410.922,832.197 414.672,829.657 418.421,827.146 
  422.17,824.663 425.919,822.21 429.669,819.787 433.418,817.394 437.167,815.032 440.917,812.7 444.666,810.399 448.415,808.13 452.164,805.892 455.914,803.687 
  459.663,801.513 463.412,799.373 467.161,797.265 470.911,795.191 474.66,793.15 478.409,791.143 482.158,789.17 485.908,787.232 489.657,785.328 493.406,783.459 
  497.155,781.625 500.905,779.827 504.654,778.064 508.403,776.337 512.152,774.647 515.902,772.993 519.651,771.376 523.4,769.796 527.15,768.252 530.899,766.747 
  534.648,765.279 538.397,763.849 542.147,762.457 545.896,761.103 549.645,759.787 553.394,758.511 557.144,757.273 560.893,756.074 564.642,754.914 568.391,753.794 
  572.141,752.713 575.89,751.672 579.639,750.672 583.388,749.711 587.138,748.791 590.887,747.911 594.636,747.072 598.385,746.274 602.135,745.516 605.884,744.8 
  609.633,744.125 613.383,743.492 617.132,742.9 620.881,742.349 624.63,741.841 628.38,741.374 632.129,740.949 635.878,740.566 639.627,740.226 643.377,739.928 
  647.126,739.672 650.875,739.458 654.624,739.288 658.374,739.159 662.123,739.074 665.872,739.031 669.621,739.031 673.371,739.073 677.12,739.159 680.869,739.287 
  684.618,739.459 688.368,739.673 692.117,739.93 695.866,740.231 699.616,740.574 703.365,740.961 707.114,741.39 710.863,741.863 714.613,742.378 718.362,742.937 
  722.111,743.538 725.86,744.183 729.61,744.871 733.359,745.601 737.108,746.374 740.857,747.191 744.607,748.049 748.356,748.951 752.105,749.896 755.854,750.882 
  759.604,751.912 763.353,752.984 767.102,754.098 770.851,755.255 774.601,756.454 778.35,757.695 782.099,758.978 785.849,760.302 789.598,761.669 793.347,763.077 
  797.096,764.527 800.846,766.018 804.595,767.55 808.344,769.123 812.093,770.738 815.843,772.393 819.592,774.089 823.341,775.826 827.09,777.602 830.84,779.419 
  834.589,781.276 838.338,783.173 842.087,785.11 845.837,787.085 849.586,789.1 853.335,791.154 857.084,793.247 860.834,795.378 864.583,797.548 868.332,799.755 
  872.082,802.001 875.831,804.284 879.58,806.604 883.329,808.961 887.079,811.355 890.828,813.786 894.577,816.252 898.326,818.755 902.076,821.293 905.825,823.866 
  909.574,826.474 913.323,829.117 917.073,831.795 920.822,834.506 924.571,837.251 928.32,840.029 932.07,842.84 935.819,845.684 939.568,848.56 943.317,851.467 
  947.067,854.407 950.816,857.377 954.565,860.378 958.315,863.409 962.064,866.47 965.813,869.561 969.562,872.68 973.312,875.829 977.061,879.005 980.81,882.209 
  984.559,885.441 988.309,888.699 992.058,891.984 995.807,895.295 999.556,898.631 1003.31,901.992 1007.05,905.378 1010.8,908.788 1014.55,912.221 1018.3,915.677 
  1022.05,919.156 1025.8,922.657 1029.55,926.179 1033.3,929.723 1037.05,933.288 1040.8,936.874 1044.55,940.48 1048.3,944.105 1052.05,947.75 1055.8,951.413 
  1059.54,955.093 1063.29,958.791 1067.04,962.506 1070.79,966.237 1074.54,969.984 1078.29,973.746 1082.04,977.522 1085.79,981.313 1089.54,985.117 1093.29,988.935 
  1097.04,992.765 1100.79,996.607 1104.54,1000.46 1108.28,1004.33 1112.03,1008.2 1115.78,1012.09 1119.53,1015.98 1123.28,1019.88 1127.03,1023.8 1130.78,1027.72 
  1134.53,1031.65 1138.28,1035.58 1142.03,1039.53 1145.78,1043.47 1149.53,1047.43 1153.28,1051.39 1157.03,1055.35 1160.77,1059.32 1164.52,1063.29 1168.27,1067.27 
  1172.02,1071.25 1175.77,1075.23 1179.52,1079.22 1183.27,1083.2 1187.02,1087.19 1190.77,1091.18 1194.52,1095.17 1198.27,1099.15 1202.02,1103.14 1205.77,1107.13 
  1209.52,1111.12 1213.26,1115.1 1217.01,1119.08 1220.76,1123.06 1224.51,1127.04 1228.26,1131.01 1232.01,1134.98 1235.76,1138.95 1239.51,1142.91 1243.26,1146.87 
  1247.01,1150.82 1250.76,1154.77 1254.51,1158.71 1258.26,1162.64 1262,1166.57 1265.75,1170.49 1269.5,1174.4 1273.25,1178.31 1277,1182.2 1280.75,1186.09 
  1284.5,1189.97 1288.25,1193.84 1292,1197.7 1295.75,1201.55 1299.5,1205.4 1303.25,1209.23 1307,1213.05 1310.75,1216.86 1314.49,1220.65 1318.24,1224.44 
  1321.99,1228.22 1325.74,1231.98 1329.49,1235.73 1333.24,1239.47 1336.99,1243.2 1340.74,1246.92 1344.49,1250.62 1348.24,1254.31 1351.99,1257.99 1355.74,1261.65 
  1359.49,1265.3 1363.23,1268.94 1366.98,1272.56 1370.73,1276.17 1374.48,1279.77 1378.23,1283.35 1381.98,1286.91 1385.73,1290.47 1389.48,1294 1393.23,1297.53 
  1396.98,1301.03 1400.73,1304.53 1404.48,1308 1408.23,1311.47 1411.98,1314.91 1415.72,1318.34 1419.47,1321.76 1423.22,1325.16 1426.97,1328.54 1430.72,1331.91 
  1434.47,1335.26 1438.22,1338.6 1441.97,1341.91 1445.72,1345.22 1449.47,1348.5 1453.22,1351.77 1456.97,1355.02 1460.72,1358.26 1464.46,1361.48 1468.21,1364.68 
  1471.96,1367.87 1475.71,1371.03 1479.46,1374.18 1483.21,1377.32 1486.96,1380.43 1490.71,1383.53 1494.46,1386.62 1498.21,1389.68 1501.96,1392.73 1505.71,1395.76 
  1509.46,1398.77 1513.21,1401.76 1516.95,1404.74 1520.7,1407.7 1524.45,1410.64 1528.2,1413.57 1531.95,1416.47 1535.7,1419.36 1539.45,1422.24 1543.2,1425.09 
  1546.95,1427.93 1550.7,1430.75 1554.45,1433.55 1558.2,1436.33 1561.95,1439.1 1565.69,1441.85 1569.44,1444.58 1573.19,1447.29 1576.94,1449.99 1580.69,1452.67 
  1584.44,1455.33 1588.19,1457.98 1591.94,1460.61 1595.69,1463.22 1599.44,1465.81 1603.19,1468.39 1606.94,1470.95 1610.69,1473.49 1614.44,1476.01 1618.18,1478.52 
  1621.93,1481.01 1625.68,1483.48 1629.43,1485.94 1633.18,1488.38 1636.93,1490.8 1640.68,1493.21 1644.43,1495.6 1648.18,1497.97 1651.93,1500.33 1655.68,1502.67 
  1659.43,1504.99 1663.18,1507.3 1666.92,1509.59 1670.67,1511.86 1674.42,1514.12 1678.17,1516.36 1681.92,1518.58 1685.67,1520.79 1689.42,1522.98 1693.17,1525.16 
  1696.92,1527.32 1700.67,1529.46 1704.42,1531.59 1708.17,1533.71 1711.92,1535.8 1715.67,1537.88 1719.41,1539.95 1723.16,1542 1726.91,1544.03 1730.66,1546.05 
  1734.41,1548.06 1738.16,1550.05 1741.91,1552.02 1745.66,1553.98 1749.41,1555.92 1753.16,1557.85 1756.91,1559.76 1760.66,1561.66 1764.41,1563.55 1768.15,1565.41 
  1771.9,1567.27 1775.65,1569.11 1779.4,1570.93 1783.15,1572.74 1786.9,1574.54 1790.65,1576.32 1794.4,1578.09 1798.15,1579.84 1801.9,1581.58 1805.65,1583.31 
  1809.4,1585.02 1813.15,1586.72 1816.9,1588.4 1820.64,1590.08 1824.39,1591.73 1828.14,1593.38 1831.89,1595.01 1835.64,1596.62 1839.39,1598.23 1843.14,1599.82 
  1846.89,1601.4 1850.64,1602.96 1854.39,1604.51 1858.14,1606.05 1861.89,1607.58 1865.64,1609.09 1869.38,1610.59 1873.13,1612.08 1876.88,1613.55 1880.63,1615.02 
  1884.38,1616.47 1888.13,1617.91 1891.88,1619.34 1895.63,1620.75 1899.38,1622.16 1903.13,1623.55 1906.88,1624.93 1910.63,1626.3 1914.38,1627.66 1918.13,1629 
  1921.87,1630.34 1925.62,1631.66 1929.37,1632.97 1933.12,1634.27 1936.87,1635.57 1940.62,1636.85 1944.37,1638.11 1948.12,1639.37 1951.87,1640.62 1955.62,1641.86 
  1959.37,1643.09 1963.12,1644.3 1966.87,1645.51 1970.62,1646.71 1974.36,1647.89 1978.11,1649.07 1981.86,1650.24 1985.61,1651.39 1989.36,1652.54 1993.11,1653.67 
  1996.86,1654.8 2000.61,1655.92 2004.36,1657.03 2008.11,1658.13 2011.86,1659.21 2015.61,1660.29 2019.36,1661.37 2023.1,1662.43 2026.85,1663.48 2030.6,1664.52 
  2034.35,1665.56 2038.1,1666.58 2041.85,1667.6 2045.6,1668.61 2049.35,1669.61 2053.1,1670.6 2056.85,1671.58 2060.6,1672.55 2064.35,1673.52 2068.1,1674.47 
  2071.85,1675.42 2075.59,1676.36 2079.34,1677.3 2083.09,1678.22 2086.84,1679.14 2090.59,1680.05 2094.34,1680.95 2098.09,1681.84 2101.84,1682.72 2105.59,1683.6 
  2109.34,1684.47 2113.09,1685.33 2116.84,1686.19 2120.59,1687.04 2124.33,1687.88 2128.08,1688.71 2131.83,1689.54 2135.58,1690.36 2139.33,1691.17 2143.08,1691.97 
  2146.83,1692.77 2150.58,1693.56 2154.33,1694.34 2158.08,1695.12 2161.83,1695.89 2165.58,1696.66 2169.33,1697.41 2173.08,1698.16 2176.82,1698.91 2180.57,1699.65 
  2184.32,1700.38 2188.07,1701.1 2191.82,1701.82 2195.57,1702.54 2199.32,1703.24 2203.07,1703.94 2206.82,1704.64 2210.57,1705.33 2214.32,1706.01 2218.07,1706.69 
  2221.82,1707.36 2225.56,1708.03 2229.31,1708.69 2233.06,1709.34 2236.81,1709.99 2240.56,1710.63 2244.31,1711.27 2248.06,1711.91 2251.81,1712.53 2255.56,1713.16 
  2259.31,1713.77 2263.06,1714.38 2266.81,1714.99 2270.56,1715.59 2274.31,1716.19 2278.05,1716.78 2281.8,1717.37 2285.55,1717.95 2289.3,1718.53 2293.05,1719.1 
  2296.8,1719.67 2300.55,1720.23 2304.3,1720.79 2308.05,1721.34 2311.8,1721.89 2315.55,1722.44 2319.3,1722.97 2323.05,1723.51 2326.79,1724.04 2330.54,1724.57 
  2334.29,1725.09 2338.04,1725.61 2341.79,1726.12 2345.54,1726.63 2349.29,1727.13 2353.04,1727.63 2356.79,1728.13 2360.54,1728.62 2364.29,1729.11 2368.04,1729.59 
  2371.79,1730.07 2375.54,1730.54 2379.28,1731.02 2383.03,1731.48 2386.78,1731.95 2390.53,1732.41 2394.28,1732.86 2398.03,1733.31 2401.78,1733.76 2405.53,1734.21 
  2409.28,1734.65 2413.03,1735.08 2416.78,1735.52 2420.53,1735.94 2424.28,1736.37 2428.02,1736.79 2431.77,1737.21 2435.52,1737.63 2439.27,1738.04 2443.02,1738.45 
  2446.77,1738.85 2450.52,1739.25 2454.27,1739.65 2458.02,1740.04 2461.77,1740.43 2465.52,1740.82 2469.27,1741.21 2473.02,1741.59 2476.77,1741.96 2480.51,1742.34 
  2484.26,1742.71 2488.01,1743.08 2491.76,1743.44 2495.51,1743.81 2499.26,1744.16 2503.01,1744.52 2506.76,1744.87 2510.51,1745.22 2514.26,1745.57 2518.01,1745.91 
  2521.76,1746.25 2525.51,1746.59 2529.25,1746.92 2533,1747.26 2536.75,1747.58 2540.5,1747.91 2544.25,1748.23 2548,1748.55 2551.75,1748.87 2555.5,1749.19 
  2559.25,1749.5 2563,1749.81 2566.75,1750.11 2570.5,1750.42 2574.25,1750.72 2578,1751.02 2581.74,1751.31 2585.49,1751.6 2589.24,1751.89 2592.99,1752.18 
  2596.74,1752.47 2600.49,1752.75 2604.24,1753.03 2607.99,1753.3 2611.74,1753.58 2615.49,1753.85 2619.24,1754.12 2622.99,1754.38 2626.74,1754.65 2630.48,1754.91 
  2634.23,1755.17 2637.98,1755.42 2641.73,1755.68 2645.48,1755.93 2649.23,1756.18 2652.98,1756.42 2656.73,1756.67 2660.48,1756.91 2664.23,1757.15 2667.98,1757.38 
  2671.73,1757.62 2675.48,1757.85 2679.23,1758.08 2682.97,1758.31 2686.72,1758.53 2690.47,1758.76 2694.22,1758.98 2697.97,1759.2 2701.72,1759.41 2705.47,1759.63 
  2709.22,1759.84 2712.97,1760.05 2716.72,1760.26 2720.47,1760.46 2724.22,1760.66 2727.97,1760.87 2731.72,1761.06 2735.46,1761.26 2739.21,1761.46 2742.96,1761.65 
  2746.71,1761.84 2750.46,1762.03 2754.21,1762.21 2757.96,1762.4 2761.71,1762.58 2765.46,1762.76 2769.21,1762.94 2772.96,1763.12 2776.71,1763.29 2780.46,1763.46 
  2784.2,1763.63 2787.95,1763.8 2791.7,1763.97 2795.45,1764.13 2799.2,1764.29 2802.95,1764.45 2806.7,1764.61 2810.45,1764.77 2814.2,1764.92 2817.95,1765.07 
  2821.7,1765.22 2825.45,1765.37 2829.2,1765.52 2832.95,1765.66 2836.69,1765.8 2840.44,1765.95 2844.19,1766.08 2847.94,1766.22 2851.69,1766.35 2855.44,1766.49 
  2859.19,1766.62 2862.94,1766.75 2866.69,1766.87 2870.44,1767 2874.19,1767.12 2877.94,1767.24 2881.69,1767.36 2885.43,1767.48 2889.18,1767.59 2892.93,1767.71 
  2896.68,1767.82 2900.43,1767.93 2904.18,1768.03 2907.93,1768.14 2911.68,1768.24 2915.43,1768.34 2919.18,1768.44 2922.93,1768.54 2926.68,1768.64 2930.43,1768.73 
  2934.18,1768.82 2937.92,1768.91 2941.67,1769 2945.42,1769.09 2949.17,1769.17 2952.92,1769.25 2956.67,1769.33 2960.42,1769.41 2964.17,1769.49 2967.92,1769.57 
  2971.67,1769.64 2975.42,1769.71 2979.17,1769.78 2982.92,1769.85 2986.66,1769.92 2990.41,1769.98 2994.16,1770.04 2997.91,1770.1 3001.66,1770.16 3005.41,1770.22 
  3009.16,1770.28 3012.91,1770.33 3016.66,1770.38 3020.41,1770.43 3024.16,1770.48 3027.91,1770.53 3031.66,1770.58 3035.41,1770.62 3039.15,1770.66 3042.9,1770.7 
  3046.65,1770.74 3050.4,1770.78 3054.15,1770.81 3057.9,1770.85 3061.65,1770.88 3065.4,1770.91 3069.15,1770.94 3072.9,1770.96 3076.65,1770.99 3080.4,1771.01 
  3084.15,1771.03 3087.89,1771.05 3091.64,1771.07 3095.39,1771.09 3099.14,1771.1 3102.89,1771.11 3106.64,1771.12 3110.39,1771.13 3114.14,1771.14 3117.89,1771.15 
  3121.64,1771.15 3125.39,1771.16 3129.14,1771.16 3132.89,1771.16 3136.64,1771.15 3140.38,1771.15 3144.13,1771.15 3147.88,1771.14 3151.63,1771.13 3155.38,1771.12 
  3159.13,1771.11 3162.88,1771.09 3166.63,1771.08 3170.38,1771.06 3174.13,1771.04 3177.88,1771.02 3181.63,1771 3185.38,1770.98 3189.12,1770.95 3192.87,1770.92 
  3196.62,1770.9 3200.37,1770.87 3204.12,1770.83 3207.87,1770.8 3211.62,1770.77 3215.37,1770.73 3219.12,1770.69 3222.87,1770.65 3226.62,1770.61 3230.37,1770.57 
  3234.12,1770.52 3237.87,1770.48 3241.61,1770.43 3245.36,1770.38 3249.11,1770.33 3252.86,1770.27 3256.61,1770.22 3260.36,1770.16 3264.11,1770.11 3267.86,1770.05 
  3271.61,1769.99 3275.36,1769.92 3279.11,1769.86 3282.86,1769.8 3286.61,1769.73 3290.35,1769.66 3294.1,1769.59 3297.85,1769.52 3301.6,1769.44 3305.35,1769.37 
  3309.1,1769.29 3312.85,1769.21 3316.6,1769.13 3320.35,1769.05 3324.1,1768.97 3327.85,1768.89 3331.6,1768.8 3335.35,1768.71 3339.1,1768.62 3342.84,1768.53 
  3346.59,1768.44 3350.34,1768.35 3354.09,1768.25 3357.84,1768.15 3361.59,1768.05 3365.34,1767.95 3369.09,1767.85 3372.84,1767.75 3376.59,1767.64 3380.34,1767.54 
  3384.09,1767.43 3387.84,1767.32 3391.58,1767.21 3395.33,1767.09 3399.08,1766.98 3402.83,1766.86 3406.58,1766.75 3410.33,1766.63 3414.08,1766.51 3417.83,1766.38 
  3421.58,1766.26 3425.33,1766.13 3429.08,1766.01 3432.83,1765.88 3436.58,1765.75 3440.33,1765.62 3444.07,1765.48 3447.82,1765.35 3451.57,1765.21 3455.32,1765.08 
  3459.07,1764.94 3462.82,1764.79 3466.57,1764.65 3470.32,1764.51 3474.07,1764.36 3477.82,1764.21 3481.57,1764.07 3485.32,1763.92 3489.07,1763.76 3492.82,1763.61 
  3496.56,1763.46 3500.31,1763.3 3504.06,1763.14 3507.81,1762.98 3511.56,1762.82 3515.31,1762.66 3519.06,1762.49 3522.81,1762.33 3526.56,1762.16 3530.31,1761.99 
  3534.06,1761.82 3537.81,1761.65 3541.56,1761.47 3545.3,1761.3 3549.05,1761.12 3552.8,1760.94 3556.55,1760.76 3560.3,1760.58 3564.05,1760.4 3567.8,1760.22 
  3571.55,1760.03 3575.3,1759.84 3579.05,1759.65 3582.8,1759.46 3586.55,1759.27 3590.3,1759.08 3594.05,1758.88 3597.79,1758.68 3601.54,1758.49 3605.29,1758.29 
  3609.04,1758.09 3612.79,1757.88 3616.54,1757.68 3620.29,1757.47 3624.04,1757.26 3627.79,1757.05 3631.54,1756.84 3635.29,1756.63 3639.04,1756.42 3642.79,1756.2 
  3646.53,1755.98 3650.28,1755.77 3654.03,1755.55 3657.78,1755.32 3661.53,1755.1 3665.28,1754.88 3669.03,1754.65 3672.78,1754.42 3676.53,1754.19 3680.28,1753.96 
  3684.03,1753.73 3687.78,1753.49 3691.53,1753.26 3695.28,1753.02 3699.02,1752.78 3702.77,1752.54 3706.52,1752.3 3710.27,1752.05 3714.02,1751.81 3717.77,1751.56 
  3721.52,1751.31 3725.27,1751.06 3729.02,1750.81 3732.77,1750.56 3736.52,1750.3 3740.27,1750.05 3744.02,1749.79 3747.76,1749.53 3751.51,1749.27 3755.26,1749 
  3759.01,1748.74 3762.76,1748.47 3766.51,1748.2 3770.26,1747.93 3774.01,1747.66 3777.76,1747.39 3781.51,1747.11 3785.26,1746.84 3789.01,1746.56 3792.76,1746.28 
  
  "/>
</svg>
