<?xml version="1.0" encoding="utf-8"?>
<svg xmlns="http://www.w3.org/2000/svg" xmlns:xlink="http://www.w3.org/1999/xlink" width="960" height="480" viewBox="0 0 3840 1920">
<defs>
  <clipPath id="clip440">
    <rect x="0" y="0" width="3840" height="1920"/>
  </clipPath>
</defs>
<path clip-path="url(#clip440)" d="
M0 1920 L3840 1920 L3840 0 L0 0  Z
  " fill="#ffffff" fill-rule="evenodd" fill-opacity="1"/>
<defs>
  <clipPath id="clip441">
    <rect x="768" y="0" width="2689" height="1920"/>
  </clipPath>
</defs>
<path clip-path="url(#clip440)" d="
M47.2441 1872.76 L3792.76 1872.76 L3792.76 47.2441 L47.2441 47.2441  Z
  " fill="#ffffff" fill-rule="evenodd" fill-opacity="1"/>
<defs>
  <clipPath id="clip442">
    <rect x="47" y="47" width="3747" height="1827"/>
  </clipPath>
</defs>
<polyline clip-path="url(#clip442)" style="stroke:#000000; stroke-linecap:round; stroke-linejoin:round; stroke-width:8; stroke-opacity:1; fill:none" points="
  217.495,1416.67 219.283,1410.65 221.068,1404.61 222.851,1398.54 224.633,1392.45 226.413,1386.34 228.194,1380.21 229.974,1374.06 231.754,1367.88 233.536,1361.69 
  235.32,1355.47 237.105,1349.24 238.893,1342.99 240.685,1336.72 242.479,1330.43 244.278,1324.12 246.082,1317.8 247.891,1311.47 249.705,1305.11 251.525,1298.74 
  253.352,1292.36 255.186,1285.97 257.027,1279.56 258.876,1273.14 260.733,1266.7 262.599,1260.26 264.474,1253.81 266.358,1247.34 268.253,1240.87 270.158,1234.38 
  272.073,1227.89 274,1221.4 275.938,1214.89 277.889,1208.38 279.851,1201.87 281.826,1195.35 283.814,1188.82 285.815,1182.29 287.83,1175.76 289.859,1169.23 
  291.902,1162.7 293.959,1156.16 296.032,1149.63 298.119,1143.1 300.222,1136.57 302.341,1130.04 304.475,1123.51 306.626,1116.99 308.793,1110.47 310.976,1103.96 
  313.177,1097.45 315.394,1090.95 317.629,1084.46 319.881,1077.97 322.151,1071.5 324.438,1065.03 326.744,1058.57 329.068,1052.13 331.41,1045.69 333.77,1039.27 
  336.149,1032.86 338.547,1026.46 340.963,1020.08 343.399,1013.71 345.853,1007.36 348.327,1001.03 350.82,994.71 353.332,988.41 355.863,982.128 358.414,975.866 
  360.984,969.623 363.574,963.401 366.183,957.2 368.812,951.021 371.461,944.865 374.129,938.731 376.818,932.621 379.526,926.536 382.253,920.476 385.001,914.441 
  387.768,908.433 390.555,902.452 393.362,896.498 396.189,890.572 399.035,884.675 401.901,878.807 404.787,872.969 407.693,867.162 410.618,861.385 413.563,855.641 
  416.528,849.928 419.512,844.248 422.515,838.602 425.538,832.989 428.58,827.411 431.641,821.868 434.722,816.36 437.822,810.888 440.941,805.452 444.079,800.054 
  447.236,794.692 450.412,789.369 453.606,784.084 456.82,778.837 460.052,773.63 463.303,768.462 466.572,763.335 469.86,758.248 473.166,753.202 476.49,748.197 
  479.832,743.234 483.193,738.313 486.571,733.435 489.968,728.6 493.382,723.807 496.814,719.059 500.263,714.355 503.73,709.694 507.214,705.079 510.716,700.509 
  514.235,695.984 517.771,691.504 521.324,687.071 524.894,682.684 528.48,678.343 532.084,674.049 535.703,669.802 539.34,665.603 542.992,661.452 546.661,657.348 
  550.346,653.292 554.047,649.285 557.764,645.326 561.496,641.417 565.245,637.556 569.008,633.744 572.787,629.982 576.581,626.27 580.391,622.608 584.215,618.995 
  588.055,615.433 591.909,611.922 595.777,608.462 599.66,605.052 603.558,601.693 607.47,598.385 611.395,595.129 615.335,591.924 619.288,588.771 623.255,585.669 
  627.236,582.619 631.23,579.621 635.237,576.675 639.257,573.781 643.29,570.939 647.336,568.15 651.394,565.413 655.465,562.728 659.548,560.097 663.643,557.518 
  667.75,554.992 671.869,552.519 675.999,550.099 680.141,547.732 684.294,545.418 688.458,543.158 692.633,540.951 696.819,538.798 701.015,536.699 705.222,534.653 
  709.438,532.661 713.665,530.722 717.902,528.838 722.149,527.007 726.405,525.231 730.67,523.509 734.944,521.841 739.227,520.227 743.519,518.667 747.82,517.162 
  752.128,515.712 756.445,514.316 760.77,512.974 765.103,511.687 769.443,510.454 773.79,509.277 778.145,508.154 782.506,507.085 786.875,506.072 791.249,505.113 
  795.63,504.209 800.017,503.361 804.41,502.567 808.809,501.828 813.213,501.144 817.622,500.515 822.036,499.941 826.455,499.422 830.879,498.958 835.307,498.549 
  839.739,498.196 844.175,497.897 848.615,497.653 853.058,497.465 857.505,497.331 861.955,497.253 866.409,497.23 870.865,497.263 875.323,497.35 879.784,497.494 
  884.247,497.692 888.712,497.947 893.179,498.257 897.647,498.622 902.116,499.044 906.587,499.521 911.058,500.054 915.53,500.643 920.002,501.287 924.475,501.988 
  928.948,502.745 933.421,503.557 937.893,504.426 942.365,505.351 946.836,506.331 951.307,507.368 955.777,508.461 960.245,509.611 964.713,510.816 969.179,512.078 
  973.643,513.395 978.106,514.769 982.566,516.199 987.025,517.686 991.482,519.228 995.936,520.827 1000.39,522.482 1004.84,524.193 1009.28,525.96 1013.73,527.783 
  1018.17,529.663 1022.61,531.598 1027.04,533.59 1031.47,535.638 1035.9,537.742 1040.33,539.902 1044.75,542.118 1049.17,544.39 1053.58,546.718 1057.99,549.101 
  1062.4,551.541 1066.8,554.037 1071.2,556.588 1075.59,559.195 1079.99,561.857 1084.37,564.576 1088.75,567.35 1093.13,570.179 1097.5,573.064 1101.87,576.004 
  1106.24,578.999 1110.6,582.05 1114.95,585.156 1119.3,588.317 1123.65,591.534 1127.99,594.805 1132.33,598.131 1136.66,601.512 1140.99,604.947 1145.31,608.438 
  1149.63,611.983 1153.94,615.582 1158.25,619.235 1162.55,622.944 1166.85,626.706 1171.14,630.523 1175.43,634.393 1179.71,638.318 1183.99,642.295 1188.26,646.326 
  1192.53,650.409 1196.79,654.545 1201.05,658.733 1205.3,662.974 1209.55,667.265 1213.8,671.609 1218.03,676.003 1222.27,680.447 1226.5,684.942 1230.72,689.487 
  1234.94,694.081 1239.15,698.724 1243.36,703.416 1247.57,708.156 1251.77,712.944 1255.96,717.779 1260.15,722.662 1264.34,727.591 1268.52,732.566 1272.69,737.586 
  1276.86,742.651 1281.03,747.762 1285.19,752.916 1289.34,758.113 1293.49,763.354 1297.63,768.637 1301.77,773.963 1305.91,779.329 1310.04,784.737 1314.16,790.184 
  1318.28,795.671 1322.39,801.198 1326.5,806.762 1330.6,812.365 1334.7,818.005 1338.79,823.681 1342.87,829.393 1346.95,835.14 1351.03,840.922 1355.09,846.738 
  1359.16,852.587 1363.21,858.469 1367.26,864.382 1371.31,870.326 1375.35,876.301 1379.38,882.305 1383.4,888.338 1387.42,894.399 1391.44,900.487 1395.44,906.602 
  1399.44,912.742 1403.44,918.908 1407.42,925.097 1411.4,931.31 1415.38,937.545 1419.34,943.801 1423.3,950.078 1427.26,956.375 1431.2,962.691 1435.14,969.026 
  1439.07,975.377 1442.99,981.744 1446.9,988.127 1450.81,994.524 1454.71,1000.93 1458.6,1007.36 1462.48,1013.79 1466.36,1020.24 1470.23,1026.69 1474.08,1033.16 
  1477.93,1039.63 1481.77,1046.1 1485.61,1052.59 1489.43,1059.08 1493.24,1065.57 1497.05,1072.06 1500.84,1078.56 1504.63,1085.05 1508.41,1091.54 1512.17,1098.04 
  1515.93,1104.53 1519.68,1111.01 1523.41,1117.49 1527.14,1123.97 1530.86,1130.43 1534.56,1136.9 1538.26,1143.35 1541.94,1149.8 1545.62,1156.23 1549.28,1162.66 
  1552.94,1169.07 1556.58,1175.48 1560.22,1181.87 1563.84,1188.25 1567.45,1194.61 1571.06,1200.96 1574.65,1207.29 1578.23,1213.61 1581.81,1219.91 1585.37,1226.19 
  1588.92,1232.46 1592.47,1238.7 1596,1244.93 1599.52,1251.13 1603.04,1257.32 1606.54,1263.48 1610.03,1269.62 1613.52,1275.74 1617,1281.83 1620.46,1287.9 
  1623.92,1293.95 1627.37,1299.97 1630.81,1305.96 1634.24,1311.93 1637.66,1317.87 1641.07,1323.78 1644.47,1329.67 1647.87,1335.52 1651.26,1341.35 1654.63,1347.15 
  1658,1352.92 1661.37,1358.66 1664.72,1364.37 1668.07,1370.05 1671.41,1375.69 1674.74,1381.3 1678.07,1386.89 1681.39,1392.44 1684.7,1397.95 1688,1403.43 
  1691.3,1408.88 1694.59,1414.3 1697.88,1419.68 1701.16,1425.02 1704.43,1430.33 1707.7,1435.61 1710.96,1440.85 1714.22,1446.05 1717.47,1451.22 1720.72,1456.35 
  1723.96,1461.45 1727.2,1466.51 1730.43,1471.53 1733.67,1476.52 1736.89,1481.47 1740.12,1486.38 1743.34,1491.25 1746.55,1496.08 1749.77,1500.88 1752.98,1505.64 
  1756.19,1510.36 1759.4,1515.05 1762.61,1519.69 1765.81,1524.3 1769.02,1528.87 1772.22,1533.4 1775.42,1537.9 1778.62,1542.35 1781.83,1546.77 1785.03,1551.14 
  1788.23,1555.48 1791.43,1559.79 1794.64,1564.05 1797.85,1568.27 1801.05,1572.46 1804.27,1576.61 1807.48,1580.72 1810.69,1584.79 1813.91,1588.83 1817.13,1592.83 
  1820.36,1596.79 1823.59,1600.71 1826.83,1604.6 1830.06,1608.45 1833.31,1612.26 1836.56,1616.03 1839.81,1619.77 1843.08,1623.48 1846.35,1627.14 1849.62,1630.77 
  1852.9,1634.37 1856.19,1637.93 1859.49,1641.45 1862.79,1644.93 1866.1,1648.37 1869.42,1651.78 1872.74,1655.15 1876.08,1658.48 1879.42,1661.77 1882.77,1665.03 
  1886.13,1668.25 1889.5,1671.44 1892.87,1674.59 1896.26,1677.7 1899.65,1680.77 1903.06,1683.81 1906.47,1686.82 1909.9,1689.79 1913.33,1692.72 1916.78,1695.61 
  1920.23,1698.47 1923.69,1701.3 1927.17,1704.09 1930.66,1706.84 1934.15,1709.56 1937.66,1712.24 1941.18,1714.89 1944.71,1717.51 1948.25,1720.09 1951.8,1722.63 
  1955.37,1725.14 1958.94,1727.62 1962.53,1730.06 1966.13,1732.47 1969.74,1734.84 1973.36,1737.18 1976.99,1739.48 1980.64,1741.75 1984.3,1743.99 1987.96,1746.19 
  1991.65,1748.36 1995.34,1750.5 1999.04,1752.6 2002.76,1754.67 2006.49,1756.71 2010.23,1758.71 2013.98,1760.68 2017.75,1762.62 2021.53,1764.53 2025.32,1766.4 
  2029.12,1768.24 2032.93,1770.04 2036.75,1771.82 2040.59,1773.56 2044.44,1775.27 2048.3,1776.94 2052.17,1778.59 2056.06,1780.2 2059.95,1781.78 2063.86,1783.33 
  2067.77,1784.84 2071.7,1786.33 2075.64,1787.78 2079.6,1789.2 2083.56,1790.59 2087.53,1791.94 2091.52,1793.27 2095.51,1794.56 2099.52,1795.82 2103.53,1797.05 
  2107.56,1798.25 2111.59,1799.42 2115.64,1800.56 2119.7,1801.66 2123.76,1802.74 2127.84,1803.78 2131.92,1804.79 2136.01,1805.77 2140.12,1806.72 2144.23,1807.64 
  2148.35,1808.53 2152.48,1809.39 2156.61,1810.22 2160.76,1811.01 2164.91,1811.78 2169.07,1812.51 2173.23,1813.22 2177.41,1813.89 2181.59,1814.54 2185.78,1815.15 
  2189.97,1815.73 2194.17,1816.28 2198.38,1816.81 2202.59,1817.3 2206.8,1817.76 2211.03,1818.19 2215.25,1818.59 2219.48,1818.96 2223.72,1819.31 2227.96,1819.62 
  2232.21,1819.9 2236.45,1820.15 2240.7,1820.37 2244.96,1820.56 2249.22,1820.73 2253.47,1820.86 2257.73,1820.96 2262,1821.03 2266.26,1821.08 2270.52,1821.09 
  2274.79,1821.07 2279.05,1821.03 2283.32,1820.95 2287.58,1820.85 2291.84,1820.71 2296.11,1820.55 2300.37,1820.35 2304.63,1820.13 2308.88,1819.87 2313.14,1819.59 
  2317.39,1819.28 2321.64,1818.94 2325.89,1818.56 2330.13,1818.16 2334.37,1817.73 2338.6,1817.27 2342.83,1816.78 2347.06,1816.26 2351.28,1815.71 2355.5,1815.13 
  2359.71,1814.52 2363.92,1813.88 2368.12,1813.21 2372.31,1812.51 2376.5,1811.78 2380.68,1811.03 2384.85,1810.24 2389.02,1809.42 2393.17,1808.57 2397.33,1807.7 
  2401.47,1806.79 2405.6,1805.86 2409.73,1804.89 2413.85,1803.89 2417.96,1802.87 2422.06,1801.81 2426.15,1800.73 2430.23,1799.61 2434.3,1798.47 2438.37,1797.29 
  2442.42,1796.09 2446.46,1794.86 2450.49,1793.59 2454.51,1792.3 2458.52,1790.97 2462.52,1789.62 2466.51,1788.23 2470.48,1786.82 2474.45,1785.37 2478.4,1783.9 
  2482.34,1782.39 2486.27,1780.86 2490.18,1779.29 2494.08,1777.7 2497.97,1776.07 2501.85,1774.42 2505.71,1772.73 2509.56,1771.01 2513.4,1769.27 2517.23,1767.49 
  2521.03,1765.68 2524.83,1763.84 2528.61,1761.97 2532.38,1760.07 2536.13,1758.14 2539.87,1756.18 2543.6,1754.19 2547.31,1752.17 2551,1750.11 2554.68,1748.03 
  2558.34,1745.91 2561.99,1743.77 2565.63,1741.59 2569.25,1739.38 2572.85,1737.14 2576.44,1734.87 2580.01,1732.57 2583.56,1730.23 2587.1,1727.87 2590.62,1725.47 
  2594.13,1723.05 2597.62,1720.59 2601.09,1718.1 2604.55,1715.58 2607.98,1713.03 2611.4,1710.45 2614.81,1707.84 2618.2,1705.19 2621.57,1702.52 2624.92,1699.81 
  2628.25,1697.07 2631.57,1694.3 2634.87,1691.5 2638.16,1688.66 2641.42,1685.79 2644.67,1682.9 2647.9,1679.97 2651.12,1677 2654.31,1674.01 2657.49,1670.98 
  2660.65,1667.92 2663.79,1664.83 2666.92,1661.71 2670.02,1658.55 2673.11,1655.36 2676.18,1652.14 2679.24,1648.89 2682.27,1645.6 2685.29,1642.29 2688.29,1638.94 
  2691.27,1635.55 2694.23,1632.14 2697.18,1628.69 2700.1,1625.21 2703.01,1621.7 2705.9,1618.15 2708.77,1614.57 2711.62,1610.96 2714.46,1607.32 2717.27,1603.64 
  2720.07,1599.93 2722.85,1596.19 2725.61,1592.42 2728.35,1588.62 2731.07,1584.78 2733.77,1580.91 2736.46,1577 2739.12,1573.07 2741.77,1569.1 2744.4,1565.1 
  2747,1561.07 2749.59,1557.01 2752.16,1552.91 2754.72,1548.78 2757.25,1544.62 2759.76,1540.43 2762.25,1536.21 2764.73,1531.95 2767.18,1527.66 2769.62,1523.34 
  2772.03,1518.99 2774.43,1514.61 2776.81,1510.19 2779.16,1505.75 2781.5,1501.27 2783.82,1496.76 2786.12,1492.22 2788.4,1487.65 2790.66,1483.04 2792.9,1478.41 
  2795.11,1473.75 2797.31,1469.05 2799.49,1464.33 2801.65,1459.57 2803.79,1454.78 2805.91,1449.96 2808.01,1445.12 2810.09,1440.24 2812.15,1435.33 2814.19,1430.39 
  2816.21,1425.42 2818.21,1420.43 2820.18,1415.4 2822.14,1410.34 2824.08,1405.26 2826,1400.14 2827.89,1395 2829.77,1389.83 2831.62,1384.62 2833.46,1379.39 
  2835.27,1374.13 2837.07,1368.85 2838.84,1363.53 2840.59,1358.19 2842.32,1352.82 2844.03,1347.42 2845.72,1341.99 2847.39,1336.54 2849.04,1331.06 2850.67,1325.55 
  2852.28,1320.01 2853.86,1314.45 2855.42,1308.86 2856.97,1303.25 2858.49,1297.61 2859.99,1291.94 2861.47,1286.25 2862.93,1280.53 2864.37,1274.79 2865.78,1269.02 
  2867.18,1263.23 2868.55,1257.41 2869.9,1251.57 2871.23,1245.7 2872.54,1239.81 2873.83,1233.89 2875.09,1227.95 2876.34,1221.99 2877.56,1216 2878.76,1210 
  2879.94,1203.96 2881.1,1197.91 2882.24,1191.83 2883.35,1185.73 2884.44,1179.61 2885.51,1173.47 2886.56,1167.31 2887.59,1161.12 2888.6,1154.91 2889.59,1148.69 
  2890.55,1142.44 2891.5,1136.17 2892.43,1129.89 2893.34,1123.58 2894.23,1117.26 2895.1,1110.92 2895.96,1104.56 2896.8,1098.19 2897.62,1091.8 2898.42,1085.4 
  2899.21,1078.98 2899.98,1072.55 2900.74,1066.1 2901.48,1059.64 2902.2,1053.17 2902.92,1046.68 2903.61,1040.19 2904.3,1033.68 2904.97,1027.16 2905.63,1020.63 
  2906.28,1014.09 2906.91,1007.54 2907.54,1000.99 2908.15,994.424 2908.75,987.852 2909.35,981.273 2909.93,974.688 2910.5,968.096 2911.07,961.499 2911.63,954.897 
  2912.17,948.291 2912.72,941.68 2913.25,935.066 2913.78,928.449 2914.31,921.829 2914.82,915.208 2915.34,908.585 2915.85,901.961 2916.35,895.337 2916.85,888.713 
  2917.35,882.089 2917.85,875.467 2918.34,868.846 2918.84,862.227 2919.33,855.611 2919.82,848.998 2920.32,842.389 2920.81,835.785 2921.3,829.184 2921.8,822.59 
  2922.3,816 2922.8,809.417 2923.31,802.841 2923.82,796.273 2924.33,789.712 2924.85,783.159 2925.38,776.615 2925.91,770.08 2926.45,763.556 2926.99,757.041 
  2927.55,750.538 2928.11,744.046 2928.68,737.566 2929.26,731.098 2929.85,724.643 2930.46,718.202 2931.07,711.774 2931.7,705.361 2932.34,698.963 2932.99,692.581 
  2933.66,686.214 2934.34,679.864 2935.04,673.531 2935.75,667.216 2936.48,660.918 2937.23,654.64 2937.99,648.38 2938.77,642.14 2939.58,635.92 2940.4,629.72 
  2941.24,623.542 2942.1,617.385 2942.99,611.251 2943.9,605.139 2944.83,599.05 2945.78,592.985 2946.76,586.944 2947.77,580.928 2948.8,574.937 2949.85,568.972 
  2950.94,563.033 2952.05,557.12 2953.19,551.235 2954.36,545.378 2955.56,539.549 2956.79,533.749 2958.05,527.978 2959.34,522.237 2960.67,516.527 2962.03,510.847 
  2963.43,505.198 2964.85,499.58 2966.31,493.992 2967.81,488.436 2969.34,482.911 2970.9,477.417 2972.5,471.956 2974.13,466.526 2975.8,461.128 2977.51,455.763 
  2979.25,450.431 2981.03,445.131 2982.85,439.864 2984.71,434.631 2986.6,429.431 2988.53,424.265 2990.5,419.132 2992.52,414.034 2994.57,408.969 2996.66,403.94 
  2998.79,398.945 3000.96,393.984 3003.17,389.059 3005.43,384.169 3007.73,379.314 3010.06,374.495 3012.44,369.712 3014.86,364.964 3017.33,360.253 3019.84,355.577 
  3022.39,350.939 3024.98,346.337 3027.62,341.771 3030.3,337.243 3033.02,332.751 3035.79,328.297 3038.6,323.881 3041.46,319.502 3044.36,315.16 3047.31,310.857 
  3050.3,306.591 3053.33,302.364 3056.41,298.175 3059.53,294.024 3062.7,289.912 3065.92,285.839 3069.18,281.805 3072.48,277.81 3075.83,273.854 3079.23,269.937 
  3082.67,266.059 3086.16,262.221 3089.69,258.423 3093.27,254.665 3096.89,250.946 3100.56,247.268 3104.27,243.629 3108.03,240.031 3111.83,236.473 3115.68,232.956 
  3119.58,229.479 3123.51,226.043 3127.5,222.648 3131.53,219.294 3135.6,215.98 3139.72,212.708 3143.88,209.477 3148.09,206.287 3152.34,203.139 3156.64,200.032 
  3160.98,196.966 3165.36,193.943 3169.79,190.961 3174.26,188.02 3178.77,185.122 3183.33,182.266 3187.92,179.451 3192.57,176.679 3197.25,173.949 3201.98,171.261 
  3206.74,168.615 3211.55,166.012 3216.4,163.452 3221.3,160.933 3226.23,158.458 3231.2,156.024 3236.21,153.634 3241.27,151.286 3246.36,148.981 3251.49,146.719 
  3256.66,144.5 3261.87,142.323 3267.11,140.19 3272.4,138.099 3277.72,136.052 3283.08,134.047 3288.47,132.086 3293.9,130.168 3299.37,128.293 3304.87,126.461 
  3310.41,124.672 3315.98,122.927 3321.58,121.224 3327.22,119.565 3332.89,117.949 3338.59,116.377 3344.33,114.848 3350.09,113.362 3355.89,111.919 3361.72,110.52 
  3367.57,109.164 3373.46,107.851 3379.37,106.582 3385.32,105.356 3391.29,104.173 3397.28,103.034 3403.31,101.938 3409.36,100.885 3415.43,99.8758 3421.53,98.9095 
  
  "/>
<circle clip-path="url(#clip442)" cx="217.495" cy="1416.67" r="14.4" fill="#000000" fill-rule="evenodd" fill-opacity="1" stroke="none"/>
<circle clip-path="url(#clip442)" cx="3421.53" cy="98.9095" r="14.4" fill="#000000" fill-rule="evenodd" fill-opacity="1" stroke="none"/>
<path clip-path="url(#clip440)" d="M180.321 1440.36 Q180.321 1444.3 177.861 1446.55 Q175.402 1448.73 172.591 1448.73 Q169.921 1448.73 168.516 1447.18 Q167.111 1445.63 167.111 1443.67 Q167.111 1441 169.078 1438.68 Q171.046 1436.36 173.997 1435.87 Q171.116 1434.04 166.829 1434.04 Q164.019 1434.04 161.559 1435.52 Q159.17 1436.99 157.695 1438.89 Q156.289 1440.79 155.025 1443.53 Q153.83 1446.2 153.338 1447.81 Q152.917 1449.36 152.565 1451.04 L147.647 1470.72 Q145.257 1480.06 145.257 1483.37 Q145.257 1487.44 147.225 1490.18 Q149.192 1492.85 153.127 1492.85 Q154.673 1492.85 156.43 1492.43 Q158.187 1491.94 160.435 1490.68 Q162.754 1489.34 164.792 1487.37 Q166.9 1485.33 168.938 1481.89 Q170.975 1478.45 172.31 1474.02 Q172.732 1472.48 174.137 1472.48 Q175.894 1472.48 175.894 1473.88 Q175.894 1475.08 174.91 1477.61 Q173.997 1480.06 171.959 1483.3 Q169.992 1486.46 167.392 1489.34 Q164.792 1492.15 160.927 1494.12 Q157.062 1496.09 152.846 1496.09 Q146.803 1496.09 142.798 1492.85 Q138.793 1489.62 137.317 1485.12 Q136.966 1485.76 136.474 1486.6 Q135.982 1487.44 134.507 1489.34 Q133.101 1491.17 131.485 1492.57 Q129.869 1493.91 127.339 1494.96 Q124.88 1496.09 122.21 1496.09 Q118.837 1496.09 115.815 1495.1 Q112.864 1494.12 110.756 1491.87 Q108.648 1489.62 108.648 1486.53 Q108.648 1483.09 110.967 1480.7 Q113.356 1478.24 116.588 1478.24 Q118.626 1478.24 120.242 1479.43 Q121.929 1480.63 121.929 1483.23 Q121.929 1486.11 119.961 1488.29 Q117.994 1490.46 115.183 1491.03 Q118.064 1492.85 122.35 1492.85 Q126.988 1492.85 130.642 1488.78 Q134.296 1484.7 136.052 1477.89 Q140.409 1461.51 142.095 1454.21 Q143.782 1446.83 143.782 1443.67 Q143.782 1440.72 143.009 1438.68 Q142.236 1436.64 140.901 1435.73 Q139.636 1434.74 138.441 1434.39 Q137.317 1434.04 136.052 1434.04 Q133.944 1434.04 131.555 1434.88 Q129.236 1435.73 126.426 1437.69 Q123.685 1439.59 121.085 1443.53 Q118.486 1447.46 116.729 1452.87 Q116.378 1454.49 114.832 1454.49 Q113.145 1454.42 113.145 1453.01 Q113.145 1451.82 114.059 1449.36 Q115.042 1446.83 117.01 1443.67 Q119.048 1440.5 121.648 1437.69 Q124.318 1434.81 128.182 1432.85 Q132.117 1430.88 136.333 1430.88 Q138.231 1430.88 140.058 1431.3 Q141.955 1431.65 144.203 1432.7 Q146.522 1433.76 148.56 1436.08 Q150.598 1438.4 151.863 1441.77 Q152.706 1440.15 153.83 1438.61 Q155.025 1437.06 156.852 1435.16 Q158.749 1433.2 161.349 1432.07 Q164.019 1430.88 166.97 1430.88 Q169.851 1430.88 172.662 1431.65 Q175.472 1432.35 177.861 1434.67 Q180.321 1436.92 180.321 1440.36 Z" fill="#000000" fill-rule="evenodd" fill-opacity="1" /><path clip-path="url(#clip440)" d="M3569.93 54.8292 L3567.05 79.7039 Q3566.84 81.9524 3566.49 82.6551 Q3566.14 83.2875 3565.01 83.2875 Q3563.33 83.2875 3563.33 81.6011 Q3563.33 80.8984 3563.61 79.0012 Q3564.03 75.1365 3564.03 71.2015 Q3564.03 66.7747 3563.19 64.0342 Q3562.41 61.2236 3560.16 59.1858 Q3557.92 57.148 3553.77 56.3048 Q3549.62 55.3914 3543.02 55.3914 L3524.05 55.3914 Q3519.41 55.3914 3518.29 56.2346 Q3517.23 57.0778 3516.25 61.0127 L3507.04 97.5518 L3520.11 97.5518 Q3529.25 97.5518 3532.83 94.8816 Q3536.41 92.2114 3538.66 83.7091 Q3539.01 82.374 3539.15 81.8821 Q3539.37 81.32 3539.72 81.0389 Q3540.14 80.6876 3540.84 80.6876 Q3541.47 80.6876 3541.9 81.1092 Q3542.32 81.4605 3542.46 81.8821 L3542.6 82.3038 Q3542.6 83.0064 3542.18 84.6226 L3534.24 115.821 Q3533.67 117.929 3533.32 118.421 Q3533.04 118.843 3532.06 118.843 Q3531.36 118.843 3530.86 118.351 Q3530.37 117.859 3530.37 117.086 Q3530.51 116.243 3530.79 115.54 Q3531.78 111.254 3531.78 108.513 Q3531.78 106.757 3531.43 105.703 Q3531.07 104.649 3529.88 103.735 Q3528.69 102.822 3526.23 102.4 Q3523.77 101.979 3519.83 101.979 L3505.92 101.979 L3496.99 137.815 L3496.36 141.118 Q3496.36 142.593 3497.14 143.155 Q3497.98 143.717 3501 143.998 Q3505.5 144.35 3508.45 144.35 Q3512.1 144.35 3512.52 144.49 Q3513.37 144.912 3513.37 146.036 Q3513.37 147.301 3512.8 148.004 Q3512.24 148.636 3511.75 148.706 Q3511.26 148.777 3510.35 148.777 L3488.91 148.355 L3469.94 148.777 Q3467.76 148.777 3467.76 147.02 Q3467.76 145.685 3468.33 145.123 Q3468.89 144.49 3469.52 144.42 Q3470.15 144.35 3471.77 144.35 Q3475.28 144.35 3477.39 144.139 Q3479.5 143.928 3480.83 143.647 Q3482.24 143.296 3482.94 142.312 Q3483.71 141.328 3484.07 140.485 Q3484.42 139.572 3484.91 137.534 L3503.88 61.4344 Q3504.58 58.8345 3504.58 57.9913 Q3504.58 57.0778 3503.95 56.5156 Q3503.39 55.9535 3501.84 55.7427 Q3500.3 55.4616 3499.03 55.4616 Q3497.84 55.3914 3495.24 55.3914 Q3493.55 55.3914 3492.85 55.3211 Q3492.22 55.2508 3491.72 54.8995 Q3491.23 54.5482 3491.23 53.7752 Q3491.23 51.8077 3492.08 51.3861 Q3492.99 50.8943 3495.52 50.8943 L3566.07 50.8943 Q3568.88 50.8943 3569.51 51.5267 Q3570.21 52.0888 3569.93 54.8292 Z" fill="#000000" fill-rule="evenodd" fill-opacity="1" /><path clip-path="url(#clip440)" d="M3571.26 156.428 Q3571.26 141.622 3575 133.556 Q3580.22 121.554 3592.51 121.554 Q3595.12 121.554 3597.82 122.292 Q3600.58 122.98 3604.02 125.686 Q3607.51 128.391 3609.63 132.818 Q3613.66 141.376 3613.66 156.428 Q3613.66 171.135 3609.92 179.152 Q3604.47 190.859 3592.41 190.859 Q3587.89 190.859 3583.27 188.547 Q3578.69 186.235 3575.79 180.677 Q3571.26 172.364 3571.26 156.428 M3579.63 155.198 Q3579.63 170.397 3580.71 176.447 Q3581.94 182.989 3585.28 185.841 Q3588.68 188.645 3592.41 188.645 Q3596.45 188.645 3599.79 185.645 Q3603.19 182.595 3604.22 176.053 Q3605.35 169.61 3605.3 155.198 Q3605.3 141.18 3604.32 135.572 Q3602.99 129.03 3599.45 126.423 Q3595.96 123.767 3592.41 123.767 Q3591.09 123.767 3589.66 124.161 Q3588.28 124.554 3586.27 125.686 Q3584.25 126.817 3582.68 129.621 Q3581.15 132.424 3580.41 136.654 Q3579.63 142.114 3579.63 155.198 Z" fill="#000000" fill-rule="evenodd" fill-opacity="1" /><path clip-path="url(#clip440)" d="M3615.51 27.143 Q3615.51 28.5202 3614.87 28.8645 Q3614.23 29.1596 3612.46 29.1596 L3603.02 29.1596 L3595.54 58.8687 Q3594.95 61.4756 3594.95 63.689 Q3594.95 66.1484 3595.69 67.2305 Q3596.48 68.3126 3598.1 68.3126 Q3601.3 68.3126 3604.74 65.4106 Q3608.23 62.5085 3611.18 55.4256 Q3611.58 54.491 3611.77 54.2943 Q3612.02 54.0483 3612.66 54.0483 Q3613.89 54.0483 3613.89 55.0321 Q3613.89 55.3764 3613.2 56.9504 Q3612.56 58.5244 3611.13 60.8361 Q3609.76 63.1479 3607.94 65.3122 Q3606.17 67.4764 3603.46 69.0504 Q3600.76 70.5752 3597.85 70.5752 Q3593.77 70.5752 3591.16 67.9683 Q3588.61 65.3614 3588.61 61.2788 Q3588.61 59.9508 3589.64 55.7207 Q3590.67 51.4414 3596.28 29.1596 L3587.38 29.1596 Q3586.15 29.1596 3585.66 29.1104 Q3585.21 29.0613 3584.87 28.8153 Q3584.57 28.5202 3584.57 27.93 Q3584.57 26.9954 3584.97 26.6019 Q3585.36 26.1592 3585.85 26.11 Q3586.39 26.0117 3587.62 26.0117 L3597.07 26.0117 L3601 10.0258 Q3601.4 8.45185 3602.38 7.56648 Q3603.41 6.63193 3604 6.53355 Q3604.59 6.38599 3605.04 6.38599 Q3606.36 6.38599 3607.15 7.1238 Q3607.94 7.81242 3607.94 9.09129 Q3607.94 9.7799 3603.81 26.0117 L3612.66 26.0117 Q3613.79 26.0117 3614.23 26.0608 Q3614.73 26.11 3615.12 26.356 Q3615.51 26.6019 3615.51 27.143 Z" fill="#000000" fill-rule="evenodd" fill-opacity="1" /><path clip-path="url(#clip440)" d="M3632.85 112.8 Q3632.85 88.4873 3641.92 68.8827 Q3645.78 60.6614 3651.19 53.7752 Q3656.6 46.889 3660.19 43.8675 Q3663.77 40.846 3664.76 40.846 Q3666.16 40.846 3666.23 42.2514 Q3666.23 42.954 3664.33 44.7107 Q3641.15 68.3206 3641.22 112.8 Q3641.22 157.42 3663.77 180.116 Q3666.23 182.575 3666.23 183.348 Q3666.23 184.754 3664.76 184.754 Q3663.77 184.754 3660.33 181.873 Q3656.89 178.992 3651.54 172.386 Q3646.2 165.781 3642.34 157.701 Q3632.85 138.096 3632.85 112.8 Z" fill="#000000" fill-rule="evenodd" fill-opacity="1" /><path clip-path="url(#clip440)" d="M3748.84 94.6708 Q3748.84 98.6058 3746.38 100.854 Q3743.92 103.033 3741.11 103.033 Q3738.44 103.033 3737.03 101.487 Q3735.63 99.9409 3735.63 97.9734 Q3735.63 95.3032 3737.6 92.9844 Q3739.56 90.6656 3742.51 90.1737 Q3739.63 88.3467 3735.35 88.3467 Q3732.54 88.3467 3730.08 89.8224 Q3727.69 91.298 3726.21 93.1952 Q3724.81 95.0924 3723.54 97.8328 Q3722.35 100.503 3721.86 102.119 Q3721.43 103.665 3721.08 105.351 L3716.16 125.026 Q3713.78 134.372 3713.78 137.674 Q3713.78 141.75 3715.74 144.49 Q3717.71 147.16 3721.65 147.16 Q3723.19 147.16 3724.95 146.739 Q3726.7 146.247 3728.95 144.982 Q3731.27 143.647 3733.31 141.68 Q3735.42 139.642 3737.46 136.199 Q3739.49 132.756 3740.83 128.329 Q3741.25 126.783 3742.66 126.783 Q3744.41 126.783 3744.41 128.188 Q3744.41 129.383 3743.43 131.912 Q3742.51 134.372 3740.48 137.604 Q3738.51 140.766 3735.91 143.647 Q3733.31 146.458 3729.44 148.425 Q3725.58 150.393 3721.36 150.393 Q3715.32 150.393 3711.32 147.16 Q3707.31 143.928 3705.84 139.431 Q3705.48 140.063 3704.99 140.907 Q3704.5 141.75 3703.02 143.647 Q3701.62 145.474 3700 146.879 Q3698.39 148.215 3695.86 149.269 Q3693.4 150.393 3690.73 150.393 Q3687.35 150.393 3684.33 149.409 Q3681.38 148.425 3679.27 146.177 Q3677.17 143.928 3677.17 140.836 Q3677.17 137.393 3679.48 135.004 Q3681.87 132.545 3685.11 132.545 Q3687.14 132.545 3688.76 133.739 Q3690.45 134.934 3690.45 137.534 Q3690.45 140.415 3688.48 142.593 Q3686.51 144.771 3683.7 145.334 Q3686.58 147.16 3690.87 147.16 Q3695.51 147.16 3699.16 143.085 Q3702.81 139.009 3704.57 132.194 Q3708.93 115.821 3710.61 108.513 Q3712.3 101.135 3712.3 97.9734 Q3712.3 95.0221 3711.53 92.9844 Q3710.75 90.9466 3709.42 90.0332 Q3708.15 89.0494 3706.96 88.6981 Q3705.84 88.3467 3704.57 88.3467 Q3702.46 88.3467 3700.07 89.1899 Q3697.75 90.0332 3694.94 92.0006 Q3692.2 93.8979 3689.6 97.8328 Q3687 101.768 3685.25 107.178 Q3684.9 108.795 3683.35 108.795 Q3681.66 108.724 3681.66 107.319 Q3681.66 106.124 3682.58 103.665 Q3683.56 101.135 3685.53 97.9734 Q3687.57 94.8113 3690.17 92.0006 Q3692.84 89.1197 3696.7 87.1522 Q3700.64 85.1847 3704.85 85.1847 Q3706.75 85.1847 3708.58 85.6063 Q3710.47 85.9577 3712.72 87.0117 Q3715.04 88.0657 3717.08 90.3845 Q3719.12 92.7033 3720.38 96.0761 Q3721.22 94.46 3722.35 92.9141 Q3723.54 91.3682 3725.37 89.471 Q3727.27 87.5035 3729.87 86.3793 Q3732.54 85.1847 3735.49 85.1847 Q3738.37 85.1847 3741.18 85.9577 Q3743.99 86.6603 3746.38 88.9791 Q3748.84 91.2277 3748.84 94.6708 Z" fill="#000000" fill-rule="evenodd" fill-opacity="1" /><path clip-path="url(#clip440)" d="M3762.69 183.348 Q3762.69 182.646 3764.52 180.889 Q3787.71 157.279 3787.71 112.8 Q3787.71 68.18 3765.43 45.6242 Q3762.69 43.0243 3762.69 42.2514 Q3762.69 40.846 3764.1 40.846 Q3765.08 40.846 3768.52 43.727 Q3772.04 46.6079 3777.31 53.2131 Q3782.65 59.8182 3786.58 67.8989 Q3796.07 87.5035 3796.07 112.8 Q3796.07 137.112 3787 156.717 Q3783.14 164.938 3777.73 171.824 Q3772.32 178.711 3768.73 181.732 Q3765.15 184.754 3764.1 184.754 Q3762.69 184.754 3762.69 183.348 Z" fill="#000000" fill-rule="evenodd" fill-opacity="1" /></svg>
