<?xml version="1.0" encoding="utf-8"?>
<svg xmlns="http://www.w3.org/2000/svg" xmlns:xlink="http://www.w3.org/1999/xlink" width="960" height="480" viewBox="0 0 3840 1920">
<defs>
  <clipPath id="clip450">
    <rect x="0" y="0" width="3840" height="1920"/>
  </clipPath>
</defs>
<path clip-path="url(#clip450)" d="
M0 1920 L3840 1920 L3840 0 L0 0  Z
  " fill="#ffffff" fill-rule="evenodd" fill-opacity="1"/>
<defs>
  <clipPath id="clip451">
    <rect x="768" y="0" width="2689" height="1920"/>
  </clipPath>
</defs>
<path clip-path="url(#clip450)" d="
M47.2441 1872.76 L3792.76 1872.76 L3792.76 47.2441 L47.2441 47.2441  Z
  " fill="#ffffff" fill-rule="evenodd" fill-opacity="1"/>
<defs>
  <clipPath id="clip452">
    <rect x="47" y="47" width="3747" height="1827"/>
  </clipPath>
</defs>
<polyline clip-path="url(#clip452)" style="stroke:#000000; stroke-linecap:round; stroke-linejoin:round; stroke-width:4; stroke-opacity:1; fill:none" points="
  210.092,1359.87 211.721,1355.22 213.348,1350.54 214.972,1345.85 216.596,1341.14 218.218,1336.42 219.84,1331.68 221.461,1326.92 223.083,1322.15 224.706,1317.36 
  226.33,1312.56 227.955,1307.75 229.583,1302.92 231.213,1298.07 232.846,1293.22 234.482,1288.35 236.122,1283.47 237.766,1278.57 239.414,1273.66 241.068,1268.75 
  242.726,1263.82 244.391,1258.88 246.061,1253.93 247.738,1248.97 249.421,1244.01 251.112,1239.03 252.81,1234.05 254.516,1229.05 256.23,1224.05 257.952,1219.05 
  259.684,1214.03 261.424,1209.02 263.174,1203.99 264.934,1198.96 266.704,1193.93 268.485,1188.89 270.276,1183.84 272.078,1178.8 273.892,1173.75 275.717,1168.7 
  277.554,1163.64 279.403,1158.59 281.265,1153.54 283.139,1148.48 285.026,1143.42 286.926,1138.37 288.839,1133.32 290.766,1128.26 292.706,1123.21 294.661,1118.17 
  296.63,1113.12 298.613,1108.08 300.61,1103.04 302.622,1098.01 304.65,1092.98 306.692,1087.96 308.749,1082.95 310.822,1077.94 312.91,1072.93 315.014,1067.94 
  317.133,1062.95 319.269,1057.97 321.42,1053.01 323.588,1048.05 325.772,1043.1 327.972,1038.16 330.189,1033.23 332.422,1028.31 334.671,1023.41 336.938,1018.52 
  339.221,1013.64 341.52,1008.77 343.837,1003.92 346.17,999.083 348.521,994.26 350.888,989.453 353.272,984.662 355.674,979.887 358.092,975.129 360.528,970.388 
  362.98,965.664 365.45,960.959 367.937,956.272 370.441,951.604 372.963,946.956 375.501,942.327 378.057,937.718 380.63,933.13 383.22,928.564 385.827,924.019 
  388.451,919.495 391.093,914.994 393.751,910.516 396.427,906.061 399.119,901.63 401.829,897.222 404.555,892.839 407.298,888.48 410.058,884.147 412.835,879.839 
  415.628,875.557 418.438,871.301 421.265,867.072 424.109,862.869 426.968,858.694 429.845,854.546 432.738,850.426 435.647,846.335 438.572,842.272 441.514,838.237 
  444.471,834.232 447.445,830.256 450.435,826.311 453.441,822.395 456.462,818.509 459.5,814.654 462.553,810.831 465.621,807.038 468.706,803.277 471.805,799.547 
  474.921,795.85 478.051,792.184 481.197,788.551 484.358,784.951 487.534,781.384 490.725,777.85 493.931,774.35 497.152,770.883 500.387,767.45 503.638,764.051 
  506.902,760.686 510.182,757.356 513.475,754.061 516.783,750.8 520.105,747.574 523.442,744.384 526.792,741.229 530.156,738.11 533.534,735.026 536.926,731.978 
  540.331,728.967 543.75,725.991 547.182,723.052 550.628,720.149 554.086,717.283 557.558,714.454 561.043,711.661 564.541,708.906 568.052,706.188 571.575,703.508 
  575.111,700.865 578.659,698.259 582.22,695.692 585.793,693.162 589.378,690.669 592.975,688.215 596.584,685.799 600.204,683.421 603.837,681.081 607.48,678.779 
  611.136,676.516 614.802,674.291 618.48,672.105 622.168,669.957 625.868,667.848 629.578,665.778 633.299,663.746 637.03,661.754 640.771,659.8 644.523,657.886 
  648.285,656.01 652.057,654.174 655.838,652.377 659.63,650.619 663.43,648.901 667.24,647.222 671.06,645.582 674.888,643.983 678.725,642.422 682.572,640.902 
  686.426,639.421 690.289,637.979 694.161,636.578 698.041,635.217 701.928,633.895 705.824,632.613 709.727,631.372 713.638,630.17 717.556,629.008 721.481,627.887 
  725.414,626.805 729.353,625.764 733.299,624.763 737.252,623.803 741.211,622.882 745.176,622.002 749.147,621.163 753.124,620.363 757.107,619.604 761.095,618.886 
  765.089,618.208 769.088,617.57 773.092,616.973 777.101,616.416 781.114,615.9 785.132,615.425 789.155,614.99 793.181,614.596 797.211,614.242 801.245,613.928 
  805.283,613.656 809.323,613.424 813.368,613.232 817.415,613.081 821.466,612.971 825.519,612.901 829.575,612.872 833.634,612.884 837.695,612.937 841.758,613.03 
  845.823,613.164 849.889,613.34 853.957,613.556 858.027,613.813 862.098,614.112 866.17,614.451 870.242,614.831 874.316,615.253 878.389,615.716 882.464,616.22 
  886.538,616.765 890.613,617.352 894.687,617.979 898.762,618.648 902.836,619.359 906.909,620.11 910.982,620.904 915.054,621.738 919.125,622.614 923.195,623.531 
  927.264,624.489 931.332,625.489 935.398,626.531 939.462,627.613 943.525,628.738 947.586,629.903 951.646,631.11 955.703,632.358 959.758,633.648 963.811,634.98 
  967.862,636.352 971.91,637.766 975.955,639.221 979.998,640.718 984.039,642.256 988.076,643.836 992.111,645.456 996.143,647.118 1000.17,648.822 1004.2,650.566 
  1008.22,652.352 1012.24,654.179 1016.26,656.047 1020.27,657.956 1024.28,659.907 1028.28,661.898 1032.28,663.931 1036.28,666.005 1040.28,668.119 1044.27,670.275 
  1048.26,672.471 1052.24,674.708 1056.22,676.986 1060.19,679.305 1064.17,681.665 1068.13,684.065 1072.1,686.506 1076.06,688.988 1080.01,691.51 1083.96,694.072 
  1087.91,696.675 1091.86,699.318 1095.79,702.002 1099.73,704.726 1103.66,707.49 1107.59,710.294 1111.51,713.138 1115.43,716.022 1119.34,718.946 1123.25,721.911 
  1127.16,724.914 1131.06,727.958 1134.95,731.04 1138.85,734.162 1142.73,737.323 1146.62,740.522 1150.5,743.76 1154.37,747.036 1158.24,750.35 1162.11,753.702 
  1165.97,757.092 1169.83,760.519 1173.68,763.983 1177.53,767.484 1181.38,771.021 1185.22,774.595 1189.06,778.205 1192.89,781.851 1196.72,785.532 1200.54,789.248 
  1204.36,792.999 1208.18,796.784 1211.99,800.604 1215.8,804.458 1219.6,808.345 1223.4,812.265 1227.19,816.219 1230.98,820.204 1234.77,824.222 1238.55,828.272 
  1242.33,832.353 1246.1,836.465 1249.87,840.607 1253.63,844.78 1257.39,848.983 1261.14,853.215 1264.89,857.476 1268.63,861.765 1272.37,866.083 1276.11,870.428 
  1279.84,874.801 1283.56,879.2 1287.28,883.626 1291,888.078 1294.71,892.555 1298.42,897.057 1302.12,901.583 1305.81,906.133 1309.5,910.707 1313.19,915.304 
  1316.87,919.923 1320.54,924.564 1324.21,929.226 1327.87,933.909 1331.53,938.613 1335.18,943.336 1338.83,948.078 1342.47,952.839 1346.11,957.618 1349.74,962.415 
  1353.36,967.228 1356.98,972.058 1360.59,976.903 1364.2,981.764 1367.79,986.639 1371.39,991.528 1374.97,996.43 1378.55,1001.34 1382.13,1006.27 1385.69,1011.21 
  1389.25,1016.16 1392.81,1021.12 1396.35,1026.08 1399.89,1031.06 1403.42,1036.05 1406.95,1041.04 1410.47,1046.04 1413.98,1051.04 1417.48,1056.05 1420.98,1061.06 
  1424.46,1066.08 1427.94,1071.1 1431.41,1076.13 1434.88,1081.15 1438.33,1086.18 1441.78,1091.2 1445.22,1096.23 1448.65,1101.25 1452.07,1106.27 1455.49,1111.29 
  1458.89,1116.31 1462.29,1121.32 1465.68,1126.32 1469.05,1131.32 1472.42,1136.32 1475.78,1141.31 1479.13,1146.29 1482.48,1151.27 1485.81,1156.23 1489.14,1161.19 
  1492.45,1166.14 1495.76,1171.08 1499.06,1176.02 1502.34,1180.94 1505.62,1185.85 1508.9,1190.74 1512.16,1195.63 1515.41,1200.5 1518.66,1205.36 1521.89,1210.21 
  1525.12,1215.04 1528.34,1219.86 1531.55,1224.67 1534.75,1229.45 1537.95,1234.22 1541.13,1238.98 1544.31,1243.72 1547.48,1248.44 1550.64,1253.15 1553.79,1257.83 
  1556.94,1262.5 1560.08,1267.15 1563.21,1271.78 1566.33,1276.39 1569.44,1280.98 1572.55,1285.55 1575.65,1290.1 1578.74,1294.63 1581.82,1299.13 1584.9,1303.62 
  1587.97,1308.08 1591.04,1312.52 1594.09,1316.94 1597.14,1321.34 1600.19,1325.71 1603.22,1330.06 1606.25,1334.38 1609.28,1338.69 1612.3,1342.96 1615.31,1347.22 
  1618.32,1351.44 1621.32,1355.65 1624.31,1359.82 1627.31,1363.98 1630.29,1368.1 1633.27,1372.2 1636.25,1376.28 1639.22,1380.33 1642.19,1384.35 1645.15,1388.35 
  1648.11,1392.32 1651.06,1396.26 1654.01,1400.17 1656.96,1404.06 1659.9,1407.92 1662.84,1411.76 1665.78,1415.56 1668.71,1419.34 1671.65,1423.09 1674.58,1426.81 
  1677.5,1430.51 1680.43,1434.18 1683.35,1437.81 1686.27,1441.43 1689.19,1445.01 1692.11,1448.56 1695.03,1452.09 1697.95,1455.59 1700.87,1459.06 1703.78,1462.5 
  1706.7,1465.91 1709.62,1469.3 1712.54,1472.66 1715.45,1475.98 1718.37,1479.29 1721.29,1482.56 1724.22,1485.8 1727.14,1489.02 1730.07,1492.21 1733,1495.37 
  1735.93,1498.5 1738.86,1501.61 1741.8,1504.68 1744.74,1507.73 1747.68,1510.76 1750.63,1513.75 1753.58,1516.72 1756.54,1519.66 1759.5,1522.58 1762.47,1525.46 
  1765.44,1528.32 1768.42,1531.16 1771.41,1533.97 1774.4,1536.75 1777.39,1539.5 1780.39,1542.22 1783.4,1544.92 1786.42,1547.59 1789.44,1550.23 1792.47,1552.85 
  1795.5,1555.44 1798.54,1558 1801.59,1560.53 1804.65,1563.03 1807.71,1565.51 1810.78,1567.96 1813.86,1570.39 1816.95,1572.79 1820.04,1575.16 1823.15,1577.5 
  1826.26,1579.82 1829.38,1582.11 1832.51,1584.38 1835.65,1586.62 1838.8,1588.83 1841.95,1591.01 1845.12,1593.17 1848.29,1595.31 1851.48,1597.42 1854.67,1599.5 
  1857.87,1601.56 1861.08,1603.59 1864.31,1605.59 1867.54,1607.57 1870.78,1609.53 1874.03,1611.46 1877.29,1613.36 1880.57,1615.24 1883.85,1617.09 1887.14,1618.92 
  1890.44,1620.72 1893.75,1622.5 1897.08,1624.25 1900.41,1625.98 1903.75,1627.68 1907.11,1629.36 1910.47,1631.02 1913.85,1632.65 1917.23,1634.25 1920.63,1635.83 
  1924.03,1637.39 1927.45,1638.92 1930.87,1640.42 1934.31,1641.91 1937.76,1643.37 1941.22,1644.8 1944.68,1646.21 1948.16,1647.6 1951.65,1648.96 1955.15,1650.3 
  1958.66,1651.61 1962.18,1652.9 1965.71,1654.17 1969.25,1655.41 1972.8,1656.63 1976.36,1657.83 1979.93,1659 1983.5,1660.15 1987.09,1661.27 1990.69,1662.37 
  1994.3,1663.45 1997.92,1664.51 2001.54,1665.54 2005.18,1666.55 2008.83,1667.53 2012.48,1668.49 2016.14,1669.43 2019.82,1670.35 2023.5,1671.24 2027.19,1672.11 
  2030.88,1672.96 2034.59,1673.78 2038.31,1674.58 2042.03,1675.36 2045.76,1676.12 2049.5,1676.85 2053.24,1677.56 2057,1678.25 2060.76,1678.91 2064.52,1679.55 
  2068.3,1680.17 2072.08,1680.77 2075.87,1681.34 2079.66,1681.89 2083.46,1682.42 2087.27,1682.93 2091.08,1683.41 2094.9,1683.87 2098.72,1684.31 2102.55,1684.73 
  2106.38,1685.12 2110.22,1685.5 2114.06,1685.85 2117.91,1686.17 2121.76,1686.48 2125.62,1686.76 2129.48,1687.02 2133.34,1687.26 2137.21,1687.48 2141.08,1687.68 
  2144.95,1687.85 2148.82,1688 2152.7,1688.13 2156.58,1688.24 2160.46,1688.32 2164.34,1688.39 2168.23,1688.43 2172.11,1688.45 2176,1688.45 2179.88,1688.42 
  2183.77,1688.38 2187.65,1688.31 2191.53,1688.22 2195.42,1688.11 2199.3,1687.97 2203.18,1687.82 2207.06,1687.64 2210.94,1687.44 2214.81,1687.22 2218.69,1686.98 
  2222.56,1686.71 2226.43,1686.43 2230.29,1686.12 2234.16,1685.79 2238.02,1685.44 2241.87,1685.06 2245.72,1684.67 2249.57,1684.25 2253.41,1683.81 2257.25,1683.35 
  2261.08,1682.86 2264.91,1682.36 2268.74,1681.83 2272.55,1681.28 2276.37,1680.71 2280.17,1680.12 2283.97,1679.51 2287.77,1678.87 2291.56,1678.21 2295.34,1677.53 
  2299.11,1676.83 2302.88,1676.11 2306.64,1675.36 2310.39,1674.59 2314.14,1673.81 2317.87,1672.99 2321.6,1672.16 2325.32,1671.3 2329.04,1670.43 2332.74,1669.53 
  2336.44,1668.61 2340.12,1667.66 2343.8,1666.7 2347.47,1665.71 2351.13,1664.7 2354.78,1663.67 2358.42,1662.61 2362.05,1661.54 2365.67,1660.44 2369.28,1659.32 
  2372.88,1658.18 2376.46,1657.01 2380.04,1655.82 2383.61,1654.61 2387.17,1653.38 2390.71,1652.13 2394.25,1650.85 2397.77,1649.55 2401.28,1648.23 2404.78,1646.89 
  2408.27,1645.52 2411.75,1644.13 2415.21,1642.72 2418.66,1641.29 2422.1,1639.83 2425.53,1638.35 2428.94,1636.85 2432.35,1635.33 2435.74,1633.78 2439.11,1632.21 
  2442.48,1630.62 2445.83,1629.01 2449.17,1627.37 2452.49,1625.71 2455.8,1624.03 2459.1,1622.32 2462.38,1620.59 2465.65,1618.84 2468.91,1617.07 2472.15,1615.27 
  2475.38,1613.45 2478.6,1611.6 2481.8,1609.74 2484.99,1607.85 2488.16,1605.93 2491.31,1604 2494.46,1602.04 2497.58,1600.06 2500.7,1598.06 2503.79,1596.03 
  2506.88,1593.98 2509.94,1591.91 2513,1589.81 2516.04,1587.69 2519.06,1585.54 2522.07,1583.38 2525.06,1581.19 2528.04,1578.97 2531,1576.74 2533.95,1574.47 
  2536.88,1572.19 2539.8,1569.88 2542.7,1567.55 2545.59,1565.19 2548.46,1562.81 2551.31,1560.41 2554.15,1557.98 2556.98,1555.53 2559.79,1553.06 2562.58,1550.56 
  2565.36,1548.04 2568.12,1545.49 2570.87,1542.92 2573.6,1540.33 2576.31,1537.71 2579.01,1535.07 2581.69,1532.4 2584.36,1529.71 2587.01,1527 2589.65,1524.26 
  2592.27,1521.5 2594.87,1518.71 2597.46,1515.9 2600.03,1513.07 2602.59,1510.21 2605.13,1507.33 2607.65,1504.42 2610.16,1501.49 2612.65,1498.54 2615.12,1495.56 
  2617.58,1492.56 2620.02,1489.53 2622.45,1486.48 2624.86,1483.41 2627.25,1480.32 2629.62,1477.19 2631.98,1474.05 2634.33,1470.88 2636.65,1467.69 2638.96,1464.48 
  2641.25,1461.24 2643.53,1457.98 2645.79,1454.69 2648.03,1451.38 2650.26,1448.05 2652.47,1444.69 2654.66,1441.31 2656.83,1437.91 2658.99,1434.48 2661.13,1431.04 
  2663.26,1427.56 2665.36,1424.07 2667.45,1420.55 2669.53,1417.01 2671.58,1413.44 2673.62,1409.86 2675.64,1406.25 2677.65,1402.62 2679.63,1398.96 2681.6,1395.28 
  2683.55,1391.58 2685.49,1387.86 2687.41,1384.11 2689.31,1380.35 2691.19,1376.56 2693.05,1372.75 2694.9,1368.91 2696.73,1365.06 2698.54,1361.18 2700.34,1357.28 
  2702.11,1353.36 2703.87,1349.42 2705.61,1345.46 2707.34,1341.47 2709.04,1337.46 2710.73,1333.44 2712.4,1329.39 2714.05,1325.32 2715.69,1321.23 2717.31,1317.12 
  2718.9,1312.98 2720.48,1308.83 2722.05,1304.66 2723.59,1300.46 2725.12,1296.25 2726.63,1292.02 2728.12,1287.76 2729.59,1283.49 2731.04,1279.2 2732.48,1274.88 
  2733.89,1270.55 2735.29,1266.2 2736.67,1261.83 2738.04,1257.44 2739.38,1253.03 2740.71,1248.6 2742.01,1244.16 2743.3,1239.69 2744.57,1235.21 2745.82,1230.71 
  2747.06,1226.19 2748.27,1221.65 2749.47,1217.09 2750.64,1212.52 2751.8,1207.93 2752.94,1203.32 2754.06,1198.7 2755.16,1194.06 2756.25,1189.4 2757.31,1184.72 
  2758.36,1180.03 2759.38,1175.32 2760.39,1170.59 2761.38,1165.85 2762.35,1161.1 2763.3,1156.32 2764.24,1151.53 2765.15,1146.73 2766.05,1141.91 2766.93,1137.07 
  2767.8,1132.23 2768.64,1127.36 2769.47,1122.49 2770.29,1117.6 2771.09,1112.69 2771.87,1107.78 2772.64,1102.85 2773.39,1097.91 2774.13,1092.96 2774.85,1088 
  2775.56,1083.03 2776.26,1078.05 2776.94,1073.05 2777.61,1068.05 2778.27,1063.04 2778.92,1058.02 2779.55,1052.99 2780.17,1047.95 2780.78,1042.91 2781.38,1037.86 
  2781.97,1032.8 2782.55,1027.73 2783.12,1022.66 2783.68,1017.58 2784.23,1012.5 2784.77,1007.41 2785.31,1002.31 2785.83,997.215 2786.35,992.112 2786.86,987.005 
  2787.36,981.894 2787.86,976.781 2788.35,971.664 2788.84,966.546 2789.32,961.425 2789.79,956.302 2790.26,951.179 2790.73,946.054 2791.19,940.928 2791.65,935.803 
  2792.11,930.677 2792.57,925.552 2793.02,920.428 2793.47,915.305 2793.92,910.183 2794.37,905.064 2794.82,899.946 2795.27,894.832 2795.71,889.72 2796.16,884.612 
  2796.62,879.507 2797.07,874.407 2797.53,869.311 2797.99,864.219 2798.45,859.133 2798.91,854.053 2799.38,848.978 2799.86,843.909 2800.34,838.847 2800.82,833.792 
  2801.31,828.745 2801.81,823.705 2802.32,818.673 2802.83,813.649 2803.35,808.634 2803.88,803.629 2804.42,798.632 2804.96,793.646 2805.52,788.67 2806.09,783.704 
  2806.67,778.749 2807.26,773.806 2807.86,768.874 2808.47,763.954 2809.1,759.047 2809.74,754.152 2810.39,749.27 2811.06,744.402 2811.75,739.547 2812.45,734.707 
  2813.16,729.881 2813.9,725.07 2814.65,720.274 2815.41,715.494 2816.2,710.73 2817.01,705.982 2817.83,701.25 2818.67,696.536 2819.54,691.839 2820.43,687.16 
  2821.33,682.499 2822.26,677.856 2823.22,673.233 2824.19,668.628 2825.19,664.043 2826.22,659.478 2827.27,654.933 2828.34,650.408 2829.44,645.905 2830.57,641.423 
  2831.73,636.963 2832.91,632.524 2834.12,628.108 2835.37,623.715 2836.64,619.345 2837.94,614.996 2839.26,610.67 2840.62,606.367 2842.01,602.087 2843.42,597.829 
  2844.87,593.595 2846.34,589.384 2847.85,585.196 2849.39,581.033 2850.96,576.893 2852.56,572.777 2854.2,568.686 2855.86,564.619 2857.56,560.576 2859.29,556.559 
  2861.06,552.566 2862.85,548.598 2864.69,544.656 2866.55,540.739 2868.45,536.848 2870.39,532.982 2872.36,529.142 2874.36,525.329 2876.4,521.541 2878.48,517.78 
  2880.59,514.045 2882.74,510.337 2884.92,506.655 2887.14,503 2889.4,499.372 2891.69,495.772 2894.02,492.198 2896.39,488.652 2898.8,485.134 2901.24,481.642 
  2903.72,478.179 2906.24,474.744 2908.79,471.336 2911.38,467.956 2914.02,464.605 2916.69,461.282 2919.4,457.987 2922.14,454.72 2924.93,451.482 2927.75,448.273 
  2930.62,445.092 2933.52,441.941 2936.46,438.818 2939.44,435.724 2942.46,432.659 2945.52,429.623 2948.62,426.617 2951.76,423.639 2954.94,420.691 2958.16,417.773 
  2961.41,414.884 2964.71,412.024 2968.05,409.194 2971.42,406.394 2974.84,403.624 2978.29,400.883 2981.79,398.172 2985.32,395.491 2988.9,392.84 2992.51,390.219 
  2996.16,387.628 2999.85,385.067 3003.59,382.535 3007.36,380.035 3011.17,377.564 3015.02,375.123 3018.91,372.713 3022.84,370.333 3026.8,367.983 3030.81,365.663 
  
  "/>
<polyline clip-path="url(#clip452)" style="stroke:#ff0000; stroke-linecap:round; stroke-linejoin:round; stroke-width:4; stroke-opacity:1; fill:none" points="
  471.638,783.466 472.438,783.902 473.257,784.332 474.092,784.756 474.943,785.174 475.81,785.585 476.692,785.988 477.586,786.384 478.494,786.772 479.413,787.152 
  480.344,787.522 481.284,787.884 482.233,788.236 483.19,788.578 484.155,788.909 485.125,789.23 486.101,789.541 487.081,789.84 488.064,790.127 489.049,790.403 
  490.036,790.666 491.023,790.918 492.009,791.156 492.994,791.382 493.976,791.595 494.954,791.794 495.928,791.981 496.896,792.153 497.858,792.312 498.812,792.456 
  499.757,792.587 500.693,792.703 501.619,792.805 502.534,792.892 503.436,792.965 504.326,793.023 505.201,793.067 506.062,793.096 506.906,793.11 507.735,793.109 
  508.546,793.094 509.339,793.063 510.112,793.018 510.867,792.959 511.6,792.885 512.313,792.796 513.003,792.692 513.671,792.575 514.316,792.443 514.937,792.297 
  515.533,792.137 516.104,791.963 516.649,791.776 517.169,791.575 517.661,791.361 518.126,791.134 518.564,790.894 518.973,790.642 519.354,790.377 519.706,790.1 
  520.028,789.811 520.321,789.511 520.584,789.2 520.817,788.878 521.019,788.545 521.191,788.202 521.332,787.85 521.442,787.487 521.522,787.116 521.57,786.736 
  521.587,786.347 521.572,785.95 521.527,785.546 521.45,785.134 521.343,784.716 521.204,784.291 521.035,783.86 520.835,783.424 520.605,782.982 520.345,782.536 
  520.054,782.086 519.734,781.631 519.385,781.174 519.007,780.714 518.6,780.251 518.165,779.786 517.702,779.32 517.212,778.853 516.695,778.385 516.152,777.917 
  515.583,777.449 514.989,776.983 514.37,776.517 513.728,776.054 513.062,775.592 512.373,775.133 511.662,774.678 510.931,774.226 510.178,773.778 509.406,773.334 
  508.615,772.896 507.805,772.463 506.978,772.036 506.135,771.615 505.276,771.2 504.401,770.793 503.513,770.393 502.612,770.001 501.698,769.617 500.773,769.242 
  499.838,768.876 498.893,768.519 497.94,768.172 496.979,767.836 496.011,767.509 495.038,767.193 494.06,766.889 493.079,766.596 492.094,766.314 491.108,766.044 
  490.121,765.787 489.134,765.542 488.149,765.31 487.165,765.09 486.185,764.884 485.209,764.691 484.238,764.512 483.273,764.346 482.315,764.195 481.365,764.057 
  480.424,763.934 479.493,763.825 478.573,763.73 477.664,763.65 476.768,763.584 475.886,763.533 475.017,763.497 474.165,763.476 473.328,763.469 472.508,763.477 
  471.706,763.5 470.923,763.538 470.159,763.59 469.415,763.657 468.691,763.738 467.99,763.834 467.31,763.945 466.654,764.07 466.021,764.209 465.413,764.362 
  464.829,764.528 464.271,764.709 463.738,764.903 463.232,765.111 462.754,765.331 462.302,765.565 461.879,765.811 461.484,766.07 461.117,766.34 460.78,766.623 
  460.472,766.917 460.194,767.223 459.946,767.54 459.729,767.867 459.542,768.205 459.385,768.553 459.259,768.911 459.165,769.278 459.101,769.654 459.069,770.038 
  459.067,770.431 459.097,770.831 459.158,771.24 459.25,771.655 459.373,772.076 459.527,772.504 459.711,772.938 459.927,773.377 460.172,773.821 460.447,774.269 
  460.753,774.721 461.087,775.177 461.451,775.636 461.844,776.098 462.265,776.562 462.714,777.027 463.19,777.494 463.694,777.962 464.224,778.43 464.78,778.897 
  465.361,779.365 465.968,779.831 466.599,780.295 467.253,780.758 467.93,781.218 468.63,781.675 469.351,782.129 470.094,782.579 470.856,783.025 471.638,783.466 
  
  "/>
<polyline clip-path="url(#clip452)" style="stroke:#ff0000; stroke-linecap:round; stroke-linejoin:round; stroke-width:4; stroke-opacity:1; fill:none" points="
  452.951,788.641 454.552,789.513 456.188,790.373 457.859,791.222 459.562,792.058 461.295,792.879 463.058,793.687 464.848,794.479 466.663,795.254 468.501,796.013 
  470.362,796.755 472.242,797.477 474.141,798.181 476.055,798.865 477.984,799.528 479.925,800.171 481.877,800.791 483.836,801.389 485.803,801.964 487.774,802.515 
  489.747,803.043 491.721,803.545 493.693,804.022 495.663,804.474 497.626,804.9 499.583,805.299 501.53,805.671 503.467,806.016 505.39,806.333 507.298,806.622 
  509.189,806.883 511.061,807.116 512.913,807.32 514.742,807.494 516.547,807.64 518.326,807.757 520.077,807.844 521.798,807.901 523.487,807.929 525.144,807.928 
  526.766,807.897 528.352,807.837 529.9,807.747 531.408,807.627 532.875,807.479 534.3,807.301 535.681,807.095 537.017,806.859 538.307,806.596 539.548,806.304 
  540.741,805.984 541.883,805.636 542.974,805.262 544.012,804.86 544.997,804.432 545.927,803.978 546.802,803.498 547.621,802.993 548.382,802.464 549.086,801.91 
  549.731,801.333 550.317,800.733 550.843,800.11 551.308,799.466 551.713,798.8 552.057,798.115 552.339,797.409 552.559,796.684 552.718,795.941 552.814,795.181 
  552.848,794.403 552.819,793.61 552.729,792.801 552.576,791.978 552.361,791.141 552.084,790.292 551.745,789.43 551.346,788.557 550.885,787.674 550.364,786.782 
  549.784,785.881 549.144,784.973 548.445,784.058 547.688,783.137 546.875,782.211 546.005,781.282 545.079,780.349 544.099,779.415 543.065,778.479 541.979,777.543 
  540.841,776.608 539.653,775.675 538.415,774.744 537.13,773.817 535.798,772.894 534.421,771.977 533,771.065 531.536,770.162 530.031,769.266 528.487,768.379 
  526.904,767.502 525.285,766.636 523.631,765.781 521.944,764.939 520.226,764.11 518.478,763.295 516.701,762.496 514.899,761.712 513.071,760.944 511.222,760.194 
  509.351,759.462 507.461,758.749 505.555,758.055 503.633,757.381 501.697,756.728 499.751,756.097 497.795,755.487 495.832,754.901 493.863,754.338 491.891,753.798 
  489.917,753.283 487.943,752.793 485.972,752.329 484.005,751.89 482.045,751.478 480.093,751.092 478.151,750.734 476.221,750.403 474.305,750.099 472.405,749.824 
  470.523,749.577 468.661,749.359 466.82,749.17 465.003,749.009 463.211,748.878 461.446,748.776 459.71,748.704 458.004,748.661 456.331,748.648 454.691,748.664 
  453.087,748.71 451.52,748.785 449.992,748.89 448.504,749.024 447.057,749.187 445.654,749.379 444.296,749.6 442.983,749.849 441.717,750.127 440.5,750.433 
  439.332,750.767 438.216,751.128 437.151,751.516 436.139,751.931 435.182,752.372 434.279,752.839 433.432,753.332 432.642,753.849 431.909,754.391 431.235,754.956 
  430.619,755.545 430.063,756.156 429.568,756.79 429.132,757.445 428.758,758.12 428.445,758.816 428.194,759.531 428.004,760.265 427.877,761.017 427.812,761.786 
  427.809,762.572 427.869,763.373 427.991,764.189 428.175,765.019 428.421,765.862 428.729,766.718 429.098,767.585 429.528,768.463 430.018,769.351 430.569,770.248 
  431.18,771.152 431.849,772.064 432.577,772.982 433.362,773.906 434.204,774.833 435.102,775.764 436.055,776.698 437.062,777.633 438.122,778.569 439.234,779.505 
  440.398,780.439 441.611,781.371 442.872,782.3 444.181,783.225 445.536,784.146 446.935,785.06 448.378,785.968 449.862,786.868 451.387,787.759 452.951,788.641 
  
  "/>
<circle clip-path="url(#clip452)" cx="490.325" cy="778.29" r="10.8" fill="#ff0000" fill-rule="evenodd" fill-opacity="1" stroke="#000000" stroke-opacity="1" stroke-width="3.84"/>
<polyline clip-path="url(#clip452)" style="stroke:#ff0000; stroke-linecap:round; stroke-linejoin:round; stroke-width:4; stroke-opacity:1; fill:none" points="
  946.488,638.515 947.892,640.249 949.315,641.979 950.755,643.703 952.211,645.419 953.682,647.126 955.166,648.822 956.662,650.505 958.168,652.174 959.682,653.826 
  961.204,655.461 962.731,657.077 964.262,658.671 965.796,660.243 967.331,661.79 968.866,663.312 970.398,664.807 971.927,666.273 973.451,667.709 974.968,669.113 
  976.477,670.484 977.977,671.821 979.465,673.122 980.941,674.386 982.403,675.612 983.85,676.799 985.279,677.944 986.69,679.048 988.081,680.109 989.451,681.126 
  990.799,682.098 992.123,683.025 993.421,683.904 994.693,684.735 995.938,685.518 997.153,686.252 998.338,686.935 999.492,687.568 1000.61,688.149 1001.7,688.679 
  1002.75,689.156 1003.77,689.58 1004.75,689.95 1005.69,690.267 1006.6,690.529 1007.46,690.737 1008.28,690.891 1009.07,690.99 1009.81,691.034 1010.5,691.024 
  1011.16,690.958 1011.77,690.838 1012.33,690.663 1012.85,690.433 1013.33,690.15 1013.75,689.812 1014.13,689.421 1014.47,688.976 1014.75,688.479 1014.99,687.929 
  1015.18,687.328 1015.32,686.675 1015.42,685.972 1015.46,685.219 1015.46,684.417 1015.41,683.567 1015.31,682.669 1015.16,681.725 1014.96,680.735 1014.72,679.701 
  1014.43,678.623 1014.09,677.503 1013.7,676.341 1013.27,675.139 1012.79,673.898 1012.26,672.62 1011.69,671.304 1011.08,669.954 1010.42,668.57 1009.71,667.153 
  1008.97,665.705 1008.18,664.228 1007.35,662.722 1006.48,661.19 1005.57,659.633 1004.63,658.052 1003.64,656.45 1002.62,654.826 1001.56,653.185 1000.47,651.525 
  999.346,649.851 998.188,648.163 996.999,646.462 995.78,644.751 994.532,643.032 993.257,641.305 991.955,639.574 990.628,637.838 989.277,636.101 987.904,634.364 
  986.511,632.628 985.097,630.896 983.665,629.168 982.217,627.448 980.753,625.736 979.276,624.034 977.786,622.345 976.285,620.669 974.774,619.008 973.256,617.364 
  971.732,615.739 970.202,614.134 968.669,612.55 967.135,610.99 965.6,609.455 964.066,607.947 962.535,606.466 961.009,605.015 959.488,603.595 957.974,602.207 
  956.47,600.853 954.976,599.534 953.493,598.251 952.024,597.006 950.57,595.8 949.132,594.633 947.711,593.509 946.31,592.426 944.929,591.387 943.57,590.392 
  942.234,589.443 940.923,588.54 939.638,587.685 938.379,586.877 937.149,586.119 935.949,585.41 934.779,584.752 933.642,584.145 932.537,583.589 931.467,583.086 
  930.432,582.636 929.434,582.239 928.472,581.895 927.549,581.605 926.665,581.37 925.821,581.189 925.018,581.063 924.257,580.991 923.538,580.974 922.862,581.012 
  922.231,581.105 921.643,581.253 921.101,581.455 920.604,581.712 920.154,582.023 919.75,582.387 919.393,582.805 919.083,583.276 918.821,583.8 918.606,584.375 
  918.44,585.002 918.322,585.68 918.253,586.408 918.231,587.186 918.259,588.012 918.335,588.886 918.459,589.807 918.631,590.774 918.851,591.786 919.12,592.843 
  919.436,593.942 919.799,595.083 920.209,596.265 920.665,597.487 921.168,598.747 921.716,600.044 922.309,601.377 922.946,602.744 923.628,604.145 924.352,605.577 
  925.119,607.04 925.927,608.532 926.776,610.051 927.665,611.595 928.593,613.165 929.559,614.757 930.563,616.37 931.602,618.002 932.677,619.653 933.786,621.32 
  934.927,623.002 936.101,624.696 937.305,626.402 938.539,628.117 939.801,629.841 941.089,631.57 942.404,633.304 943.743,635.041 945.105,636.778 946.488,638.515 
  
  "/>
<polyline clip-path="url(#clip452)" style="stroke:#ff0000; stroke-linecap:round; stroke-linejoin:round; stroke-width:4; stroke-opacity:1; fill:none" points="
  926.127,641.024 928.935,644.493 931.78,647.953 934.661,651.401 937.573,654.834 940.515,658.247 943.483,661.639 946.474,665.005 949.486,668.343 952.515,671.648 
  955.558,674.917 958.613,678.148 961.675,681.337 964.743,684.481 967.813,687.576 970.882,690.62 973.947,693.609 977.005,696.541 980.052,699.413 983.087,702.221 
  986.105,704.963 989.105,707.637 992.082,710.239 995.034,712.768 997.957,715.219 1000.85,717.592 1003.71,719.884 1006.53,722.092 1009.31,724.214 1012.05,726.248 
  1014.75,728.192 1017.4,730.044 1019.99,731.803 1022.54,733.466 1025.03,735.032 1027.46,736.499 1029.83,737.866 1032.13,739.131 1034.38,740.294 1036.55,741.353 
  1038.66,742.306 1040.69,743.154 1042.65,743.895 1044.54,744.528 1046.34,745.053 1048.07,745.47 1049.72,745.777 1051.28,745.975 1052.76,746.064 1054.16,746.042 
  1055.47,745.911 1056.68,745.671 1057.81,745.321 1058.85,744.862 1059.8,744.294 1060.66,743.619 1061.42,742.836 1062.08,741.947 1062.66,740.952 1063.13,739.853 
  1063.51,738.65 1063.8,737.345 1063.98,735.939 1064.08,734.433 1064.07,732.829 1063.97,731.129 1063.77,729.333 1063.47,727.445 1063.08,725.466 1062.59,723.397 
  1062,721.241 1061.32,719.001 1060.55,716.677 1059.68,714.273 1058.73,711.791 1057.67,709.234 1056.53,706.604 1055.3,703.903 1053.98,701.134 1052.58,698.301 
  1051.09,695.405 1049.51,692.451 1047.85,689.44 1046.12,686.375 1044.3,683.261 1042.4,680.099 1040.43,676.894 1038.39,673.648 1036.28,670.364 1034.09,667.046 
  1031.84,663.697 1029.53,660.32 1027.15,656.92 1024.71,653.498 1022.21,650.059 1019.66,646.606 1017.06,643.142 1014.41,639.671 1011.71,636.197 1008.96,632.722 
  1006.17,629.251 1003.35,625.786 1000.48,622.332 997.585,618.891 994.657,615.467 991.702,612.064 988.722,608.684 985.72,605.332 982.7,602.011 979.663,598.723 
  976.614,595.472 973.555,592.262 970.489,589.096 967.42,585.976 964.35,582.906 961.283,579.889 958.221,576.928 955.168,574.026 952.127,571.185 949.1,568.41 
  946.091,565.701 943.102,563.063 940.137,560.497 937.199,558.007 934.29,555.594 931.414,553.262 928.573,551.012 925.771,548.847 923.009,546.768 920.291,544.779 
  917.619,542.881 914.997,541.075 912.426,539.364 909.909,537.749 907.449,536.233 905.049,534.815 902.71,533.499 900.435,532.285 898.226,531.174 896.085,530.168 
  894.015,529.267 892.018,528.472 890.095,527.785 888.249,527.206 886.481,526.735 884.793,526.373 883.187,526.12 881.665,525.977 880.227,525.944 878.876,526.02 
  877.612,526.206 876.437,526.501 875.353,526.905 874.359,527.419 873.458,528.04 872.65,528.769 871.936,529.605 871.316,530.547 870.792,531.594 870.363,532.746 
  870.031,534 869.795,535.356 869.656,536.812 869.614,538.367 869.668,540.019 869.82,541.767 870.068,543.609 870.413,545.544 870.854,547.568 871.39,549.68 
  872.022,551.879 872.748,554.161 873.568,556.525 874.481,558.968 875.486,561.488 876.583,564.082 877.769,566.748 879.044,569.483 880.406,572.285 881.855,575.149 
  883.388,578.075 885.005,581.058 886.703,584.096 888.481,587.186 890.337,590.324 892.269,593.508 894.276,596.734 896.355,600 898.505,603.301 900.722,606.635 
  903.006,609.998 905.353,613.387 907.761,616.799 910.228,620.23 912.752,623.676 915.33,627.135 917.959,630.603 920.636,634.076 923.36,637.551 926.127,641.024 
  
  "/>
<circle clip-path="url(#clip452)" cx="966.849" cy="636.005" r="10.8" fill="#ff0000" fill-rule="evenodd" fill-opacity="1" stroke="#000000" stroke-opacity="1" stroke-width="3.84"/>
<polyline clip-path="url(#clip452)" style="stroke:#ff0000; stroke-linecap:round; stroke-linejoin:round; stroke-width:4; stroke-opacity:1; fill:none" points="
  1411.38,1091.01 1412.65,1094.33 1413.94,1097.64 1415.27,1100.95 1416.61,1104.24 1417.99,1107.52 1419.38,1110.78 1420.8,1114.02 1422.23,1117.24 1423.68,1120.42 
  1425.15,1123.58 1426.64,1126.7 1428.14,1129.79 1429.65,1132.83 1431.17,1135.83 1432.7,1138.79 1434.24,1141.69 1435.79,1144.55 1437.34,1147.35 1438.89,1150.09 
  1440.44,1152.77 1442,1155.38 1443.55,1157.93 1445.1,1160.42 1446.65,1162.83 1448.19,1165.17 1449.72,1167.43 1451.24,1169.61 1452.75,1171.72 1454.25,1173.74 
  1455.74,1175.68 1457.21,1177.53 1458.66,1179.3 1460.1,1180.97 1461.52,1182.55 1462.91,1184.05 1464.28,1185.44 1465.63,1186.74 1466.96,1187.94 1468.26,1189.05 
  1469.53,1190.05 1470.77,1190.96 1471.98,1191.76 1473.16,1192.47 1474.31,1193.06 1475.42,1193.56 1476.5,1193.95 1477.54,1194.24 1478.55,1194.42 1479.51,1194.5 
  1480.44,1194.47 1481.33,1194.34 1482.18,1194.1 1482.99,1193.76 1483.75,1193.32 1484.47,1192.77 1485.15,1192.12 1485.78,1191.36 1486.37,1190.51 1486.91,1189.55 
  1487.41,1188.49 1487.86,1187.34 1488.26,1186.08 1488.62,1184.73 1488.92,1183.29 1489.18,1181.75 1489.39,1180.12 1489.55,1178.4 1489.66,1176.59 1489.72,1174.69 
  1489.74,1172.71 1489.7,1170.64 1489.62,1168.49 1489.49,1166.27 1489.3,1163.97 1489.07,1161.59 1488.79,1159.14 1488.47,1156.62 1488.09,1154.04 1487.67,1151.39 
  1487.2,1148.68 1486.68,1145.91 1486.12,1143.08 1485.51,1140.2 1484.86,1137.27 1484.16,1134.29 1483.42,1131.26 1482.64,1128.2 1481.81,1125.09 1480.95,1121.95 
  1480.04,1118.78 1479.09,1115.58 1478.11,1112.35 1477.09,1109.1 1476.03,1105.83 1474.93,1102.54 1473.81,1099.24 1472.64,1095.93 1471.45,1092.61 1470.23,1089.29 
  1468.97,1085.97 1467.69,1082.65 1466.38,1079.34 1465.04,1076.04 1463.68,1072.76 1462.3,1069.48 1460.9,1066.23 1459.47,1063.01 1458.03,1059.8 1456.56,1056.63 
  1455.09,1053.49 1453.59,1050.39 1452.09,1047.32 1450.57,1044.3 1449.05,1041.32 1447.51,1038.39 1445.97,1035.51 1444.42,1032.68 1442.87,1029.91 1441.31,1027.2 
  1439.76,1024.55 1438.21,1021.97 1436.65,1019.45 1435.11,1017.01 1433.56,1014.63 1432.03,1012.33 1430.5,1010.11 1428.98,1007.96 1427.48,1005.9 1425.98,1003.92 
  1424.5,1002.02 1423.04,1000.21 1421.6,998.492 1420.17,996.863 1418.76,995.326 1417.38,993.882 1416.02,992.534 1414.68,991.282 1413.37,990.128 1412.09,989.073 
  1410.83,988.117 1409.6,987.263 1408.41,986.51 1407.24,985.86 1406.11,985.313 1405.02,984.869 1403.96,984.53 1402.93,984.295 1401.95,984.165 1401,984.14 
  1400.09,984.219 1399.22,984.403 1398.39,984.692 1397.6,985.085 1396.86,985.582 1396.16,986.183 1395.51,986.886 1394.9,987.692 1394.33,988.598 1393.81,989.605 
  1393.34,990.712 1392.91,991.916 1392.54,993.218 1392.21,994.616 1391.92,996.108 1391.69,997.693 1391.5,999.369 1391.37,1001.14 1391.28,1002.99 1391.24,1004.93 
  1391.25,1006.95 1391.31,1009.06 1391.42,1011.25 1391.58,1013.51 1391.79,1015.85 1392.04,1018.26 1392.34,1020.75 1392.7,1023.3 1393.1,1025.91 1393.54,1028.6 
  1394.03,1031.34 1394.57,1034.14 1395.16,1036.99 1395.79,1039.9 1396.46,1042.85 1397.18,1045.86 1397.95,1048.9 1398.75,1051.99 1399.6,1055.11 1400.48,1058.27 
  1401.41,1061.45 1402.37,1064.67 1403.38,1067.91 1404.42,1071.17 1405.5,1074.45 1406.61,1077.75 1407.75,1081.05 1408.93,1084.37 1410.14,1087.69 1411.38,1091.01 
  
  "/>
<polyline clip-path="url(#clip452)" style="stroke:#ff0000; stroke-linecap:round; stroke-linejoin:round; stroke-width:4; stroke-opacity:1; fill:none" points="
  1382.27,1092.69 1384.8,1099.33 1387.4,1105.96 1390.04,1112.57 1392.74,1119.16 1395.48,1125.72 1398.27,1132.24 1401.1,1138.72 1403.97,1145.15 1406.88,1151.53 
  1409.82,1157.84 1412.79,1164.09 1415.78,1170.26 1418.81,1176.34 1421.85,1182.35 1424.91,1188.26 1427.99,1194.07 1431.08,1199.78 1434.18,1205.37 1437.29,1210.85 
  1440.4,1216.21 1443.51,1221.45 1446.61,1226.55 1449.71,1231.51 1452.8,1236.34 1455.88,1241.01 1458.95,1245.54 1461.99,1249.91 1465.02,1254.12 1468.01,1258.16 
  1470.99,1262.04 1473.93,1265.75 1476.84,1269.27 1479.71,1272.62 1482.54,1275.79 1485.33,1278.77 1488.08,1281.56 1490.78,1284.16 1493.43,1286.57 1496.02,1288.78 
  1498.56,1290.79 1501.04,1292.6 1503.47,1294.21 1505.83,1295.61 1508.12,1296.81 1510.35,1297.8 1512.51,1298.58 1514.59,1299.16 1516.6,1299.52 1518.54,1299.68 
  1520.4,1299.62 1522.17,1299.36 1523.87,1298.89 1525.49,1298.2 1527.01,1297.31 1528.46,1296.22 1529.81,1294.91 1531.08,1293.4 1532.25,1291.69 1533.34,1289.78 
  1534.33,1287.66 1535.23,1285.35 1536.03,1282.85 1536.74,1280.15 1537.35,1277.26 1537.87,1274.18 1538.29,1270.92 1538.61,1267.47 1538.83,1263.85 1538.96,1260.06 
  1538.99,1256.09 1538.92,1251.96 1538.75,1247.67 1538.48,1243.22 1538.12,1238.62 1537.65,1233.86 1537.1,1228.97 1536.44,1223.93 1535.69,1218.76 1534.85,1213.46 
  1533.91,1208.04 1532.87,1202.5 1531.75,1196.84 1530.53,1191.08 1529.23,1185.22 1527.83,1179.26 1526.35,1173.21 1524.79,1167.08 1523.14,1160.87 1521.4,1154.59 
  1519.59,1148.24 1517.7,1141.84 1515.73,1135.38 1513.68,1128.88 1511.57,1122.34 1509.38,1115.76 1507.12,1109.16 1504.8,1102.54 1502.41,1095.91 1499.96,1089.26 
  1497.45,1082.62 1494.89,1075.99 1492.27,1069.37 1489.6,1062.77 1486.88,1056.19 1484.11,1049.65 1481.3,1043.15 1478.45,1036.69 1475.56,1030.29 1472.64,1023.94 
  1469.68,1017.67 1466.7,1011.46 1463.69,1005.33 1460.66,999.28 1457.6,993.323 1454.53,987.462 1451.45,981.702 1448.35,976.049 1445.25,970.51 1442.14,965.089 
  1439.03,959.791 1435.92,954.623 1432.82,949.589 1429.72,944.694 1426.63,939.944 1423.56,935.342 1420.51,930.894 1417.47,926.604 1414.46,922.476 1411.48,918.514 
  1408.52,914.723 1405.59,911.106 1402.7,907.666 1399.85,904.407 1397.04,901.333 1394.27,898.446 1391.55,895.749 1388.87,893.246 1386.25,890.937 1383.68,888.827 
  1381.17,886.916 1378.72,885.207 1376.33,883.702 1374,882.401 1371.74,881.307 1369.54,880.42 1367.42,879.742 1365.37,879.272 1363.4,879.011 1361.5,878.961 
  1359.68,879.12 1357.95,879.488 1356.29,880.066 1354.72,880.852 1353.23,881.846 1351.83,883.047 1350.52,884.454 1349.3,886.064 1348.17,887.878 1347.13,889.892 
  1346.19,892.105 1345.34,894.514 1344.58,897.118 1343.92,899.913 1343.36,902.897 1342.89,906.067 1342.52,909.42 1342.25,912.952 1342.07,916.659 1341.99,920.539 
  1342.02,924.587 1342.14,928.8 1342.35,933.172 1342.67,937.7 1343.08,942.379 1343.59,947.204 1344.2,952.172 1344.9,957.276 1345.7,962.511 1346.59,967.873 
  1347.58,973.356 1348.66,978.955 1349.83,984.663 1351.09,990.476 1352.44,996.388 1353.88,1002.39 1355.4,1008.48 1357.01,1014.65 1358.7,1020.9 1360.47,1027.21 
  1362.33,1033.59 1364.26,1040.02 1366.27,1046.5 1368.35,1053.02 1370.5,1059.58 1372.72,1066.17 1375.01,1072.79 1377.37,1079.41 1379.79,1086.05 1382.27,1092.69 
  
  "/>
<circle clip-path="url(#clip452)" cx="1440.49" cy="1089.32" r="10.8" fill="#ff0000" fill-rule="evenodd" fill-opacity="1" stroke="#000000" stroke-opacity="1" stroke-width="3.84"/>
<polyline clip-path="url(#clip452)" style="stroke:#ff0000; stroke-linecap:round; stroke-linejoin:round; stroke-width:4; stroke-opacity:1; fill:none" points="
  1926.21,1653.86 1924.57,1655.74 1923.01,1657.63 1921.52,1659.52 1920.09,1661.42 1918.74,1663.31 1917.46,1665.21 1916.26,1667.11 1915.13,1669 1914.08,1670.88 
  1913.1,1672.76 1912.21,1674.62 1911.39,1676.48 1910.66,1678.32 1910.01,1680.15 1909.44,1681.95 1908.95,1683.74 1908.54,1685.51 1908.22,1687.26 1907.98,1688.98 
  1907.83,1690.68 1907.76,1692.34 1907.78,1693.98 1907.88,1695.59 1908.06,1697.17 1908.33,1698.71 1908.68,1700.21 1909.11,1701.68 1909.63,1703.11 1910.23,1704.5 
  1910.91,1705.85 1911.67,1707.15 1912.52,1708.41 1913.44,1709.63 1914.44,1710.79 1915.52,1711.92 1916.68,1712.99 1917.91,1714.01 1919.21,1714.98 1920.59,1715.9 
  1922.04,1716.77 1923.56,1717.58 1925.15,1718.34 1926.8,1719.04 1928.52,1719.68 1930.31,1720.27 1932.15,1720.81 1934.06,1721.28 1936.02,1721.7 1938.04,1722.06 
  1940.11,1722.36 1942.24,1722.6 1944.42,1722.78 1946.64,1722.9 1948.91,1722.96 1951.22,1722.96 1953.58,1722.9 1955.97,1722.78 1958.4,1722.6 1960.86,1722.36 
  1963.35,1722.06 1965.87,1721.71 1968.42,1721.29 1971,1720.82 1973.59,1720.29 1976.2,1719.7 1978.83,1719.05 1981.47,1718.35 1984.12,1717.6 1986.79,1716.78 
  1989.45,1715.92 1992.12,1715 1994.79,1714.03 1997.46,1713.01 2000.12,1711.94 2002.77,1710.82 2005.42,1709.65 2008.05,1708.44 2010.66,1707.18 2013.26,1705.88 
  2015.84,1704.53 2018.39,1703.14 2020.91,1701.71 2023.41,1700.25 2025.88,1698.74 2028.31,1697.2 2030.71,1695.63 2033.07,1694.02 2035.39,1692.38 2037.66,1690.72 
  2039.89,1689.02 2042.08,1687.3 2044.21,1685.55 2046.29,1683.79 2048.32,1682 2050.29,1680.19 2052.21,1678.36 2054.06,1676.52 2055.85,1674.67 2057.58,1672.8 
  2059.25,1670.93 2060.84,1669.04 2062.37,1667.15 2063.83,1665.26 2065.22,1663.36 2066.54,1661.46 2067.78,1659.57 2068.95,1657.67 2070.04,1655.79 2071.05,1653.9 
  2071.98,1652.03 2072.84,1650.17 2073.61,1648.32 2074.31,1646.49 2074.92,1644.67 2075.45,1642.87 2075.89,1641.09 2076.26,1639.34 2076.54,1637.6 2076.73,1635.89 
  2076.84,1634.21 2076.87,1632.56 2076.81,1630.93 2076.67,1629.34 2076.45,1627.78 2076.14,1626.26 2075.75,1624.77 2075.27,1623.33 2074.71,1621.92 2074.07,1620.55 
  2073.35,1619.22 2072.54,1617.94 2071.66,1616.7 2070.7,1615.51 2069.66,1614.36 2068.54,1613.27 2067.35,1612.22 2066.08,1611.22 2064.74,1610.28 2063.32,1609.39 
  2061.84,1608.55 2060.29,1607.76 2058.66,1607.03 2056.98,1606.36 2055.22,1605.74 2053.41,1605.18 2051.53,1604.67 2049.6,1604.23 2047.61,1603.84 2045.56,1603.51 
  2043.46,1603.24 2041.31,1603.03 2039.11,1602.88 2036.86,1602.79 2034.57,1602.76 2032.24,1602.79 2029.86,1602.88 2027.45,1603.03 2025.01,1603.24 2022.53,1603.5 
  2020.02,1603.83 2017.48,1604.22 2014.92,1604.66 2012.34,1605.16 2009.74,1605.72 2007.12,1606.34 2004.48,1607.01 2001.83,1607.74 1999.18,1608.53 1996.51,1609.37 
  1993.84,1610.26 1991.17,1611.2 1988.5,1612.2 1985.84,1613.24 1983.18,1614.34 1980.53,1615.48 1977.89,1616.67 1975.27,1617.91 1972.67,1619.19 1970.08,1620.52 
  1967.51,1621.88 1964.98,1623.29 1962.46,1624.74 1959.98,1626.23 1957.53,1627.75 1955.11,1629.31 1952.74,1630.9 1950.4,1632.52 1948.1,1634.17 1945.85,1635.85 
  1943.64,1637.56 1941.48,1639.3 1939.37,1641.05 1937.32,1642.83 1935.32,1644.63 1933.37,1646.45 1931.49,1648.28 1929.67,1650.13 1927.9,1651.99 1926.21,1653.86 
  
  "/>
<polyline clip-path="url(#clip452)" style="stroke:#ff0000; stroke-linecap:round; stroke-linejoin:round; stroke-width:4; stroke-opacity:1; fill:none" points="
  1860.1,1644.86 1856.84,1648.62 1853.71,1652.39 1850.72,1656.18 1847.87,1659.97 1845.16,1663.77 1842.61,1667.56 1840.2,1671.35 1837.94,1675.13 1835.84,1678.9 
  1833.89,1682.65 1832.1,1686.39 1830.47,1690.09 1829,1693.78 1827.7,1697.43 1826.56,1701.05 1825.58,1704.63 1824.77,1708.16 1824.13,1711.65 1823.65,1715.1 
  1823.35,1718.49 1823.21,1721.83 1823.24,1725.1 1823.44,1728.32 1823.8,1731.47 1824.34,1734.55 1825.04,1737.56 1825.91,1740.5 1826.94,1743.36 1828.14,1746.13 
  1829.51,1748.83 1831.03,1751.44 1832.72,1753.96 1834.56,1756.39 1836.57,1758.73 1838.72,1760.97 1841.04,1763.11 1843.5,1765.16 1846.11,1767.1 1848.86,1768.94 
  1851.76,1770.67 1854.8,1772.29 1857.98,1773.81 1861.29,1775.21 1864.73,1776.51 1868.3,1777.69 1871.99,1778.75 1875.8,1779.7 1879.73,1780.53 1883.77,1781.25 
  1887.92,1781.85 1892.17,1782.33 1896.52,1782.69 1900.97,1782.93 1905.5,1783.05 1910.13,1783.05 1914.84,1782.93 1919.62,1782.7 1924.48,1782.34 1929.4,1781.86 
  1934.39,1781.27 1939.43,1780.55 1944.53,1779.72 1949.68,1778.78 1954.86,1777.71 1960.09,1776.54 1965.35,1775.25 1970.63,1773.84 1975.93,1772.33 1981.26,1770.71 
  1986.59,1768.98 1991.93,1767.14 1997.27,1765.2 2002.6,1763.16 2007.92,1761.02 2013.23,1758.78 2018.52,1756.45 2023.78,1754.02 2029.01,1751.5 2034.2,1748.89 
  2039.36,1746.2 2044.46,1743.42 2049.51,1740.57 2054.51,1737.63 2059.44,1734.62 2064.31,1731.54 2069.1,1728.39 2073.82,1725.18 2078.46,1721.9 2083.01,1718.57 
  2087.47,1715.18 2091.84,1711.74 2096.1,1708.25 2100.27,1704.71 2104.32,1701.13 2108.27,1697.52 2112.1,1693.86 2115.8,1690.18 2119.39,1686.47 2122.85,1682.74 
  2126.18,1678.99 2129.38,1675.22 2132.43,1671.44 2135.35,1667.65 2138.13,1663.86 2140.76,1660.06 2143.25,1656.27 2145.58,1652.48 2147.76,1648.71 2149.78,1644.95 
  2151.65,1641.2 2153.36,1637.48 2154.91,1633.79 2156.3,1630.12 2157.52,1626.48 2158.58,1622.88 2159.47,1619.33 2160.2,1615.81 2160.76,1612.34 2161.15,1608.92 
  2161.37,1605.56 2161.43,1602.25 2161.31,1599.01 2161.03,1595.82 2160.58,1592.71 2159.96,1589.66 2159.18,1586.69 2158.22,1583.79 2157.11,1580.97 2155.82,1578.23 
  2154.38,1575.58 2152.77,1573.02 2151.01,1570.54 2149.08,1568.16 2147,1565.87 2144.77,1563.67 2142.38,1561.58 2139.84,1559.59 2137.16,1557.7 2134.33,1555.91 
  2131.36,1554.23 2128.26,1552.66 2125.01,1551.2 2121.64,1549.85 2118.13,1548.61 2114.5,1547.49 2110.75,1546.48 2106.88,1545.59 2102.9,1544.82 2098.8,1544.16 
  2094.6,1543.62 2090.3,1543.2 2085.9,1542.9 2081.4,1542.72 2076.82,1542.66 2072.16,1542.72 2067.41,1542.9 2062.59,1543.19 2057.7,1543.61 2052.74,1544.15 
  2047.73,1544.8 2042.65,1545.57 2037.53,1546.46 2032.36,1547.47 2027.16,1548.59 2021.92,1549.82 2016.65,1551.17 2011.35,1552.63 2006.04,1554.19 2000.71,1555.87 
  1995.37,1557.65 1990.03,1559.54 1984.69,1561.53 1979.37,1563.62 1974.05,1565.81 1968.75,1568.1 1963.48,1570.48 1958.23,1572.96 1953.02,1575.52 1947.84,1578.17 
  1942.72,1580.9 1937.64,1583.72 1932.61,1586.62 1927.65,1589.59 1922.75,1592.63 1917.91,1595.75 1913.16,1598.93 1908.48,1602.17 1903.88,1605.48 1899.38,1608.84 
  1894.96,1612.26 1890.65,1615.73 1886.43,1619.24 1882.32,1622.8 1878.32,1626.4 1874.43,1630.03 1870.66,1633.7 1867.02,1637.39 1863.49,1641.11 1860.1,1644.86 
  
  "/>
<circle clip-path="url(#clip452)" cx="1992.31" cy="1662.86" r="10.8" fill="#ff0000" fill-rule="evenodd" fill-opacity="1" stroke="#000000" stroke-opacity="1" stroke-width="3.84"/>
<polyline clip-path="url(#clip452)" style="stroke:#ff0000; stroke-linecap:round; stroke-linejoin:round; stroke-width:4; stroke-opacity:1; fill:none" points="
  2630.11,1429.37 2629.1,1435.54 2628.13,1441.7 2627.19,1447.86 2626.28,1453.99 2625.41,1460.11 2624.58,1466.19 2623.78,1472.24 2623.03,1478.24 2622.3,1484.2 
  2621.62,1490.1 2620.98,1495.94 2620.38,1501.72 2619.82,1507.43 2619.3,1513.06 2618.83,1518.61 2618.39,1524.06 2618,1529.43 2617.66,1534.7 2617.36,1539.86 
  2617.1,1544.91 2616.88,1549.85 2616.71,1554.67 2616.59,1559.36 2616.51,1563.93 2616.48,1568.36 2616.49,1572.66 2616.54,1576.81 2616.64,1580.82 2616.79,1584.67 
  2616.98,1588.37 2617.21,1591.92 2617.49,1595.3 2617.81,1598.52 2618.18,1601.57 2618.59,1604.45 2619.04,1607.16 2619.54,1609.69 2620.08,1612.04 2620.66,1614.21 
  2621.28,1616.2 2621.94,1618 2622.64,1619.61 2623.37,1621.04 2624.15,1622.27 2624.96,1623.32 2625.82,1624.17 2626.7,1624.82 2627.62,1625.29 2628.58,1625.56 
  2629.57,1625.63 2630.59,1625.51 2631.64,1625.19 2632.72,1624.68 2633.83,1623.98 2634.97,1623.08 2636.13,1621.99 2637.32,1620.71 2638.54,1619.24 2639.77,1617.58 
  2641.03,1615.74 2642.31,1613.71 2643.61,1611.49 2644.93,1609.1 2646.26,1606.53 2647.61,1603.78 2648.97,1600.86 2650.35,1597.76 2651.73,1594.51 2653.13,1591.08 
  2654.54,1587.5 2655.95,1583.76 2657.37,1579.87 2658.79,1575.82 2660.21,1571.64 2661.64,1567.31 2663.07,1562.84 2664.49,1558.25 2665.92,1553.52 2667.33,1548.67 
  2668.75,1543.71 2670.15,1538.63 2671.55,1533.44 2672.94,1528.15 2674.31,1522.76 2675.67,1517.28 2677.02,1511.71 2678.36,1506.07 2679.68,1500.34 2680.98,1494.55 
  2682.26,1488.69 2683.52,1482.77 2684.75,1476.8 2685.97,1470.79 2687.16,1464.73 2688.32,1458.64 2689.46,1452.52 2690.57,1446.38 2691.66,1440.22 2692.71,1434.06 
  2693.73,1427.89 2694.72,1421.72 2695.68,1415.56 2696.6,1409.41 2697.49,1403.29 2698.34,1397.19 2699.15,1391.12 2699.93,1385.09 2700.67,1379.11 2701.37,1373.18 
  2702.03,1367.31 2702.65,1361.5 2703.23,1355.75 2703.77,1350.09 2704.27,1344.5 2704.73,1338.99 2705.14,1333.58 2705.5,1328.26 2705.83,1323.05 2706.11,1317.94 
  2706.35,1312.95 2706.54,1308.07 2706.68,1303.31 2706.79,1298.68 2706.84,1294.18 2706.86,1289.81 2706.82,1285.59 2706.74,1281.51 2706.62,1277.58 2706.45,1273.8 
  2706.24,1270.17 2705.98,1266.71 2705.68,1263.41 2705.34,1260.27 2704.95,1257.3 2704.52,1254.51 2704.04,1251.89 2703.53,1249.45 2702.97,1247.19 2702.37,1245.11 
  2701.73,1243.22 2701.05,1241.51 2700.33,1239.99 2699.57,1238.66 2698.78,1237.52 2697.95,1236.57 2697.08,1235.82 2696.17,1235.26 2695.23,1234.89 2694.26,1234.72 
  2693.26,1234.75 2692.22,1234.96 2691.16,1235.38 2690.06,1235.98 2688.94,1236.78 2687.78,1237.78 2686.61,1238.96 2685.41,1240.34 2684.18,1241.9 2682.93,1243.66 
  2681.66,1245.59 2680.37,1247.72 2679.06,1250.02 2677.74,1252.5 2676.4,1255.17 2675.04,1258 2673.67,1261.01 2672.29,1264.18 2670.9,1267.53 2669.5,1271.03 
  2668.09,1274.69 2666.67,1278.51 2665.25,1282.48 2663.83,1286.59 2662.4,1290.85 2660.98,1295.25 2659.55,1299.78 2658.13,1304.44 2656.71,1309.23 2655.29,1314.14 
  2653.88,1319.16 2652.48,1324.29 2651.09,1329.53 2649.71,1334.87 2648.34,1340.31 2646.98,1345.83 2645.64,1351.44 2644.31,1357.13 2643,1362.89 2641.71,1368.71 
  2640.44,1374.6 2639.19,1380.55 2637.97,1386.54 2636.76,1392.57 2635.59,1398.65 2634.43,1404.75 2633.31,1410.89 2632.21,1417.04 2631.14,1423.2 2630.11,1429.37 
  
  "/>
<polyline clip-path="url(#clip452)" style="stroke:#ff0000; stroke-linecap:round; stroke-linejoin:round; stroke-width:4; stroke-opacity:1; fill:none" points="
  2598.55,1428.57 2596.54,1440.91 2594.59,1453.24 2592.71,1465.55 2590.9,1477.82 2589.16,1490.04 2587.5,1502.21 2585.9,1514.3 2584.38,1526.31 2582.94,1538.23 
  2581.58,1550.03 2580.3,1561.72 2579.1,1573.28 2577.98,1584.69 2576.94,1595.95 2575.99,1607.04 2575.12,1617.96 2574.34,1628.69 2573.65,1639.22 2573.05,1649.55 
  2572.53,1659.65 2572.1,1669.53 2571.76,1679.16 2571.51,1688.55 2571.35,1697.69 2571.28,1706.55 2571.31,1715.14 2571.42,1723.45 2571.62,1731.46 2571.91,1739.17 
  2572.29,1746.58 2572.76,1753.67 2573.32,1760.44 2573.96,1766.87 2574.7,1772.98 2575.52,1778.74 2576.42,1784.15 2577.41,1789.21 2578.49,1793.91 2579.65,1798.25 
  2580.89,1802.23 2582.21,1805.83 2583.6,1809.06 2585.08,1811.91 2586.64,1814.38 2588.26,1816.46 2589.97,1818.16 2591.74,1819.48 2593.58,1820.4 2595.49,1820.94 
  2597.47,1821.09 2599.51,1820.85 2601.61,1820.22 2603.77,1819.2 2605.99,1817.79 2608.27,1816 2610.6,1813.82 2612.98,1811.26 2615.41,1808.32 2617.88,1805 
  2620.4,1801.31 2622.96,1797.24 2625.55,1792.82 2628.19,1788.03 2630.86,1782.88 2633.55,1777.39 2636.28,1771.54 2639.03,1765.36 2641.8,1758.84 2644.6,1752 
  2647.41,1744.83 2650.23,1737.35 2653.07,1729.56 2655.91,1721.48 2658.76,1713.1 2661.62,1704.45 2664.47,1695.52 2667.32,1686.32 2670.16,1676.87 2673,1667.18 
  2675.83,1657.24 2678.64,1647.08 2681.43,1636.71 2684.21,1626.13 2686.96,1615.35 2689.68,1604.39 2692.38,1593.26 2695.05,1581.96 2697.69,1570.51 2700.29,1558.92 
  2702.85,1547.21 2705.36,1535.37 2707.84,1523.44 2710.27,1511.41 2712.65,1499.29 2714.98,1487.11 2717.26,1474.88 2719.48,1462.59 2721.65,1450.28 2723.75,1437.94 
  2725.79,1425.6 2727.77,1413.26 2729.68,1400.94 2731.53,1388.65 2733.31,1376.4 2735.01,1364.2 2736.64,1352.07 2738.2,1340.02 2739.68,1328.06 2741.08,1316.19 
  2742.4,1304.45 2743.64,1292.82 2744.8,1281.34 2745.88,1270 2746.88,1258.82 2747.78,1247.82 2748.61,1236.99 2749.34,1226.36 2749.99,1215.93 2750.55,1205.71 
  2751.03,1195.72 2751.41,1185.96 2751.7,1176.45 2751.91,1167.19 2752.02,1158.19 2752.05,1149.46 2751.98,1141.01 2751.82,1132.85 2751.58,1124.98 2751.24,1117.42 
  2750.82,1110.18 2750.3,1103.25 2749.7,1096.64 2749.01,1090.37 2748.24,1084.44 2747.37,1078.85 2746.42,1073.61 2745.39,1068.73 2744.27,1064.21 2743.08,1060.05 
  2741.8,1056.27 2740.44,1052.85 2739,1049.81 2737.48,1047.15 2735.89,1044.87 2734.22,1042.98 2732.49,1041.47 2730.68,1040.35 2728.8,1039.62 2726.86,1039.27 
  2724.85,1039.32 2722.78,1039.76 2720.65,1040.58 2718.45,1041.8 2716.21,1043.4 2713.9,1045.38 2711.55,1047.75 2709.15,1050.51 2706.69,1053.64 2704.2,1057.14 
  2701.66,1061.02 2699.08,1065.26 2696.46,1069.87 2693.81,1074.84 2691.13,1080.16 2688.42,1085.83 2685.68,1091.85 2682.92,1098.2 2680.13,1104.88 2677.33,1111.89 
  2674.51,1119.21 2671.68,1126.85 2668.84,1134.78 2665.99,1143.01 2663.14,1151.53 2660.29,1160.32 2657.44,1169.39 2654.59,1178.71 2651.75,1188.29 2648.92,1198.1 
  2646.1,1208.15 2643.29,1218.42 2640.51,1228.89 2637.75,1239.57 2635.01,1250.44 2632.29,1261.49 2629.61,1272.71 2626.96,1284.08 2624.34,1295.6 2621.76,1307.26 
  2619.22,1319.03 2616.72,1330.92 2614.27,1342.91 2611.86,1354.98 2609.51,1367.13 2607.2,1379.34 2604.95,1391.6 2602.76,1403.9 2600.62,1416.23 2598.55,1428.57 
  
  "/>
<circle clip-path="url(#clip452)" cx="2661.67" cy="1430.17" r="10.8" fill="#ff0000" fill-rule="evenodd" fill-opacity="1" stroke="#000000" stroke-opacity="1" stroke-width="3.84"/>
<polyline clip-path="url(#clip452)" style="stroke:#ff0000; stroke-linecap:round; stroke-linejoin:round; stroke-width:4; stroke-opacity:1; fill:none" points="
  2954.91,345.792 2947.85,349.965 2940.86,354.154 2933.97,358.355 2927.18,362.563 2920.49,366.774 2913.9,370.984 2907.44,375.188 2901.1,379.383 2894.88,383.564 
  2888.81,387.728 2882.87,391.869 2877.08,395.985 2871.45,400.07 2865.97,404.121 2860.66,408.133 2855.52,412.103 2850.55,416.027 2845.76,419.901 2841.16,423.721 
  2836.74,427.482 2832.52,431.182 2828.5,434.817 2824.68,438.383 2821.06,441.877 2817.65,445.294 2814.46,448.632 2811.48,451.887 2808.72,455.057 2806.18,458.137 
  2803.86,461.125 2801.77,464.018 2799.91,466.813 2798.28,469.507 2796.89,472.098 2795.72,474.582 2794.79,476.958 2794.09,479.223 2793.63,481.375 2793.41,483.411 
  2793.42,485.33 2793.67,487.13 2794.16,488.808 2794.88,490.364 2795.84,491.796 2797.03,493.102 2798.46,494.281 2800.11,495.331 2802,496.253 2804.11,497.044 
  2806.45,497.704 2809.02,498.233 2811.8,498.629 2814.8,498.893 2818.02,499.024 2821.45,499.022 2825.09,498.887 2828.94,498.62 2832.98,498.22 2837.23,497.688 
  2841.66,497.024 2846.29,496.229 2851.1,495.304 2856.08,494.25 2861.24,493.067 2866.58,491.758 2872.07,490.323 2877.72,488.764 2883.53,487.082 2889.48,485.279 
  2895.57,483.356 2901.8,481.317 2908.16,479.162 2914.64,476.894 2921.23,474.515 2927.93,472.028 2934.74,469.434 2941.64,466.737 2948.63,463.94 2955.71,461.044 
  2962.85,458.053 2970.07,454.971 2977.35,451.799 2984.67,448.541 2992.05,445.201 2999.46,441.781 3006.91,438.286 3014.38,434.718 3021.86,431.082 3029.36,427.38 
  3036.85,423.616 3044.34,419.795 3051.82,415.92 3059.27,411.995 3066.7,408.023 3074.09,404.01 3081.44,399.958 3088.74,395.872 3095.98,391.756 3103.15,387.614 
  3110.26,383.45 3117.28,379.268 3124.22,375.072 3131.06,370.868 3137.81,366.658 3144.44,362.447 3150.97,358.239 3157.37,354.039 3163.65,349.85 3169.8,345.677 
  3175.8,341.524 3181.67,337.395 3187.38,333.295 3192.94,329.226 3198.33,325.194 3203.56,321.202 3208.61,317.255 3213.49,313.355 3218.19,309.508 3222.7,305.717 
  3227.02,301.986 3231.14,298.318 3235.06,294.717 3238.78,291.187 3242.29,287.731 3245.6,284.353 3248.68,281.056 3251.55,277.843 3254.2,274.718 3256.63,271.683 
  3258.83,268.742 3260.81,265.898 3262.55,263.153 3264.07,260.511 3265.35,257.973 3266.4,255.542 3267.21,253.222 3267.79,251.013 3268.13,248.919 3268.24,246.941 
  3268.1,245.081 3267.74,243.342 3267.13,241.724 3266.29,240.23 3265.22,238.861 3263.91,237.619 3262.37,236.504 3260.6,235.518 3258.6,234.662 3256.37,233.936 
  3253.92,233.341 3251.24,232.879 3248.35,232.548 3245.24,232.351 3241.91,232.286 3238.38,232.355 3234.63,232.556 3230.69,232.89 3226.54,233.356 3222.2,233.954 
  3217.67,234.683 3212.95,235.543 3208.06,236.533 3202.98,237.651 3197.73,238.897 3192.32,240.27 3186.75,241.767 3181.02,243.388 3175.14,245.131 3169.11,246.994 
  3162.95,248.975 3156.66,251.072 3150.24,253.284 3143.7,255.608 3137.05,258.041 3130.3,260.582 3123.44,263.227 3116.5,265.975 3109.46,268.822 3102.35,271.765 
  3095.17,274.803 3087.92,277.93 3080.62,281.145 3073.27,284.445 3065.87,287.825 3058.44,291.283 3050.98,294.815 3043.5,298.418 3036.01,302.087 3028.52,305.821 
  3021.02,309.613 3013.54,313.462 3006.07,317.363 2998.63,321.311 2991.22,325.304 2983.85,329.338 2976.53,333.407 2969.26,337.509 2962.05,341.638 2954.91,345.792 
  
  "/>
<polyline clip-path="url(#clip452)" style="stroke:#ff0000; stroke-linecap:round; stroke-linejoin:round; stroke-width:4; stroke-opacity:1; fill:none" points="
  2879.01,325.921 2864.88,334.268 2850.92,342.646 2837.13,351.047 2823.54,359.463 2810.16,367.884 2797,376.304 2784.07,384.713 2771.38,393.103 2758.95,401.466 
  2746.8,409.793 2734.93,418.076 2723.35,426.306 2712.08,434.477 2701.13,442.578 2690.5,450.604 2680.22,458.544 2670.28,466.392 2660.71,474.139 2651.5,481.778 
  2642.67,489.302 2634.23,496.702 2626.18,503.972 2618.54,511.103 2611.31,518.09 2604.49,524.925 2598.1,531.601 2592.14,538.112 2586.62,544.45 2581.55,550.611 
  2576.92,556.587 2572.74,562.373 2569.02,567.963 2565.76,573.351 2562.96,578.532 2560.63,583.501 2558.77,588.253 2557.37,592.783 2556.46,597.086 2556.01,601.159 
  2556.03,604.997 2556.53,608.596 2557.51,611.954 2558.95,615.065 2560.87,617.929 2563.25,620.54 2566.1,622.898 2569.41,624.999 2573.18,626.842 2577.41,628.424 
  2582.09,629.745 2587.22,630.802 2592.79,631.595 2598.8,632.123 2605.23,632.385 2612.1,632.381 2619.38,632.112 2627.06,631.577 2635.16,630.777 2643.64,629.712 
  2652.51,628.384 2661.76,626.795 2671.38,624.945 2681.35,622.837 2691.68,620.472 2702.34,617.853 2713.33,614.983 2724.63,611.865 2736.24,608.501 2748.15,604.894 
  2760.33,601.05 2772.79,596.971 2785.5,592.661 2798.46,588.125 2811.65,583.367 2825.06,578.392 2838.67,573.205 2852.47,567.812 2866.46,562.216 2880.6,556.425 
  2894.9,550.444 2909.33,544.278 2923.88,537.935 2938.54,531.42 2953.29,524.739 2968.12,517.9 2983.01,510.909 2997.94,503.773 3012.92,496.5 3027.9,489.096 
  3042.9,481.57 3057.87,473.927 3072.83,466.177 3087.74,458.327 3102.59,450.384 3117.37,442.357 3132.07,434.253 3146.67,426.081 3161.14,417.849 3175.49,409.564 
  3189.7,401.236 3203.75,392.873 3217.62,384.482 3231.31,376.073 3244.8,367.653 3258.07,359.231 3271.12,350.816 3283.93,342.415 3296.49,334.038 3308.78,325.692 
  3320.8,317.386 3332.52,309.128 3343.95,300.926 3355.06,292.789 3365.85,284.725 3376.31,276.741 3386.42,268.846 3396.17,261.048 3405.57,253.353 3414.59,245.771 
  3423.22,238.308 3431.47,230.972 3439.31,223.771 3446.75,216.711 3453.78,209.799 3460.38,203.043 3466.55,196.449 3472.29,190.023 3477.59,183.773 3482.45,177.703 
  3486.85,171.822 3490.8,166.133 3494.29,160.644 3497.32,155.358 3499.89,150.283 3501.98,145.422 3503.61,140.78 3504.77,136.363 3505.45,132.174 3505.66,128.219 
  3505.4,124.499 3504.66,121.02 3503.45,117.786 3501.77,114.798 3499.62,112.06 3497.01,109.575 3493.93,107.345 3490.38,105.373 3486.38,103.66 3481.93,102.209 
  3477.02,101.02 3471.67,100.094 3465.88,99.4339 3459.66,99.0388 3453.01,98.9095 3445.94,99.0461 3438.45,99.4485 3430.56,100.116 3422.27,101.049 3413.59,102.245 
  3404.53,103.704 3395.1,105.424 3385.3,107.403 3375.15,109.64 3364.66,112.132 3353.83,114.877 3342.68,117.871 3331.22,121.113 3319.46,124.598 3307.42,128.324 
  3295.09,132.287 3282.51,136.482 3269.67,140.905 3256.6,145.553 3243.3,150.419 3229.79,155.501 3216.08,160.792 3202.18,166.287 3188.11,171.981 3173.89,177.868 
  3159.53,183.942 3145.03,190.197 3130.43,196.628 3115.72,203.226 3100.93,209.987 3086.07,216.903 3071.15,223.967 3056.2,231.172 3041.22,238.512 3026.22,245.978 
  3011.24,253.564 2996.27,261.261 2981.33,269.062 2966.45,276.96 2951.63,284.946 2936.89,293.012 2922.24,301.151 2907.7,309.354 2893.29,317.614 2879.01,325.921 
  
  "/>
<circle clip-path="url(#clip452)" cx="3030.81" cy="365.663" r="10.8" fill="#ff0000" fill-rule="evenodd" fill-opacity="1" stroke="#000000" stroke-opacity="1" stroke-width="3.84"/>
</svg>
