<?xml version="1.0" encoding="utf-8"?>
<svg xmlns="http://www.w3.org/2000/svg" xmlns:xlink="http://www.w3.org/1999/xlink" width="960" height="480" viewBox="0 0 3840 1920">
<defs>
  <clipPath id="clip300">
    <rect x="0" y="0" width="3840" height="1920"/>
  </clipPath>
</defs>
<path clip-path="url(#clip300)" d="
M0 1920 L3840 1920 L3840 0 L0 0  Z
  " fill="#ffffff" fill-rule="evenodd" fill-opacity="1"/>
<defs>
  <clipPath id="clip301">
    <rect x="768" y="0" width="2689" height="1920"/>
  </clipPath>
</defs>
<path clip-path="url(#clip300)" d="
M47.2441 1872.76 L3792.76 1872.76 L3792.76 47.2441 L47.2441 47.2441  Z
  " fill="#ffffff" fill-rule="evenodd" fill-opacity="1"/>
<defs>
  <clipPath id="clip302">
    <rect x="47" y="47" width="3747" height="1827"/>
  </clipPath>
</defs>
<polyline clip-path="url(#clip302)" style="stroke:#000000; stroke-linecap:round; stroke-linejoin:round; stroke-width:4; stroke-opacity:1; fill:none" points="
  225.602,1393.31 226.494,1390.28 227.386,1387.24 228.277,1384.2 229.167,1381.16 230.057,1378.11 230.947,1375.05 231.836,1371.99 232.724,1368.92 233.613,1365.85 
  234.501,1362.77 235.389,1359.69 236.277,1356.6 237.165,1353.51 238.053,1350.41 238.942,1347.3 239.83,1344.19 240.718,1341.08 241.607,1337.96 242.496,1334.84 
  243.386,1331.71 244.276,1328.58 245.166,1325.44 246.057,1322.3 246.949,1319.15 247.841,1316 248.734,1312.85 249.628,1309.69 250.522,1306.52 251.418,1303.36 
  252.314,1300.18 253.212,1297.01 254.11,1293.83 255.01,1290.64 255.911,1287.46 256.813,1284.26 257.716,1281.07 258.621,1277.87 259.527,1274.67 260.435,1271.46 
  261.344,1268.25 262.254,1265.04 263.167,1261.82 264.08,1258.6 264.996,1255.38 265.913,1252.15 266.832,1248.92 267.753,1245.69 268.676,1242.46 269.601,1239.22 
  270.528,1235.98 271.456,1232.73 272.387,1229.49 273.32,1226.24 274.256,1222.99 275.193,1219.74 276.133,1216.48 277.075,1213.22 278.02,1209.96 278.967,1206.7 
  279.916,1203.43 280.868,1200.17 281.822,1196.9 282.779,1193.63 283.739,1190.36 284.702,1187.08 285.667,1183.81 286.635,1180.53 287.605,1177.25 288.579,1173.97 
  289.555,1170.69 290.535,1167.41 291.517,1164.13 292.503,1160.84 293.491,1157.56 294.483,1154.27 295.477,1150.98 296.475,1147.7 297.476,1144.41 298.481,1141.12 
  299.488,1137.83 300.499,1134.54 301.514,1131.25 302.531,1127.96 303.552,1124.67 304.577,1121.38 305.605,1118.09 306.636,1114.79 307.671,1111.5 308.71,1108.21 
  309.752,1104.92 310.798,1101.63 311.848,1098.34 312.901,1095.05 313.958,1091.76 315.019,1088.48 316.084,1085.19 317.152,1081.9 318.224,1078.62 319.301,1075.33 
  320.381,1072.05 321.465,1068.77 322.553,1065.49 323.644,1062.21 324.74,1058.93 325.84,1055.65 326.944,1052.38 328.052,1049.1 329.164,1045.83 330.281,1042.56 
  331.401,1039.29 332.526,1036.03 333.654,1032.76 334.787,1029.5 335.924,1026.24 337.066,1022.99 338.212,1019.73 339.361,1016.48 340.516,1013.23 341.674,1009.98 
  342.837,1006.74 344.004,1003.49 345.176,1000.25 346.352,997.018 347.532,993.785 348.717,990.555 349.907,987.328 351.1,984.104 352.298,980.884 353.501,977.667 
  354.708,974.453 355.92,971.244 357.136,968.037 358.356,964.835 359.582,961.636 360.811,958.442 362.045,955.251 363.284,952.064 364.527,948.882 365.775,945.704 
  367.028,942.53 368.285,939.36 369.547,936.195 370.813,933.034 372.084,929.878 373.359,926.727 374.639,923.581 375.924,920.439 377.214,917.302 378.508,914.17 
  379.806,911.044 381.11,907.922 382.418,904.806 383.73,901.695 385.048,898.589 386.37,895.489 387.697,892.394 389.028,889.305 390.364,886.222 391.705,883.144 
  393.05,880.072 394.401,877.006 395.755,873.946 397.115,870.892 398.479,867.844 399.848,864.802 401.222,861.766 402.6,858.737 403.983,855.714 405.371,852.698 
  406.764,849.688 408.161,846.685 409.563,843.688 410.97,840.698 412.381,837.715 413.797,834.739 415.218,831.769 416.643,828.807 418.073,825.852 419.508,822.904 
  420.947,819.963 422.391,817.029 423.84,814.103 425.294,811.184 426.752,808.273 428.215,805.369 429.682,802.473 431.154,799.584 432.631,796.703 434.113,793.83 
  435.599,790.965 437.089,788.107 438.584,785.258 440.084,782.417 441.589,779.584 443.098,776.759 444.612,773.942 446.13,771.133 447.653,768.333 449.18,765.542 
  450.712,762.758 452.249,759.983 453.79,757.217 455.336,754.46 456.886,751.711 458.441,748.971 460,746.239 461.564,743.517 463.133,740.803 464.706,738.099 
  466.283,735.403 467.865,732.717 469.451,730.04 471.042,727.371 472.637,724.712 474.237,722.063 475.841,719.423 477.45,716.792 479.063,714.17 480.681,711.558 
  482.303,708.956 483.929,706.363 485.56,703.78 487.195,701.206 488.834,698.642 490.478,696.089 492.126,693.544 493.779,691.01 495.435,688.486 497.097,685.971 
  498.762,683.467 500.432,680.973 502.106,678.489 503.784,676.015 505.467,673.551 507.154,671.097 508.845,668.654 510.54,666.221 512.24,663.798 513.944,661.386 
  515.652,658.984 517.364,656.593 519.08,654.212 520.801,651.842 522.526,649.483 524.255,647.134 525.988,644.795 527.725,642.468 529.466,640.151 531.212,637.845 
  532.961,635.55 534.715,633.266 536.473,630.993 538.234,628.731 540,626.479 541.77,624.239 543.544,622.01 545.322,619.792 547.104,617.585 548.889,615.389 
  550.679,613.204 552.473,611.03 554.271,608.868 556.073,606.717 557.878,604.578 559.688,602.449 561.501,600.333 563.318,598.227 565.14,596.133 566.965,594.051 
  568.794,591.979 570.626,589.92 572.463,587.872 574.303,585.835 576.148,583.811 577.996,581.797 579.847,579.796 581.703,577.806 583.562,575.828 585.425,573.862 
  587.292,571.907 589.162,569.964 591.036,568.033 592.914,566.114 594.795,564.206 596.68,562.311 598.569,560.427 600.461,558.555 602.357,556.696 604.257,554.848 
  606.16,553.012 608.066,551.188 609.976,549.377 611.89,547.577 613.807,545.79 615.728,544.014 617.652,542.251 619.58,540.5 621.511,538.761 623.446,537.035 
  625.384,535.32 627.325,533.618 629.27,531.928 631.218,530.251 633.17,528.585 635.125,526.932 637.083,525.291 639.045,523.663 641.01,522.047 642.978,520.443 
  644.949,518.851 646.924,517.272 648.902,515.706 650.883,514.151 652.867,512.609 654.855,511.08 656.845,509.563 658.839,508.058 660.836,506.566 662.836,505.087 
  664.84,503.62 666.846,502.165 668.855,500.723 670.868,499.294 672.883,497.877 674.901,496.472 676.923,495.08 678.947,493.701 680.975,492.335 683.005,490.981 
  685.038,489.639 687.074,488.311 689.113,486.994 691.155,485.691 693.2,484.4 695.247,483.122 697.298,481.857 699.351,480.604 701.407,479.364 703.466,478.137 
  705.527,476.923 707.591,475.721 709.658,474.532 711.728,473.356 713.8,472.192 715.875,471.042 717.952,469.904 720.032,468.779 722.115,467.667 724.2,466.567 
  726.288,465.481 728.378,464.407 730.471,463.346 732.566,462.298 734.664,461.263 736.764,460.241 738.867,459.232 740.972,458.236 743.079,457.252 745.189,456.282 
  747.301,455.324 749.415,454.379 751.532,453.448 753.651,452.529 755.772,451.623 757.895,450.73 760.021,449.851 762.149,448.984 764.279,448.13 766.411,447.289 
  768.546,446.461 770.682,445.646 772.821,444.845 774.961,444.056 777.104,443.28 779.248,442.517 781.395,441.768 783.544,441.031 785.694,440.308 787.847,439.597 
  790.001,438.9 792.158,438.216 794.316,437.544 796.476,436.886 798.638,436.241 800.801,435.609 802.967,434.991 805.134,434.385 807.303,433.792 809.473,433.213 
  811.645,432.647 813.819,432.093 815.995,431.553 818.172,431.026 820.351,430.513 822.531,430.012 824.713,429.525 826.896,429.05 829.081,428.589 831.268,428.141 
  833.455,427.706 835.645,427.285 837.835,426.876 840.027,426.481 842.221,426.099 844.415,425.73 846.611,425.374 848.808,425.032 851.007,424.702 853.207,424.386 
  855.407,424.083 857.609,423.793 859.813,423.517 862.017,423.253 864.222,423.003 866.429,422.766 868.637,422.543 870.845,422.332 873.055,422.135 875.265,421.951 
  877.477,421.78 879.689,421.622 881.902,421.478 884.117,421.346 886.332,421.228 888.548,421.124 890.765,421.032 892.983,420.953 895.201,420.888 897.421,420.836 
  899.641,420.797 901.862,420.772 904.083,420.76 906.305,420.761 908.528,420.775 910.752,420.803 912.976,420.844 915.201,420.898 917.426,420.965 919.652,421.046 
  921.878,421.14 924.105,421.248 926.332,421.368 928.559,421.502 930.787,421.65 933.016,421.811 935.244,421.985 937.474,422.172 939.703,422.373 941.933,422.587 
  944.162,422.815 946.393,423.056 948.623,423.311 950.854,423.578 953.084,423.859 955.315,424.154 957.546,424.462 959.777,424.783 962.009,425.118 964.24,425.466 
  966.471,425.828 968.702,426.203 970.934,426.592 973.165,426.994 975.396,427.409 977.628,427.838 979.859,428.28 982.09,428.736 984.321,429.205 986.551,429.687 
  988.782,430.183 991.012,430.693 993.243,431.216 995.473,431.752 997.703,432.302 999.932,432.866 1002.16,433.442 1004.39,434.033 1006.62,434.637 1008.85,435.254 
  1011.08,435.884 1013.3,436.529 1015.53,437.186 1017.76,437.857 1019.98,438.542 1022.21,439.24 1024.44,439.952 1026.66,440.677 1028.89,441.415 1031.11,442.167 
  1033.33,442.933 1035.56,443.712 1037.78,444.504 1040,445.31 1042.22,446.13 1044.44,446.962 1046.66,447.809 1048.88,448.669 1051.1,449.542 1053.32,450.429 
  1055.54,451.329 1057.76,452.243 1059.97,453.17 1062.19,454.111 1064.4,455.065 1066.62,456.032 1068.83,457.013 1071.05,458.008 1073.26,459.016 1075.47,460.037 
  1077.68,461.072 1079.89,462.12 1082.1,463.182 1084.31,464.257 1086.51,465.346 1088.72,466.448 1090.93,467.564 1093.13,468.692 1095.34,469.835 1097.54,470.991 
  1099.74,472.16 1101.94,473.342 1104.14,474.538 1106.34,475.748 1108.54,476.971 1110.74,478.207 1112.94,479.456 1115.13,480.719 1117.33,481.996 1119.52,483.285 
  1121.71,484.589 1123.91,485.905 1126.1,487.235 1128.29,488.578 1130.48,489.935 1132.66,491.304 1134.85,492.688 1137.04,494.084 1139.22,495.494 1141.41,496.917 
  1143.59,498.354 1145.77,499.803 1147.95,501.266 1150.13,502.743 1152.31,504.232 1154.49,505.735 1156.67,507.251 1158.84,508.781 1161.02,510.323 1163.19,511.879 
  1165.36,513.448 1167.53,515.031 1169.7,516.626 1171.87,518.235 1174.04,519.857 1176.21,521.492 1178.37,523.141 1180.54,524.802 1182.7,526.477 1184.86,528.165 
  1187.02,529.866 1189.18,531.58 1191.34,533.307 1193.5,535.047 1195.66,536.801 1197.81,538.567 1199.97,540.347 1202.12,542.14 1204.27,543.945 1206.42,545.764 
  1208.57,547.596 1210.72,549.441 1212.87,551.299 1215.02,553.17 1217.16,555.054 1219.3,556.951 1221.45,558.861 1223.59,560.784 1225.73,562.72 1227.87,564.669 
  1230.01,566.631 1232.14,568.606 1234.28,570.593 1236.41,572.594 1238.55,574.607 1240.68,576.632 1242.81,578.671 1244.94,580.722 1247.07,582.786 1249.19,584.862 
  1251.32,586.951 1253.45,589.053 1255.57,591.167 1257.69,593.293 1259.81,595.432 1261.93,597.583 1264.05,599.747 1266.17,601.923 1268.29,604.111 1270.4,606.312 
  1272.52,608.524 1274.63,610.749 1276.74,612.986 1278.85,615.235 1280.96,617.496 1283.07,619.769 1285.18,622.054 1287.29,624.351 1289.39,626.66 1291.5,628.98 
  1293.6,631.313 1295.7,633.657 1297.8,636.012 1299.9,638.38 1302,640.759 1304.1,643.149 1306.19,645.551 1308.29,647.965 1310.38,650.389 1312.47,652.825 
  1314.57,655.273 1316.66,657.732 1318.74,660.201 1320.83,662.682 1322.92,665.174 1325,667.678 1327.09,670.192 1329.17,672.717 1331.25,675.252 1333.33,677.799 
  1335.41,680.357 1337.49,682.925 1339.57,685.503 1341.65,688.093 1343.72,690.692 1345.79,693.303 1347.87,695.923 1349.94,698.554 1352.01,701.196 1354.08,703.847 
  1356.14,706.509 1358.21,709.181 1360.27,711.862 1362.34,714.554 1364.4,717.256 1366.46,719.967 1368.52,722.689 1370.58,725.42 1372.64,728.16 1374.69,730.91 
  1376.75,733.67 1378.8,736.439 1380.86,739.217 1382.91,742.005 1384.96,744.802 1387.01,747.608 1389.05,750.424 1391.1,753.248 1393.14,756.081 1395.19,758.923 
  1397.23,761.774 1399.27,764.633 1401.31,767.502 1403.35,770.378 1405.38,773.264 1407.42,776.157 1409.45,779.059 1411.49,781.97 1413.52,784.888 1415.55,787.815 
  1417.58,790.749 1419.6,793.692 1421.63,796.642 1423.65,799.601 1425.68,802.567 1427.7,805.54 1429.72,808.521 1431.74,811.51 1433.75,814.506 1435.77,817.509 
  1437.78,820.52 1439.8,823.537 1441.81,826.562 1443.82,829.593 1445.83,832.632 1447.83,835.677 1449.84,838.729 1451.84,841.788 1453.85,844.853 1455.85,847.924 
  1457.85,851.002 1459.84,854.086 1461.84,857.176 1463.83,860.272 1465.83,863.375 1467.82,866.483 1469.81,869.597 1471.8,872.716 1473.78,875.841 1475.77,878.972 
  1477.75,882.108 1479.73,885.249 1481.72,888.396 1483.69,891.548 1485.67,894.704 1487.65,897.866 1489.62,901.032 1491.59,904.203 1493.56,907.379 1495.53,910.559 
  1497.5,913.744 1499.46,916.933 1501.42,920.126 1503.38,923.324 1505.34,926.525 1507.3,929.73 1509.26,932.939 1511.21,936.152 1513.16,939.368 1515.11,942.588 
  1517.06,945.811 1519.01,949.037 1520.96,952.267 1522.9,955.499 1524.84,958.735 1526.78,961.973 1528.72,965.214 1530.65,968.458 1532.58,971.704 1534.52,974.952 
  1536.44,978.203 1538.37,981.456 1540.3,984.711 1542.22,987.968 1544.14,991.226 1546.06,994.487 1547.98,997.749 1549.89,1001.01 1551.81,1004.28 1553.72,1007.54 
  1555.63,1010.81 1557.53,1014.08 1559.44,1017.35 1561.34,1020.62 1563.24,1023.89 1565.14,1027.16 1567.03,1030.43 1568.93,1033.7 1570.82,1036.97 1572.71,1040.24 
  1574.6,1043.52 1576.48,1046.79 1578.36,1050.06 1580.24,1053.33 1582.12,1056.6 1583.99,1059.87 1585.87,1063.14 1587.74,1066.4 1589.61,1069.67 1591.47,1072.93 
  1593.34,1076.2 1595.2,1079.46 1597.06,1082.72 1598.91,1085.98 1600.76,1089.24 1602.62,1092.49 1604.46,1095.75 1606.31,1099 1608.15,1102.25 1610,1105.5 
  1611.84,1108.75 1613.67,1111.99 1615.51,1115.23 1617.34,1118.47 1619.17,1121.71 1620.99,1124.95 1622.82,1128.18 1624.64,1131.41 1626.46,1134.64 1628.27,1137.86 
  1630.09,1141.08 1631.9,1144.3 1633.71,1147.52 1635.52,1150.73 1637.32,1153.94 1639.13,1157.14 1640.92,1160.34 1642.72,1163.54 1644.52,1166.73 1646.31,1169.92 
  1648.1,1173.11 1649.89,1176.29 1651.67,1179.47 1653.46,1182.65 1655.24,1185.82 1657.02,1188.98 1658.79,1192.15 1660.56,1195.3 1662.34,1198.46 1664.1,1201.6 
  1665.87,1204.75 1667.64,1207.89 1669.4,1211.02 1671.16,1214.15 1672.91,1217.27 1674.67,1220.39 1676.42,1223.51 1678.17,1226.62 1679.92,1229.72 1681.67,1232.82 
  1683.41,1235.91 1685.15,1239 1686.89,1242.08 1688.63,1245.16 1690.36,1248.23 1692.09,1251.29 1693.82,1254.35 1695.55,1257.41 1697.28,1260.45 1699,1263.5 
  1700.72,1266.53 1702.44,1269.56 1704.16,1272.58 1705.87,1275.6 1707.58,1278.61 1709.29,1281.62 1711,1284.61 1712.71,1287.61 1714.41,1290.59 1716.12,1293.57 
  1717.82,1296.54 1719.51,1299.51 1721.21,1302.46 1722.9,1305.41 1724.6,1308.36 1726.29,1311.3 1727.97,1314.23 1729.66,1317.15 1731.34,1320.07 1733.03,1322.98 
  1734.71,1325.88 1736.39,1328.77 1738.06,1331.66 1739.74,1334.54 1741.41,1337.41 1743.08,1340.28 1744.75,1343.14 1746.42,1345.99 1748.08,1348.83 1749.75,1351.66 
  1751.41,1354.49 1753.07,1357.31 1754.73,1360.12 1756.39,1362.93 1758.04,1365.72 1759.7,1368.51 1761.35,1371.29 1763,1374.06 1764.65,1376.83 1766.3,1379.58 
  1767.94,1382.33 1769.59,1385.07 1771.23,1387.8 1772.87,1390.53 1774.51,1393.24 1776.15,1395.95 1777.79,1398.65 1779.42,1401.34 1781.06,1404.02 1782.69,1406.7 
  1784.32,1409.36 1785.95,1412.02 1787.58,1414.67 1789.21,1417.31 1790.84,1419.94 1792.46,1422.56 1794.08,1425.17 1795.71,1427.78 1797.33,1430.38 1798.95,1432.96 
  1800.57,1435.54 1802.19,1438.11 1803.8,1440.68 1805.42,1443.23 1807.04,1445.77 1808.65,1448.31 1810.26,1450.84 1811.88,1453.35 1813.49,1455.86 1815.1,1458.36 
  1816.71,1460.85 1818.32,1463.34 1819.93,1465.81 1821.53,1468.27 1823.14,1470.73 1824.75,1473.17 1826.35,1475.61 1827.96,1478.04 1829.56,1480.46 1831.16,1482.87 
  1832.76,1485.27 1834.37,1487.66 1835.97,1490.04 1837.57,1492.42 1839.17,1494.78 1840.77,1497.14 1842.37,1499.48 1843.97,1501.82 1845.57,1504.15 1847.17,1506.47 
  1848.77,1508.77 1850.37,1511.07 1851.96,1513.37 1853.56,1515.65 1855.16,1517.92 1856.76,1520.18 1858.35,1522.44 1859.95,1524.68 1861.55,1526.92 1863.15,1529.15 
  1864.74,1531.36 1866.34,1533.57 1867.94,1535.77 1869.54,1537.96 1871.13,1540.14 1872.73,1542.31 1874.33,1544.48 1875.93,1546.63 1877.53,1548.77 1879.13,1550.91 
  1880.73,1553.03 1882.33,1555.15 1883.93,1557.26 1885.53,1559.36 1887.13,1561.45 1888.73,1563.53 1890.34,1565.6 1891.94,1567.66 1893.54,1569.71 1895.15,1571.76 
  1896.75,1573.79 1898.36,1575.82 1899.97,1577.83 1901.58,1579.84 1903.18,1581.84 1904.79,1583.83 1906.41,1585.81 1908.02,1587.78 1909.63,1589.75 1911.24,1591.7 
  1912.86,1593.65 1914.48,1595.58 1916.09,1597.51 1917.71,1599.43 1919.33,1601.34 1920.95,1603.24 1922.58,1605.13 1924.2,1607.02 1925.83,1608.89 1927.45,1610.76 
  1929.08,1612.62 1930.71,1614.47 1932.34,1616.31 1933.98,1618.14 1935.61,1619.96 1937.25,1621.78 1938.89,1623.58 1940.53,1625.38 1942.17,1627.17 1943.81,1628.95 
  1945.46,1630.72 1947.1,1632.48 1948.75,1634.23 1950.4,1635.97 1952.05,1637.7 1953.71,1639.43 1955.36,1641.14 1957.02,1642.85 1958.68,1644.55 1960.34,1646.24 
  1962,1647.92 1963.67,1649.59 1965.33,1651.25 1967,1652.9 1968.67,1654.55 1970.34,1656.18 1972.02,1657.81 1973.7,1659.43 1975.37,1661.03 1977.06,1662.64 
  1978.74,1664.23 1980.42,1665.81 1982.11,1667.38 1983.8,1668.95 1985.49,1670.51 1987.19,1672.05 1988.88,1673.59 1990.58,1675.12 1992.28,1676.64 1993.98,1678.16 
  
  "/>
<path clip-path="url(#clip302)" d="
M1950.93 1639.9 L1970.05 1618.37 L1993.98 1678.16 L1931.8 1661.43  Z
  " fill="#000000" fill-rule="evenodd" fill-opacity="1"/>
<polyline clip-path="url(#clip302)" style="stroke:#000000; stroke-linecap:round; stroke-linejoin:round; stroke-width:4; stroke-opacity:1; fill:none" points="
  1950.93,1639.9 1992.28,1676.64 
  "/>
<polyline clip-path="url(#clip302)" style="stroke:#000000; stroke-linecap:round; stroke-linejoin:round; stroke-width:4; stroke-opacity:1; fill:none" points="
  1993.98,1678.16 1995.69,1679.66 1997.4,1681.16 1999.11,1682.65 2000.82,1684.12 2002.54,1685.59 2004.25,1687.06 2005.97,1688.51 2007.69,1689.95 2009.42,1691.39 
  2011.15,1692.82 2012.88,1694.24 2014.61,1695.65 2016.34,1697.05 2018.08,1698.44 2019.82,1699.83 2021.56,1701.2 2023.31,1702.57 2025.05,1703.93 2026.8,1705.28 
  2028.56,1706.63 2030.31,1707.96 2032.07,1709.29 2033.83,1710.61 2035.59,1711.92 2037.36,1713.22 2039.13,1714.51 2040.9,1715.8 2042.67,1717.07 2044.45,1718.34 
  2046.23,1719.6 2048.01,1720.85 2049.8,1722.09 2051.58,1723.33 2053.37,1724.56 2055.17,1725.77 2056.96,1726.99 2058.76,1728.19 2060.56,1729.38 2062.37,1730.57 
  2064.17,1731.75 2065.98,1732.91 2067.8,1734.08 2069.61,1735.23 2071.43,1736.37 2073.25,1737.51 2075.07,1738.64 2076.9,1739.76 2078.73,1740.87 2080.56,1741.98 
  2082.4,1743.08 2084.24,1744.16 2086.08,1745.24 2087.92,1746.32 2089.77,1747.38 2091.62,1748.44 2093.47,1749.49 2095.32,1750.53 2097.18,1751.56 2099.04,1752.58 
  2100.91,1753.6 2102.77,1754.61 2104.64,1755.61 2106.51,1756.6 2108.39,1757.59 2110.27,1758.57 2112.15,1759.53 2114.03,1760.5 2115.92,1761.45 2117.81,1762.39 
  2119.7,1763.33 2121.59,1764.26 2123.49,1765.18 2125.39,1766.1 2127.3,1767 2129.2,1767.9 2131.11,1768.79 2133.02,1769.68 2134.94,1770.55 2136.86,1771.42 
  2138.78,1772.28 2140.7,1773.13 2142.62,1773.97 2144.55,1774.81 2146.48,1775.64 2148.42,1776.46 2150.36,1777.27 2152.3,1778.08 2154.24,1778.88 2156.18,1779.67 
  2158.13,1780.45 2160.08,1781.22 2162.03,1781.99 2163.99,1782.75 2165.95,1783.5 2167.91,1784.24 2169.87,1784.98 2171.84,1785.71 2173.81,1786.43 2175.78,1787.14 
  2177.76,1787.85 2179.73,1788.55 2181.71,1789.24 2183.7,1789.92 2185.68,1790.6 2187.67,1791.26 2189.66,1791.92 2191.65,1792.58 2193.65,1793.22 2195.64,1793.86 
  2197.64,1794.49 2199.65,1795.11 2201.65,1795.73 2203.66,1796.33 2205.67,1796.93 2207.68,1797.53 2209.69,1798.11 2211.71,1798.69 2213.73,1799.26 2215.75,1799.82 
  2217.78,1800.38 2219.8,1800.92 2221.83,1801.46 2223.86,1802 2225.89,1802.52 2227.93,1803.04 2229.97,1803.55 2232.01,1804.05 2234.05,1804.55 2236.09,1805.03 
  2238.14,1805.52 2240.19,1805.99 2242.24,1806.45 2244.29,1806.91 2246.34,1807.36 2248.4,1807.81 2250.46,1808.24 2252.52,1808.67 2254.58,1809.09 2256.65,1809.51 
  2258.71,1809.91 2260.78,1810.31 2262.85,1810.71 2264.92,1811.09 2266.99,1811.47 2269.07,1811.84 2271.15,1812.2 2273.22,1812.55 2275.3,1812.9 2277.39,1813.24 
  2279.47,1813.58 2281.56,1813.9 2283.64,1814.22 2285.73,1814.53 2287.82,1814.84 2289.91,1815.13 2292.01,1815.42 2294.1,1815.71 2296.2,1815.98 2298.29,1816.25 
  2300.39,1816.51 2302.49,1816.76 2304.59,1817.01 2306.7,1817.25 2308.8,1817.48 2310.9,1817.7 2313.01,1817.92 2315.12,1818.13 2317.23,1818.33 2319.34,1818.53 
  2321.45,1818.71 2323.56,1818.89 2325.67,1819.07 2327.79,1819.24 2329.9,1819.39 2332.02,1819.55 2334.13,1819.69 2336.25,1819.83 2338.37,1819.96 2340.49,1820.08 
  2342.61,1820.2 2344.73,1820.31 2346.85,1820.41 2348.97,1820.51 2351.1,1820.59 2353.22,1820.67 2355.35,1820.75 2357.47,1820.81 2359.59,1820.87 2361.72,1820.93 
  2363.85,1820.97 2365.97,1821.01 2368.1,1821.04 2370.22,1821.06 2372.35,1821.08 2374.48,1821.09 2376.61,1821.09 2378.73,1821.09 2380.86,1821.07 2382.99,1821.05 
  2385.12,1821.03 2387.24,1820.99 2389.37,1820.95 2391.5,1820.91 2393.63,1820.85 2395.75,1820.79 2397.88,1820.72 2400.01,1820.64 2402.13,1820.56 2404.26,1820.47 
  2406.38,1820.37 2408.51,1820.27 2410.63,1820.16 2412.76,1820.04 2414.88,1819.91 2417.01,1819.78 2419.13,1819.64 2421.25,1819.49 2423.37,1819.34 2425.49,1819.17 
  2427.61,1819 2429.73,1818.83 2431.85,1818.65 2433.97,1818.46 2436.09,1818.26 2438.2,1818.05 2440.32,1817.84 2442.43,1817.62 2444.55,1817.4 2446.66,1817.17 
  2448.77,1816.93 2450.88,1816.68 2452.99,1816.43 2455.1,1816.16 2457.21,1815.9 2459.31,1815.62 2461.42,1815.34 2463.52,1815.05 2465.63,1814.75 2467.73,1814.45 
  2469.83,1814.14 2471.93,1813.82 2474.02,1813.49 2476.12,1813.16 2478.21,1812.82 2480.31,1812.48 2482.4,1812.12 2484.49,1811.76 2486.58,1811.39 2488.66,1811.02 
  2490.75,1810.64 2492.83,1810.25 2494.92,1809.85 2497,1809.45 2499.07,1809.04 2501.15,1808.62 2503.23,1808.2 2505.3,1807.76 2507.37,1807.33 2509.44,1806.88 
  2511.51,1806.43 2513.58,1805.97 2515.64,1805.5 2517.7,1805.02 2519.76,1804.54 2521.82,1804.05 2523.88,1803.56 2525.93,1803.05 2527.98,1802.54 2530.03,1802.02 
  2532.08,1801.5 2534.12,1800.97 2536.17,1800.43 2538.21,1799.88 2540.25,1799.33 2542.28,1798.77 2544.32,1798.2 2546.35,1797.63 2548.38,1797.04 2550.41,1796.46 
  2552.43,1795.86 2554.45,1795.26 2556.47,1794.65 2558.49,1794.03 2560.51,1793.4 2562.52,1792.77 2564.53,1792.13 2566.54,1791.48 2568.54,1790.83 2570.55,1790.17 
  2572.55,1789.5 2574.54,1788.83 2576.54,1788.14 2578.53,1787.45 2580.52,1786.76 2582.5,1786.05 2584.49,1785.34 2586.47,1784.62 2588.45,1783.9 2590.42,1783.16 
  2592.39,1782.42 2594.36,1781.68 2596.33,1780.92 2598.3,1780.16 2600.26,1779.39 2602.21,1778.61 2604.17,1777.83 2606.12,1777.04 2608.07,1776.24 2610.02,1775.44 
  2611.96,1774.62 2613.9,1773.8 2615.84,1772.98 2617.77,1772.14 2619.7,1771.3 2621.63,1770.45 2623.55,1769.59 2625.48,1768.73 2627.39,1767.86 2629.31,1766.98 
  2631.22,1766.1 2633.13,1765.2 2635.03,1764.3 2636.94,1763.39 2638.83,1762.48 2640.73,1761.56 2642.62,1760.63 2644.51,1759.69 2646.4,1758.75 2648.28,1757.8 
  2650.16,1756.84 2652.03,1755.87 2653.9,1754.9 2655.77,1753.92 2657.64,1752.93 2659.5,1751.93 2661.36,1750.93 2663.21,1749.92 2665.06,1748.9 2666.91,1747.88 
  2668.75,1746.84 2670.59,1745.8 2672.43,1744.76 2674.26,1743.7 2676.09,1742.64 2677.92,1741.57 2679.74,1740.49 2681.56,1739.41 2683.38,1738.32 2685.19,1737.22 
  2687,1736.11 2688.8,1735 2690.6,1733.87 2692.4,1732.74 2694.19,1731.61 2695.98,1730.46 2697.77,1729.31 2699.55,1728.15 2701.32,1726.99 2703.1,1725.81 
  2704.87,1724.63 2706.64,1723.44 2708.4,1722.24 2710.16,1721.04 2711.91,1719.83 2713.66,1718.61 2715.41,1717.38 2717.15,1716.15 2718.89,1714.91 2720.63,1713.66 
  2722.36,1712.41 2724.08,1711.14 2725.81,1709.87 2727.52,1708.59 2729.24,1707.31 2730.95,1706.01 2732.66,1704.71 2734.36,1703.4 2736.06,1702.09 2737.75,1700.77 
  2739.44,1699.43 2741.13,1698.1 2742.81,1696.75 2744.49,1695.4 2746.16,1694.04 2747.83,1692.67 2749.5,1691.29 2751.16,1689.91 2752.82,1688.51 2754.47,1687.12 
  2756.12,1685.71 2757.76,1684.29 2759.41,1682.87 2761.04,1681.44 2762.68,1680 2764.3,1678.56 2765.93,1677.11 2767.55,1675.65 2769.17,1674.18 2770.78,1672.7 
  2772.39,1671.22 2773.99,1669.73 2775.59,1668.23 2777.18,1666.72 2778.77,1665.21 2780.36,1663.69 2781.94,1662.16 2783.52,1660.62 2785.1,1659.07 2786.67,1657.52 
  2788.23,1655.96 2789.79,1654.39 2791.35,1652.82 2792.91,1651.23 2794.45,1649.64 2796,1648.04 2797.54,1646.44 2799.08,1644.82 2800.61,1643.2 2802.14,1641.57 
  2803.66,1639.93 2805.18,1638.28 2806.69,1636.63 2808.2,1634.97 2809.71,1633.3 2811.21,1631.62 2812.71,1629.94 2814.2,1628.24 2815.69,1626.54 2817.18,1624.84 
  2818.66,1623.12 2820.13,1621.4 2821.6,1619.66 2823.07,1617.92 2824.53,1616.18 2825.99,1614.42 2827.45,1612.66 2828.9,1610.89 2830.34,1609.11 2831.78,1607.32 
  2833.22,1605.53 2834.65,1603.73 2836.08,1601.92 2837.5,1600.1 2838.92,1598.28 2840.34,1596.44 2841.75,1594.6 2843.16,1592.75 2844.56,1590.9 2845.95,1589.03 
  2847.35,1587.16 2848.74,1585.28 2850.12,1583.39 2851.5,1581.5 2852.87,1579.59 2854.24,1577.68 2855.61,1575.76 2856.97,1573.84 2858.33,1571.9 2859.68,1569.96 
  2861.03,1568.01 2862.37,1566.05 2863.71,1564.09 2865.05,1562.12 2866.38,1560.13 2867.7,1558.15 2869.03,1556.15 2870.34,1554.15 2871.66,1552.13 2872.96,1550.11 
  2874.27,1548.09 2875.56,1546.05 2876.86,1544.01 2878.15,1541.96 2879.43,1539.9 2880.71,1537.83 2881.99,1535.76 2883.26,1533.68 2884.53,1531.59 2885.79,1529.49 
  2887.05,1527.39 2888.3,1525.28 2889.55,1523.16 2890.8,1521.03 2892.04,1518.89 2893.27,1516.75 2894.5,1514.6 2895.73,1512.44 2896.95,1510.28 2898.16,1508.1 
  2899.38,1505.92 2900.58,1503.74 2901.79,1501.54 2902.98,1499.34 2904.18,1497.12 2905.37,1494.91 2906.55,1492.68 2907.73,1490.45 2908.9,1488.2 2910.07,1485.95 
  2911.24,1483.7 2912.4,1481.43 2913.56,1479.16 2914.71,1476.88 2915.86,1474.6 2917,1472.3 2918.13,1470 2919.27,1467.69 2920.4,1465.38 2921.52,1463.05 
  2922.64,1460.72 2923.75,1458.38 2924.86,1456.04 2925.97,1453.68 2927.07,1451.32 2928.16,1448.95 2929.25,1446.58 2930.34,1444.19 2931.42,1441.8 2932.49,1439.41 
  2933.56,1437 2934.63,1434.59 2935.69,1432.17 2936.75,1429.74 2937.8,1427.31 2938.85,1424.87 2939.89,1422.42 2940.93,1419.96 2941.96,1417.5 2942.99,1415.03 
  2944.02,1412.55 2945.04,1410.07 2946.05,1407.57 2947.06,1405.08 2948.06,1402.57 2949.06,1400.06 2950.06,1397.54 2951.05,1395.01 2952.03,1392.47 2953.01,1389.93 
  2953.99,1387.38 2954.96,1384.83 2955.92,1382.26 2956.89,1379.7 2957.84,1377.12 2958.79,1374.53 2959.74,1371.94 2960.68,1369.35 2961.62,1366.74 2962.55,1364.13 
  2963.48,1361.51 2964.4,1358.89 2965.32,1356.25 2966.23,1353.62 2967.13,1350.97 2968.04,1348.32 2968.93,1345.66 2969.83,1342.99 2970.71,1340.32 2971.6,1337.64 
  2972.48,1334.95 2973.35,1332.26 2974.22,1329.56 2975.08,1326.85 2975.94,1324.14 2976.79,1321.42 2977.64,1318.69 2978.48,1315.96 2979.32,1313.22 2980.15,1310.47 
  2980.98,1307.72 2981.81,1304.96 2982.62,1302.2 2983.44,1299.42 2984.25,1296.65 2985.05,1293.86 2985.85,1291.07 2986.64,1288.27 2987.43,1285.47 2988.21,1282.66 
  2988.99,1279.84 2989.77,1277.02 2990.53,1274.19 2991.3,1271.35 2992.06,1268.51 2992.81,1265.66 2993.56,1262.81 2994.3,1259.95 2995.04,1257.08 2995.77,1254.2 
  2996.5,1251.33 2997.23,1248.44 2997.94,1245.55 2998.66,1242.65 2999.37,1239.75 3000.07,1236.84 3000.77,1233.92 3001.46,1231 3002.15,1228.07 3002.83,1225.14 
  3003.51,1222.2 3004.18,1219.26 3004.85,1216.31 3005.51,1213.35 3006.17,1210.39 3006.82,1207.42 3007.47,1204.44 3008.11,1201.46 3008.75,1198.48 3009.38,1195.49 
  3010,1192.49 3010.63,1189.49 3011.24,1186.48 3011.85,1183.47 3012.46,1180.45 3013.06,1177.42 3013.66,1174.39 3014.25,1171.36 3014.83,1168.32 3015.41,1165.27 
  3015.99,1162.22 3016.56,1159.16 3017.12,1156.1 3017.68,1153.03 3018.24,1149.96 3018.79,1146.88 3019.33,1143.79 3019.87,1140.71 3020.4,1137.61 3020.93,1134.51 
  3021.46,1131.41 3021.98,1128.3 3022.49,1125.18 3023,1122.06 3023.5,1118.94 3024,1115.81 3024.5,1112.67 3024.98,1109.53 3025.47,1106.39 3025.95,1103.24 
  3026.42,1100.08 3026.9,1096.92 3027.36,1093.76 3027.82,1090.59 3028.28,1087.42 3028.73,1084.24 3029.18,1081.06 3029.62,1077.88 3030.06,1074.69 3030.5,1071.5 
  3030.93,1068.3 3031.36,1065.1 3031.78,1061.89 3032.2,1058.68 3032.61,1055.47 3033.02,1052.25 3033.43,1049.03 3033.83,1045.81 3034.23,1042.58 3034.62,1039.35 
  3035.02,1036.11 3035.4,1032.87 3035.79,1029.63 3036.17,1026.39 3036.54,1023.14 3036.91,1019.89 3037.28,1016.63 3037.65,1013.37 3038.01,1010.11 3038.37,1006.85 
  3038.72,1003.58 3039.08,1000.31 3039.42,997.042 3039.77,993.767 3040.11,990.489 3040.45,987.209 3040.79,983.926 3041.12,980.641 3041.45,977.353 3041.78,974.063 
  3042.1,970.771 3042.42,967.476 3042.74,964.18 3043.06,960.881 3043.37,957.58 3043.68,954.277 3043.99,950.972 3044.29,947.665 3044.59,944.356 3044.9,941.046 
  3045.19,937.734 3045.49,934.42 3045.78,931.104 3046.07,927.787 3046.36,924.469 3046.65,921.149 3046.93,917.827 3047.22,914.505 3047.5,911.181 3047.78,907.856 
  3048.05,904.53 3048.33,901.202 3048.6,897.874 3048.87,894.545 3049.14,891.215 3049.41,887.884 3049.68,884.552 3049.94,881.219 3050.21,877.886 3050.47,874.553 
  3050.73,871.218 3050.99,867.883 3051.25,864.548 3051.5,861.212 3051.76,857.877 3052.02,854.54 3052.27,851.204 3052.52,847.867 3052.77,844.531 3053.03,841.194 
  3053.28,837.857 3053.53,834.521 3053.78,831.185 3054.02,827.848 3054.27,824.513 3054.52,821.177 3054.77,817.842 3055.01,814.507 3055.26,811.173 3055.51,807.839 
  3055.75,804.506 3056,801.174 3056.24,797.842 3056.49,794.512 3056.74,791.182 3056.98,787.853 3057.23,784.525 3057.47,781.198 3057.72,777.872 3057.97,774.547 
  3058.21,771.223 3058.46,767.901 3058.71,764.58 3058.96,761.26 3059.21,757.942 3059.46,754.626 3059.71,751.311 3059.96,747.997 3060.21,744.685 3060.47,741.375 
  3060.72,738.067 3060.98,734.761 3061.23,731.456 3061.49,728.154 3061.75,724.853 3062.01,721.555 3062.27,718.259 3062.54,714.964 3062.8,711.673 3063.07,708.383 
  3063.34,705.096 3063.61,701.812 3063.88,698.529 3064.15,695.25 3064.43,691.973 3064.7,688.698 3064.98,685.427 3065.27,682.158 3065.55,678.892 3065.84,675.629 
  3066.12,672.369 3066.41,669.112 3066.71,665.858 3067,662.607 3067.3,659.36 3067.6,656.115 3067.91,652.874 3068.21,649.637 3068.52,646.402 3068.83,643.172 
  3069.15,639.944 3069.47,636.721 3069.79,633.501 3070.11,630.285 3070.44,627.072 3070.77,623.864 3071.11,620.659 3071.45,617.459 3071.79,614.262 3072.13,611.069 
  3072.48,607.881 3072.83,604.697 3073.19,601.517 3073.55,598.341 3073.92,595.17 3074.28,592.003 3074.66,588.84 3075.03,585.682 3075.42,582.529 3075.8,579.381 
  3076.19,576.237 3076.59,573.098 3076.98,569.963 3077.39,566.834 3077.8,563.709 3078.21,560.59 3078.63,557.476 3079.05,554.367 3079.48,551.263 3079.91,548.164 
  3080.35,545.07 3080.79,541.982 3081.24,538.9 3081.7,535.822 3082.16,532.751 3082.62,529.685 3083.09,526.624 3083.57,523.57 3084.05,520.521 3084.54,517.478 
  3085.03,514.441 3085.53,511.409 3086.04,508.384 3086.55,505.365 3087.07,502.352 3087.59,499.345 3088.13,496.344 3088.66,493.35 3089.21,490.362 3089.76,487.381 
  3090.32,484.406 3090.88,481.437 3091.45,478.475 3092.03,475.52 3092.62,472.571 3093.21,469.629 3093.81,466.694 3094.41,463.766 3095.03,460.845 3095.65,457.931 
  3096.28,455.024 3096.92,452.124 3097.56,449.231 3098.21,446.345 3098.87,443.467 3099.54,440.596 3100.22,437.733 3100.9,434.877 3101.59,432.028 3102.29,429.187 
  3103,426.352 3103.72,423.525 3104.44,420.706 3105.17,417.893 3105.91,415.088 3106.66,412.291 3107.41,409.5 3108.17,406.718 3108.95,403.942 3109.72,401.175 
  3110.51,398.414 3111.31,395.662 3112.11,392.917 3112.93,390.179 3113.75,387.45 3114.58,384.728 3115.41,382.013 3116.26,379.307 3117.12,376.608 3117.98,373.917 
  3118.85,371.234 3119.73,368.559 3120.62,365.891 3121.52,363.232 3122.43,360.58 3123.35,357.937 3124.27,355.301 3125.21,352.674 3126.15,350.055 3127.11,347.443 
  3128.07,344.84 3129.04,342.245 3130.02,339.658 3131.01,337.08 3132.01,334.509 3133.01,331.947 3134.03,329.393 3135.06,326.847 3136.09,324.31 3137.14,321.781 
  3138.19,319.26 3139.26,316.748 3140.33,314.244 3141.42,311.749 3142.51,309.262 3143.61,306.784 3144.73,304.314 3145.85,301.852 3146.98,299.4 3148.12,296.956 
  3149.27,294.52 3150.43,292.093 3151.6,289.675 3152.79,287.265 3153.98,284.864 3155.18,282.472 3156.39,280.088 3157.61,277.714 3158.84,275.348 3160.08,272.99 
  3161.33,270.642 3162.59,268.303 3163.86,265.972 3165.14,263.65 3166.44,261.337 3167.74,259.033 3169.05,256.738 3170.37,254.452 3171.7,252.175 3173.05,249.907 
  3174.4,247.648 3175.76,245.398 3177.14,243.157 3178.52,240.925 3179.91,238.702 3181.32,236.489 3182.73,234.284 3184.16,232.089 3185.6,229.902 3187.04,227.725 
  3188.5,225.557 3189.97,223.399 3191.45,221.249 3192.93,219.109 3194.43,216.978 3195.94,214.856 3197.46,212.744 3199,210.641 3200.54,208.547 3202.09,206.462 
  3203.65,204.387 3205.23,202.322 3206.81,200.265 3208.41,198.218 3210.01,196.18 3211.63,194.152 3213.25,192.133 3214.89,190.124 3216.54,188.124 3218.2,186.134 
  3219.87,184.153 3221.55,182.182 3223.24,180.22 3224.95,178.267 3226.66,176.324 3228.38,174.391 3230.12,172.467 3231.86,170.553 3233.62,168.648 3235.39,166.753 
  3237.17,164.868 3238.95,162.992 3240.75,161.126 3242.56,159.269 3244.39,157.422 3246.22,155.585 3248.06,153.757 3249.92,151.939 3251.78,150.131 3253.66,148.332 
  3255.54,146.543 3257.44,144.764 3259.35,142.994 3261.27,141.234 3263.2,139.484 3265.14,137.744 3267.09,136.013 3269.05,134.292 3271.03,132.581 3273.01,130.88 
  3275.01,129.188 3277.01,127.506 3279.03,125.834 3281.06,124.172 3283.09,122.519 3285.14,120.876 3287.2,119.243 3289.27,117.62 3291.36,116.007 3293.45,114.404 
  3295.55,112.81 3297.66,111.226 3299.79,109.652 3301.92,108.088 3304.07,106.534 3306.23,104.989 3308.39,103.454 3310.57,101.93 3312.76,100.415 3314.96,98.9095 
  
  "/>
<circle clip-path="url(#clip302)" cx="225.602" cy="1393.31" r="14.4" fill="#000000" fill-rule="evenodd" fill-opacity="1" stroke="none"/>
<circle clip-path="url(#clip302)" cx="3314.96" cy="98.9095" r="14.4" fill="#000000" fill-rule="evenodd" fill-opacity="1" stroke="none"/>
<path clip-path="url(#clip300)" d="M185.185 1419.72 Q185.185 1423.66 182.726 1425.91 Q180.266 1428.09 177.456 1428.09 Q174.786 1428.09 173.38 1426.54 Q171.975 1424.99 171.975 1423.03 Q171.975 1420.36 173.942 1418.04 Q175.91 1415.72 178.861 1415.23 Q175.98 1413.4 171.694 1413.4 Q168.883 1413.4 166.424 1414.88 Q164.035 1416.35 162.559 1418.25 Q161.154 1420.15 159.889 1422.89 Q158.694 1425.56 158.202 1427.17 Q157.781 1428.72 157.43 1430.41 L152.511 1450.08 Q150.122 1459.43 150.122 1462.73 Q150.122 1466.8 152.089 1469.54 Q154.057 1472.21 157.992 1472.21 Q159.538 1472.21 161.294 1471.79 Q163.051 1471.3 165.299 1470.04 Q167.618 1468.7 169.656 1466.73 Q171.764 1464.7 173.802 1461.25 Q175.84 1457.81 177.175 1453.38 Q177.596 1451.84 179.002 1451.84 Q180.758 1451.84 180.758 1453.24 Q180.758 1454.44 179.775 1456.97 Q178.861 1459.43 176.823 1462.66 Q174.856 1465.82 172.256 1468.7 Q169.656 1471.51 165.791 1473.48 Q161.927 1475.45 157.711 1475.45 Q151.668 1475.45 147.662 1472.21 Q143.657 1468.98 142.182 1464.48 Q141.83 1465.12 141.338 1465.96 Q140.846 1466.8 139.371 1468.7 Q137.965 1470.53 136.349 1471.93 Q134.733 1473.27 132.204 1474.32 Q129.744 1475.45 127.074 1475.45 Q123.701 1475.45 120.68 1474.46 Q117.728 1473.48 115.62 1471.23 Q113.512 1468.98 113.512 1465.89 Q113.512 1462.45 115.831 1460.06 Q118.22 1457.6 121.453 1457.6 Q123.49 1457.6 125.107 1458.79 Q126.793 1459.99 126.793 1462.59 Q126.793 1465.47 124.825 1467.65 Q122.858 1469.82 120.047 1470.39 Q122.928 1472.21 127.215 1472.21 Q131.852 1472.21 135.506 1468.14 Q139.16 1464.06 140.917 1457.25 Q145.273 1440.87 146.96 1433.57 Q148.646 1426.19 148.646 1423.03 Q148.646 1420.08 147.873 1418.04 Q147.1 1416 145.765 1415.09 Q144.5 1414.1 143.306 1413.75 Q142.182 1413.4 140.917 1413.4 Q138.809 1413.4 136.42 1414.24 Q134.101 1415.09 131.29 1417.05 Q128.55 1418.95 125.95 1422.89 Q123.35 1426.82 121.593 1432.23 Q121.242 1433.85 119.696 1433.85 Q118.01 1433.78 118.01 1432.37 Q118.01 1431.18 118.923 1428.72 Q119.907 1426.19 121.874 1423.03 Q123.912 1419.86 126.512 1417.05 Q129.182 1414.17 133.047 1412.21 Q136.982 1410.24 141.198 1410.24 Q143.095 1410.24 144.922 1410.66 Q146.819 1411.01 149.068 1412.07 Q151.387 1413.12 153.424 1415.44 Q155.462 1417.76 156.727 1421.13 Q157.57 1419.51 158.694 1417.97 Q159.889 1416.42 161.716 1414.52 Q163.613 1412.56 166.213 1411.43 Q168.883 1410.24 171.834 1410.24 Q174.715 1410.24 177.526 1411.01 Q180.337 1411.71 182.726 1414.03 Q185.185 1416.28 185.185 1419.72 Z" fill="#000000" fill-rule="evenodd" fill-opacity="1" /><path clip-path="url(#clip300)" d="M3461.69 54.8292 L3458.81 79.7039 Q3458.6 81.9524 3458.25 82.6551 Q3457.9 83.2875 3456.77 83.2875 Q3455.09 83.2875 3455.09 81.6011 Q3455.09 80.8984 3455.37 79.0012 Q3455.79 75.1365 3455.79 71.2015 Q3455.79 66.7747 3454.95 64.0342 Q3454.17 61.2236 3451.92 59.1858 Q3449.68 57.148 3445.53 56.3048 Q3441.38 55.3914 3434.78 55.3914 L3415.81 55.3914 Q3411.17 55.3914 3410.05 56.2346 Q3408.99 57.0778 3408.01 61.0127 L3398.8 97.5518 L3411.87 97.5518 Q3421.01 97.5518 3424.59 94.8816 Q3428.17 92.2114 3430.42 83.7091 Q3430.77 82.374 3430.91 81.8821 Q3431.13 81.32 3431.48 81.0389 Q3431.9 80.6876 3432.6 80.6876 Q3433.23 80.6876 3433.66 81.1092 Q3434.08 81.4605 3434.22 81.8821 L3434.36 82.3038 Q3434.36 83.0064 3433.94 84.6226 L3426 115.821 Q3425.43 117.929 3425.08 118.421 Q3424.8 118.843 3423.82 118.843 Q3423.12 118.843 3422.62 118.351 Q3422.13 117.859 3422.13 117.086 Q3422.27 116.243 3422.55 115.54 Q3423.54 111.254 3423.54 108.513 Q3423.54 106.757 3423.19 105.703 Q3422.83 104.649 3421.64 103.735 Q3420.44 102.822 3417.99 102.4 Q3415.53 101.979 3411.59 101.979 L3397.68 101.979 L3388.75 137.815 L3388.12 141.118 Q3388.12 142.593 3388.89 143.155 Q3389.74 143.717 3392.76 143.998 Q3397.26 144.35 3400.21 144.35 Q3403.86 144.35 3404.28 144.49 Q3405.13 144.912 3405.13 146.036 Q3405.13 147.301 3404.56 148.004 Q3404 148.636 3403.51 148.706 Q3403.02 148.777 3402.11 148.777 L3380.67 148.355 L3361.7 148.777 Q3359.52 148.777 3359.52 147.02 Q3359.52 145.685 3360.09 145.123 Q3360.65 144.49 3361.28 144.42 Q3361.91 144.35 3363.53 144.35 Q3367.04 144.35 3369.15 144.139 Q3371.26 143.928 3372.59 143.647 Q3374 143.296 3374.7 142.312 Q3375.47 141.328 3375.83 140.485 Q3376.18 139.572 3376.67 137.534 L3395.64 61.4344 Q3396.34 58.8345 3396.34 57.9913 Q3396.34 57.0778 3395.71 56.5156 Q3395.15 55.9535 3393.6 55.7427 Q3392.06 55.4616 3390.79 55.4616 Q3389.6 55.3914 3387 55.3914 Q3385.31 55.3914 3384.61 55.3211 Q3383.98 55.2508 3383.48 54.8995 Q3382.99 54.5482 3382.99 53.7752 Q3382.99 51.8077 3383.84 51.3861 Q3384.75 50.8943 3387.28 50.8943 L3457.83 50.8943 Q3460.64 50.8943 3461.27 51.5267 Q3461.97 52.0888 3461.69 54.8292 Z" fill="#000000" fill-rule="evenodd" fill-opacity="1" /><path clip-path="url(#clip300)" d="M3476.33 156.428 Q3476.33 141.622 3480.07 133.556 Q3485.29 121.554 3497.58 121.554 Q3500.19 121.554 3502.89 122.292 Q3505.65 122.98 3509.09 125.686 Q3512.58 128.391 3514.7 132.818 Q3518.73 141.376 3518.73 156.428 Q3518.73 171.135 3514.99 179.152 Q3509.53 190.859 3497.48 190.859 Q3492.96 190.859 3488.33 188.547 Q3483.76 186.235 3480.86 180.677 Q3476.33 172.364 3476.33 156.428 M3484.7 155.198 Q3484.7 170.397 3485.78 176.447 Q3487.01 182.989 3490.35 185.841 Q3493.75 188.645 3497.48 188.645 Q3501.52 188.645 3504.86 185.645 Q3508.26 182.595 3509.29 176.053 Q3510.42 169.61 3510.37 155.198 Q3510.37 141.18 3509.39 135.572 Q3508.06 129.03 3504.52 126.423 Q3501.03 123.767 3497.48 123.767 Q3496.16 123.767 3494.73 124.161 Q3493.35 124.554 3491.34 125.686 Q3489.32 126.817 3487.74 129.621 Q3486.22 132.424 3485.48 136.654 Q3484.7 142.114 3484.7 155.198 Z" fill="#000000" fill-rule="evenodd" fill-opacity="1" /><path clip-path="url(#clip300)" d="M3507.27 27.143 Q3507.27 28.5202 3506.63 28.8645 Q3505.99 29.1596 3504.22 29.1596 L3494.78 29.1596 L3487.3 58.8687 Q3486.71 61.4756 3486.71 63.689 Q3486.71 66.1484 3487.45 67.2305 Q3488.24 68.3126 3489.86 68.3126 Q3493.06 68.3126 3496.5 65.4106 Q3499.99 62.5085 3502.94 55.4256 Q3503.34 54.491 3503.53 54.2943 Q3503.78 54.0483 3504.42 54.0483 Q3505.65 54.0483 3505.65 55.0321 Q3505.65 55.3764 3504.96 56.9504 Q3504.32 58.5244 3502.89 60.8361 Q3501.52 63.1479 3499.7 65.3122 Q3497.93 67.4764 3495.22 69.0504 Q3492.52 70.5752 3489.61 70.5752 Q3485.53 70.5752 3482.92 67.9683 Q3480.37 65.3614 3480.37 61.2788 Q3480.37 59.9508 3481.4 55.7207 Q3482.43 51.4414 3488.04 29.1596 L3479.14 29.1596 Q3477.91 29.1596 3477.42 29.1104 Q3476.97 29.0613 3476.63 28.8153 Q3476.33 28.5202 3476.33 27.93 Q3476.33 26.9954 3476.73 26.6019 Q3477.12 26.1592 3477.61 26.11 Q3478.15 26.0117 3479.38 26.0117 L3488.83 26.0117 L3492.76 10.0258 Q3493.16 8.45185 3494.14 7.56648 Q3495.17 6.63193 3495.76 6.53355 Q3496.35 6.38599 3496.8 6.38599 Q3498.12 6.38599 3498.91 7.1238 Q3499.7 7.81242 3499.7 9.09129 Q3499.7 9.7799 3495.57 26.0117 L3504.42 26.0117 Q3505.55 26.0117 3505.99 26.0608 Q3506.48 26.11 3506.88 26.356 Q3507.27 26.6019 3507.27 27.143 Z" fill="#000000" fill-rule="evenodd" fill-opacity="1" /><path clip-path="url(#clip300)" d="M3549.04 112.8 Q3549.04 88.4873 3558.1 68.8827 Q3561.96 60.6614 3567.38 53.7752 Q3572.79 46.889 3576.37 43.8675 Q3579.95 40.846 3580.94 40.846 Q3582.34 40.846 3582.41 42.2514 Q3582.41 42.954 3580.52 44.7107 Q3557.33 68.3206 3557.4 112.8 Q3557.4 157.42 3579.95 180.116 Q3582.41 182.575 3582.41 183.348 Q3582.41 184.754 3580.94 184.754 Q3579.95 184.754 3576.51 181.873 Q3573.07 178.992 3567.73 172.386 Q3562.39 165.781 3558.52 157.701 Q3549.04 138.096 3549.04 112.8 Z" fill="#000000" fill-rule="evenodd" fill-opacity="1" /><path clip-path="url(#clip300)" d="M3665.02 94.6708 Q3665.02 98.6058 3662.56 100.854 Q3660.1 103.033 3657.29 103.033 Q3654.62 103.033 3653.22 101.487 Q3651.81 99.9409 3651.81 97.9734 Q3651.81 95.3032 3653.78 92.9844 Q3655.75 90.6656 3658.7 90.1737 Q3655.82 88.3467 3651.53 88.3467 Q3648.72 88.3467 3646.26 89.8224 Q3643.87 91.298 3642.39 93.1952 Q3640.99 95.0924 3639.72 97.8328 Q3638.53 100.503 3638.04 102.119 Q3637.62 103.665 3637.27 105.351 L3632.35 125.026 Q3629.96 134.372 3629.96 137.674 Q3629.96 141.75 3631.92 144.49 Q3633.89 147.16 3637.83 147.16 Q3639.37 147.16 3641.13 146.739 Q3642.89 146.247 3645.14 144.982 Q3647.45 143.647 3649.49 141.68 Q3651.6 139.642 3653.64 136.199 Q3655.68 132.756 3657.01 128.329 Q3657.43 126.783 3658.84 126.783 Q3660.59 126.783 3660.59 128.188 Q3660.59 129.383 3659.61 131.912 Q3658.7 134.372 3656.66 137.604 Q3654.69 140.766 3652.09 143.647 Q3649.49 146.458 3645.63 148.425 Q3641.76 150.393 3637.55 150.393 Q3631.5 150.393 3627.5 147.16 Q3623.49 143.928 3622.02 139.431 Q3621.67 140.063 3621.17 140.907 Q3620.68 141.75 3619.21 143.647 Q3617.8 145.474 3616.18 146.879 Q3614.57 148.215 3612.04 149.269 Q3609.58 150.393 3606.91 150.393 Q3603.54 150.393 3600.52 149.409 Q3597.56 148.425 3595.46 146.177 Q3593.35 143.928 3593.35 140.836 Q3593.35 137.393 3595.67 135.004 Q3598.06 132.545 3601.29 132.545 Q3603.33 132.545 3604.94 133.739 Q3606.63 134.934 3606.63 137.534 Q3606.63 140.415 3604.66 142.593 Q3602.69 144.771 3599.88 145.334 Q3602.76 147.16 3607.05 147.16 Q3611.69 147.16 3615.34 143.085 Q3619 139.009 3620.75 132.194 Q3625.11 115.821 3626.8 108.513 Q3628.48 101.135 3628.48 97.9734 Q3628.48 95.0221 3627.71 92.9844 Q3626.94 90.9466 3625.6 90.0332 Q3624.34 89.0494 3623.14 88.6981 Q3622.02 88.3467 3620.75 88.3467 Q3618.64 88.3467 3616.26 89.1899 Q3613.94 90.0332 3611.13 92.0006 Q3608.39 93.8979 3605.79 97.8328 Q3603.19 101.768 3601.43 107.178 Q3601.08 108.795 3599.53 108.795 Q3597.85 108.724 3597.85 107.319 Q3597.85 106.124 3598.76 103.665 Q3599.74 101.135 3601.71 97.9734 Q3603.75 94.8113 3606.35 92.0006 Q3609.02 89.1197 3612.88 87.1522 Q3616.82 85.1847 3621.03 85.1847 Q3622.93 85.1847 3624.76 85.6063 Q3626.65 85.9577 3628.9 87.0117 Q3631.22 88.0657 3633.26 90.3845 Q3635.3 92.7033 3636.56 96.0761 Q3637.41 94.46 3638.53 92.9141 Q3639.72 91.3682 3641.55 89.471 Q3643.45 87.5035 3646.05 86.3793 Q3648.72 85.1847 3651.67 85.1847 Q3654.55 85.1847 3657.36 85.9577 Q3660.17 86.6603 3662.56 88.9791 Q3665.02 91.2277 3665.02 94.6708 Z" fill="#000000" fill-rule="evenodd" fill-opacity="1" /><path clip-path="url(#clip300)" d="M3678.87 183.348 Q3678.87 182.646 3680.7 180.889 Q3703.89 157.279 3703.89 112.8 Q3703.89 68.18 3681.61 45.6242 Q3678.87 43.0243 3678.87 42.2514 Q3678.87 40.846 3680.28 40.846 Q3681.26 40.846 3684.7 43.727 Q3688.22 46.6079 3693.49 53.2131 Q3698.83 59.8182 3702.76 67.8989 Q3712.25 87.5035 3712.25 112.8 Q3712.25 137.112 3703.19 156.717 Q3699.32 164.938 3693.91 171.824 Q3688.5 178.711 3684.92 181.732 Q3681.33 184.754 3680.28 184.754 Q3678.87 184.754 3678.87 183.348 Z" fill="#000000" fill-rule="evenodd" fill-opacity="1" /></svg>
